<svg width="57" height="57" viewBox="0 0 57 57" fill="none" xmlns="http://www.w3.org/2000/svg">
<path d="M28.5 0C12.7578 0 0 12.7578 0 28.5C0 44.2383 12.7578 57 28.5 57C44.2383 57 57 44.2383 57 28.5C57 12.7578 44.2383 0 28.5 0Z" fill="white"/>
<path d="M19.5513 8.52686L32.3364 8.60093" stroke="black" stroke-width="0.743907" stroke-linecap="round"/>
<path d="M19.1912 7.02737C19.2927 7.02737 19.3787 7.06252 19.449 7.13674C19.5232 7.21096 19.5584 7.3008 19.5584 7.40237L19.5427 9.65237C19.5427 9.75784 19.5076 9.84377 19.4334 9.91799C19.3631 9.99221 19.2771 10.0274 19.1717 10.0274C19.0701 10.0235 18.9842 9.9883 18.9138 9.91409C18.8435 9.83987 18.8045 9.75393 18.8084 9.64846L18.8201 7.39846C18.8201 7.2969 18.8552 7.20705 18.9295 7.13284C18.9998 7.06252 19.0896 7.02346 19.1912 7.02737Z" fill="black"/>
<path d="M32.7109 7.10156C32.8125 7.10547 32.9023 7.14062 32.9727 7.21484C33.043 7.28906 33.0781 7.375 33.0781 7.48047L33.0664 9.73047C33.0664 9.83203 33.0313 9.92187 32.957 9.99609C32.8828 10.0664 32.7969 10.1055 32.6953 10.1016C32.5938 10.1016 32.5078 10.0664 32.4336 9.99219C32.3633 9.91797 32.3281 9.82812 32.3281 9.72656L32.3398 7.47656C32.3437 7.37109 32.3789 7.28516 32.4492 7.21094C32.5234 7.13672 32.6094 7.10156 32.7109 7.10156Z" fill="black"/>
<path d="M38.4716 49.2383L30.577 33.4492C30.1552 32.6055 29.3075 32.082 28.3661 32.082C27.4247 32.082 26.577 32.6055 26.1591 33.4492H26.1552L18.2645 49.2383C17.8778 50.0078 17.9169 50.9062 18.37 51.6406C18.8231 52.3711 19.6083 52.8125 20.4716 52.8125H36.2606C37.1239 52.8125 37.9091 52.3711 38.3622 51.6406C38.8153 50.9062 38.8544 50.0078 38.4716 49.2383ZM36.6552 50.5859C36.6044 50.668 36.4872 50.8047 36.2606 50.8047H20.4716C20.2489 50.8047 20.1278 50.668 20.077 50.5859C20.0263 50.5039 19.9559 50.3359 20.0575 50.1328L27.952 34.3438C28.0653 34.1133 28.2802 34.0898 28.3661 34.0898C28.452 34.0898 28.6669 34.1133 28.7802 34.3438L36.6747 50.1328C36.7763 50.3359 36.7059 50.5039 36.6552 50.5859Z" fill="#EB5E37"/>
<path d="M28.3662 37.7344C27.8115 37.7344 27.3623 38.1836 27.3623 38.7383V45.1172C27.3623 45.6719 27.8115 46.1211 28.3662 46.1211C28.9209 46.1211 29.3701 45.6719 29.3701 45.1172V38.7383C29.3701 38.1836 28.9209 37.7344 28.3662 37.7344Z" fill="#EB5E37"/>
<path d="M28.3662 47.0391C27.8115 47.0391 27.3623 47.4883 27.3623 48.043V48.7695C27.3623 49.3242 27.8115 49.7734 28.3662 49.7734C28.9209 49.7734 29.3701 49.3242 29.3701 48.7695V48.043C29.3701 47.4883 28.9209 47.0391 28.3662 47.0391Z" fill="#EB5E37"/>
<path d="M9.66016 19.1484C9.29688 19.1484 9 19.4414 9 19.8086V21.1484C9 21.5156 9.29688 21.8125 9.66016 21.8125C10.0273 21.8125 10.3242 21.5156 10.3242 21.1484V19.8086C10.3242 19.4414 10.0273 19.1484 9.66016 19.1484Z" fill="black"/>
<path d="M12.2188 14.707C11.8555 14.707 11.5586 15.0039 11.5586 15.3711V25.5898C11.5586 25.9531 11.8555 26.25 12.2188 26.25C12.5859 26.25 12.8828 25.9531 12.8828 25.5898V15.3711C12.8828 15.0039 12.5859 14.707 12.2188 14.707Z" fill="black"/>
<path d="M14.7773 16.9766C14.4141 16.9766 14.1172 17.2734 14.1172 17.6406V23.3164C14.1172 23.6836 14.4141 23.9805 14.7773 23.9805C15.1445 23.9805 15.4414 23.6836 15.4414 23.3164V17.6406C15.4414 17.2734 15.1445 16.9766 14.7773 16.9766Z" fill="black"/>
<path d="M17.3359 12.6719C16.9727 12.6719 16.6758 12.9688 16.6758 13.332V27.625C16.6758 27.9922 16.9727 28.2891 17.3359 28.2891C17.7031 28.2891 18 27.9922 18 27.625V13.332C18 12.9688 17.7031 12.6719 17.3359 12.6719Z" fill="black"/>
<path d="M19.8945 18.7148C19.5313 18.7148 19.2344 19.0078 19.2344 19.375V21.582C19.2344 21.9492 19.5313 22.2461 19.8945 22.2461C20.2617 22.2461 20.5586 21.9492 20.5586 21.582V19.375C20.5586 19.0078 20.2617 18.7148 19.8945 18.7148Z" fill="black"/>
<path d="M22.4531 14.8281C22.0898 14.8281 21.793 15.125 21.793 15.4922V25.4648C21.793 25.832 22.0898 26.1289 22.4531 26.1289C22.8203 26.1289 23.1172 25.832 23.1172 25.4648V15.4922C23.1172 15.125 22.8203 14.8281 22.4531 14.8281Z" fill="black"/>
<path d="M25.0664 12.6719C25.0625 12.6719 25.0625 12.6719 25.0625 12.6719C24.6954 12.6719 24.4024 12.9648 24.3985 13.3281L24.3047 27.6211C24.3008 27.9883 24.5938 28.2852 24.961 28.2891H24.9649C25.3282 28.2891 25.625 27.9922 25.6289 27.6289L25.7227 13.3359C25.7266 12.9727 25.4297 12.6719 25.0664 12.6719Z" fill="black"/>
<path d="M27.5703 11.4805C27.207 11.4805 26.9102 11.7773 26.9102 12.1445V28.8164C26.9102 29.1797 27.207 29.4766 27.5703 29.4766C27.9375 29.4766 28.2344 29.1797 28.2344 28.8164V12.1445C28.2344 11.7773 27.9375 11.4805 27.5703 11.4805Z" fill="black"/>
<path d="M30.1289 15.5C29.7656 15.5 29.4688 15.7969 29.4688 16.1602V24.7969C29.4688 25.1641 29.7656 25.457 30.1289 25.457C30.4961 25.457 30.793 25.1641 30.793 24.7969V16.1602C30.793 15.7969 30.4961 15.5 30.1289 15.5Z" fill="black"/>
<path d="M32.6875 17.6406C32.3242 17.6406 32.0273 17.9375 32.0273 18.3008V22.6562C32.0273 23.0234 32.3242 23.3203 32.6875 23.3203C33.0547 23.3203 33.3516 23.0234 33.3516 22.6562V18.3008C33.3516 17.9375 33.0547 17.6406 32.6875 17.6406Z" fill="black"/>
<path d="M35.2461 13.4141C34.8828 13.4141 34.5859 13.7109 34.5859 14.0781V26.8789C34.5859 27.2461 34.8828 27.543 35.2461 27.543C35.6133 27.543 35.9102 27.2461 35.9102 26.8789V14.0781C35.9102 13.7109 35.6133 13.4141 35.2461 13.4141Z" fill="black"/>
<path d="M37.8047 15.8555C37.4414 15.8555 37.1445 16.1523 37.1445 16.5195V24.4414C37.1445 24.8047 37.4414 25.1016 37.8047 25.1016C38.1719 25.1016 38.4688 24.8047 38.4688 24.4414V16.5195C38.4688 16.1523 38.1719 15.8555 37.8047 15.8555Z" fill="black"/>
<path d="M40.3633 18.1055C40 18.1055 39.7031 18.4023 39.7031 18.7656V22.1914C39.7031 22.5586 40 22.8516 40.3633 22.8516C40.7305 22.8516 41.0273 22.5586 41.0273 22.1914V18.7656C41.0273 18.4023 40.7305 18.1055 40.3633 18.1055Z" fill="black"/>
<path d="M42.9219 12.6719C42.5586 12.6719 42.2617 12.9688 42.2617 13.332V27.625C42.2617 27.9922 42.5586 28.2891 42.9219 28.2891C43.2891 28.2891 43.5859 27.9922 43.5859 27.625V13.332C43.5859 12.9688 43.2891 12.6719 42.9219 12.6719Z" fill="black"/>
<path d="M45.4805 16.7344C45.1172 16.7344 44.8203 17.0313 44.8203 17.3984V23.5586C44.8203 23.9258 45.1172 24.2227 45.4805 24.2227C45.8477 24.2227 46.1445 23.9258 46.1445 23.5586V17.3984C46.1445 17.0313 45.8477 16.7344 45.4805 16.7344Z" fill="black"/>
<path d="M48.0391 19.332C47.6758 19.332 47.3789 19.6289 47.3789 19.9961V20.9609C47.3789 21.3281 47.6758 21.625 48.0391 21.625C48.4063 21.625 48.7031 21.3281 48.7031 20.9609V19.9961C48.7031 19.6289 48.4063 19.332 48.0391 19.332Z" fill="black"/>
<path d="M19.6758 18.2344C19.3047 18.2344 19 18.5273 19 18.8945V21.1016C19 21.4688 19.3047 21.7656 19.6758 21.7656C20.0469 21.7656 20.3477 21.4688 20.3477 21.1016V18.8945C20.3477 18.5273 20.0469 18.2344 19.6758 18.2344Z" fill="#EB5E37"/>
<path d="M22.2812 14.3477C21.9102 14.3477 21.6055 14.6445 21.6055 15.0117V24.9844C21.6055 25.3516 21.9102 25.6484 22.2812 25.6484C22.6523 25.6484 22.957 25.3516 22.957 24.9844V15.0117C22.957 14.6445 22.6523 14.3477 22.2812 14.3477Z" fill="#EB5E37"/>
<path d="M24.9414 12.1914C24.9375 12.1914 24.9375 12.1914 24.9375 12.1914C24.5664 12.1914 24.2656 12.4844 24.2617 12.8477L24.1641 27.1406C24.1641 27.5078 24.4609 27.8047 24.8359 27.8086H24.8398C25.2109 27.8086 25.5117 27.5117 25.5117 27.1484L25.6094 12.8555C25.6133 12.4922 25.3125 12.1914 24.9414 12.1914Z" fill="#EB5E37"/>
<path d="M27.4922 11C27.1211 11 26.8203 11.2969 26.8203 11.6641V28.3359C26.8203 28.6992 27.1211 28.9961 27.4922 28.9961C27.8672 28.9961 28.168 28.6992 28.168 28.3359V11.6641C28.168 11.2969 27.8672 11 27.4922 11Z" fill="#EB5E37"/>
<path d="M30.1016 15.0195C29.7305 15.0195 29.4258 15.3164 29.4258 15.6797V24.3164C29.4258 24.6836 29.7305 24.9766 30.1016 24.9766C30.4727 24.9766 30.7734 24.6836 30.7734 24.3164V15.6797C30.7734 15.3164 30.4727 15.0195 30.1016 15.0195Z" fill="#EB5E37"/>
<path d="M32.707 17.1602C32.3359 17.1602 32.0352 17.457 32.0352 17.8203V22.1758C32.0352 22.543 32.3359 22.8398 32.707 22.8398C33.0781 22.8398 33.3828 22.543 33.3828 22.1758V17.8203C33.3828 17.457 33.0781 17.1602 32.707 17.1602Z" fill="#EB5E37"/>
</svg>
