<svg
  xmlns="http://www.w3.org/2000/svg"
  xmlns:xlink="http://www.w3.org/1999/xlink"
  width="375"
  viewBox="0 0 375 375"
  height="375"
  version="1.0"
>
  <defs>
    <clipPath id="d">
      <path
        d="M 1.019531 1 L 257.976562 1 L 257.976562 234.390625 L 1.019531 234.390625 Z M 1.019531 1"
      />
    </clipPath>
    <clipPath id="c"><path d="M0 0H259V235H0z" /></clipPath>
    <filter
      x="0%"
      y="0%"
      width="100%"
      xmlns:xlink="http://www.w3.org/1999/xlink"
      xlink:type="simple"
      xlink:actuate="onLoad"
      height="100%"
      id="a"
      xlink:show="other"
    >
      <feColorMatrix
        values="0 0 0 0 1 0 0 0 0 1 0 0 0 0 1 0 0 0 1 0"
        color-interpolation-filters="sRGB"
      />
    </filter>
    <mask id="b">
      <g filter="url(#a)">
        <path fill-opacity=".647" d="M-37.5 -37.5H412.5V412.5H-37.5z" />
      </g>
    </mask>
  </defs>
  <path fill="none" d="M-37.5 -37.5H412.5V412.5H-37.5z" />
  <path fill="none" d="M-37.5 -37.5H412.5V412.5H-37.5z" />
  <g mask="url(#b)">
    <g>
      <g clip-path="url(#c)" transform="translate(58 75)">
        <path
          d="M 92.019531 27.921875 C 88.921875 27.921875 86.402344 25.402344 86.402344 22.304688 C 86.402344 19.210938 88.925781 16.691406 92.019531 16.691406 C 95.117188 16.691406 97.636719 19.210938 97.636719 22.304688 C 97.636719 25.402344 95.117188 27.921875 92.019531 27.921875 Z M 92.019531 27.921875"
        />
        <path
          d="M 154.140625 84.257812 C 153.324219 84.257812 152.519531 83.910156 151.957031 83.238281 C 146.628906 76.871094 140.824219 71.632812 134.210938 67.234375 C 124.152344 60.542969 112.628906 56.105469 99.953125 54.046875 C 98.402344 53.796875 97.351562 52.335938 97.601562 50.785156 C 97.855469 49.234375 99.300781 48.167969 100.867188 48.433594 C 114.347656 50.625 126.625 55.359375 137.363281 62.5 C 144.4375 67.207031 150.636719 72.796875 156.320312 79.589844 C 157.328125 80.792969 157.167969 82.585938 155.960938 83.59375 C 155.429688 84.039062 154.78125 84.257812 154.140625 84.257812 Z M 154.140625 84.257812"
        />
        <path
          d="M 160.003906 91.957031 C 159.097656 91.957031 158.214844 91.527344 157.660156 90.730469 L 156.917969 89.675781 C 156.007812 88.398438 156.308594 86.621094 157.589844 85.710938 C 158.871094 84.796875 160.644531 85.101562 161.554688 86.378906 L 162.339844 87.492188 C 163.234375 88.785156 162.914062 90.554688 161.621094 91.449219 C 161.125 91.792969 160.558594 91.957031 160.003906 91.957031 Z M 160.003906 91.957031"
        />
        <g clip-path="url(#d)">
          <path
            d="M 5.230469 148.722656 L 54.503906 137.160156 C 56.765625 136.628906 59.1875 136.847656 61.316406 137.777344 L 85.078125 148.144531 C 85.464844 147.925781 85.890625 147.765625 86.367188 147.75 C 88.296875 147.6875 90.242188 147.613281 92.214844 147.527344 C 93.796875 147.453125 95.351562 147.371094 96.902344 147.285156 C 97.074219 147.242188 97.226562 147.160156 97.410156 147.152344 L 128.992188 145.234375 L 129.742188 142.886719 C 119.511719 138.816406 108.292969 133.550781 99.601562 124.101562 C 94.425781 118.488281 77.421875 98.378906 75.78125 75.316406 C 74.710938 60.597656 76.683594 52.191406 76.761719 51.855469 C 77.367188 49.277344 78.039062 47.175781 78.636719 45.324219 C 79.785156 41.734375 80.480469 39.570312 79.90625 36.789062 C 79.03125 32.582031 75.539062 28.757812 69.542969 25.410156 C 66.265625 24.644531 62.957031 23.9375 59.691406 23.328125 C 53.613281 22.199219 47.859375 21.503906 43.527344 21.023438 C 42.238281 20.878906 41.207031 19.882812 41.023438 18.597656 C 40.84375 17.3125 41.554688 16.066406 42.75 15.570312 C 47.96875 13.402344 53.578125 11.796875 59.425781 10.792969 C 62.734375 10.226562 66.113281 9.898438 69.488281 9.761719 C 76.410156 5.722656 83.789062 3.234375 91.421875 2.414062 C 97.773438 1.707031 109.597656 0.390625 120.476562 7.617188 C 133.285156 16.109375 136.113281 31.007812 136.734375 37.089844 C 145.765625 43.964844 158.507812 55.652344 169.859375 73.289062 C 181.0625 90.699219 188.15625 110.371094 190.914062 131.601562 C 193.367188 144.699219 197.257812 152.441406 201.019531 159.929688 C 202.152344 162.183594 203.261719 164.398438 204.304688 166.695312 C 206.34375 171.175781 210.183594 178.148438 212.988281 183.246094 C 213.816406 184.75 214.542969 186.070312 215.089844 187.085938 C 215.691406 188.203125 216.238281 189.257812 216.742188 190.273438 L 217.855469 190.507812 L 219.539062 171.515625 C 219.660156 170.140625 220.75 169.054688 222.125 168.933594 C 223.515625 168.78125 224.761719 169.699219 225.117188 171.03125 L 232.457031 198.375 L 256.648438 222.058594 C 257.46875 222.863281 257.6875 224.039062 257.320312 225.054688 C 257.175781 226.664062 256.566406 229.371094 254.210938 231.625 C 251.773438 233.960938 248.851562 234.425781 246.90625 234.425781 C 245.800781 234.425781 245.015625 234.273438 244.8125 234.234375 C 244.730469 234.214844 244.671875 234.160156 244.59375 234.136719 C 244.40625 234.078125 244.234375 234.003906 244.0625 233.90625 C 243.882812 233.808594 243.722656 233.703125 243.574219 233.574219 C 243.507812 233.515625 243.425781 233.492188 243.363281 233.429688 L 218.882812 208.042969 L 214.054688 207.035156 C 211.957031 208.101562 209.8125 208.539062 208.644531 208.679688 C 205.75 209.078125 202.6875 208.578125 199.769531 207.253906 C 199.738281 207.238281 197.976562 206.410156 196.277344 205.273438 C 193.117188 208.289062 188.601562 210.199219 184.40625 210.199219 C 184.015625 210.199219 183.632812 210.183594 183.253906 210.148438 C 178.992188 209.777344 175.652344 207.410156 173.84375 203.480469 C 173.359375 202.425781 172.902344 200.675781 172.40625 198.359375 L 159.542969 195.683594 C 159.308594 197.0625 158.125 198.054688 156.753906 198.054688 C 156.621094 198.054688 156.492188 198.046875 156.355469 198.027344 C 154.800781 197.808594 153.714844 196.371094 153.933594 194.816406 L 153.972656 194.523438 L 150.78125 193.859375 C 150.65625 193.832031 150.535156 193.785156 150.414062 193.742188 L 149.886719 194.902344 C 149.410156 195.953125 148.375 196.574219 147.292969 196.574219 C 146.902344 196.574219 146.5 196.496094 146.121094 196.320312 C 144.691406 195.671875 144.054688 193.988281 144.703125 192.558594 L 145.171875 191.519531 L 142.039062 190.179688 L 141.777344 190.589844 C 141.234375 191.433594 140.316406 191.894531 139.382812 191.894531 C 138.855469 191.894531 138.320312 191.746094 137.847656 191.441406 C 136.660156 190.679688 136.285156 189.199219 136.824219 187.945312 L 97.703125 171.210938 C 96.355469 171.632812 95.007812 171.78125 93.753906 171.78125 C 93.1875 171.78125 92.636719 171.753906 92.121094 171.710938 C 90.554688 171.589844 89.382812 170.222656 89.507812 168.65625 C 89.53125 168.351562 89.636719 168.074219 89.75 167.804688 L 56.144531 153.429688 C 55.328125 153.078125 54.417969 152.957031 53.542969 153.046875 L 6.882812 158.296875 C 4.289062 158.613281 1.980469 156.863281 1.542969 154.277344 C 1.101562 151.695312 2.695312 149.308594 5.230469 148.722656 Z M 102.621094 152.53125 C 103.75 153.898438 104.554688 155.34375 105.019531 156.847656 L 146.441406 174.917969 L 150.941406 169.332031 L 156.410156 156.28125 L 154.78125 152.46875 C 147.832031 149.964844 147.414062 149.800781 139.113281 146.519531 C 137.839844 146.019531 136.472656 145.496094 135.054688 144.953125 L 133.820312 148.820312 C 133.460938 149.9375 132.453125 150.71875 131.28125 150.792969 Z M 159.542969 163.527344 L 156.347656 171.152344 L 157.449219 178 L 166.699219 179.917969 C 166.328125 179.109375 165.949219 178.300781 165.59375 177.484375 L 163.414062 172.464844 C 162.121094 169.492188 160.832031 166.507812 159.542969 163.527344 Z M 56.929688 17.074219 C 58.175781 17.277344 59.445312 17.5 60.730469 17.738281 C 63.519531 18.257812 66.335938 18.882812 69.144531 19.515625 C 69.625 18.097656 69.496094 16.792969 68.8125 15.5 C 65.984375 15.652344 63.160156 15.925781 60.390625 16.398438 C 59.226562 16.601562 58.070312 16.824219 56.929688 17.074219 Z M 165.074219 76.363281 C 153.746094 58.769531 141.003906 47.355469 132.308594 40.878906 C 131.644531 40.382812 131.230469 39.621094 131.171875 38.792969 C 130.882812 34.550781 129.023438 20.109375 117.328125 12.359375 C 108.167969 6.273438 98.078125 7.398438 92.042969 8.070312 C 85.886719 8.730469 79.933594 10.660156 74.261719 13.667969 C 75.359375 16.222656 75.40625 18.964844 74.398438 21.691406 C 80.628906 25.636719 84.367188 30.3125 85.476562 35.636719 C 86.355469 39.886719 85.289062 43.210938 84.054688 47.058594 C 83.492188 48.8125 82.855469 50.796875 82.300781 53.164062 C 82.28125 53.242188 80.457031 61.160156 81.460938 74.910156 C 82.96875 96.136719 98.929688 114.976562 103.789062 120.25 C 112.363281 129.574219 124.035156 134.597656 134.289062 138.570312 L 136.546875 139.433594 C 138.179688 140.058594 139.742188 140.652344 141.203125 141.226562 C 149.867188 144.652344 149.867188 144.652344 157.875 147.535156 C 158.15625 147.636719 158.390625 147.816406 158.625 147.996094 C 158.628906 148 158.632812 148 158.636719 148 C 158.703125 148.046875 158.773438 148.085938 158.839844 148.128906 C 158.847656 148.136719 158.859375 148.136719 158.863281 148.144531 C 164.957031 152.195312 171.332031 155.953125 177.820312 159.300781 C 183.003906 161.96875 188.347656 164.417969 193.769531 166.632812 C 189.824219 156.742188 185.722656 146.773438 181.449219 136.867188 C 173.84375 119.246094 170.308594 111.167969 166.09375 104.09375 C 164.789062 101.902344 163.425781 99.621094 161.96875 97.285156 C 161.140625 95.953125 161.546875 94.199219 162.878906 93.367188 C 164.207031 92.539062 165.964844 92.941406 166.796875 94.273438 C 168.273438 96.640625 169.65625 98.957031 171.117188 101.410156 C 175.203125 108.273438 178.882812 116.589844 185.035156 130.828125 C 182.214844 110.933594 175.523438 92.609375 165.074219 76.363281 Z M 220.902344 202.652344 C 221.460938 202.769531 221.972656 203.054688 222.371094 203.464844 L 246.746094 228.742188 C 247.625 228.777344 249.101562 228.640625 250.273438 227.519531 C 251.117188 226.710938 251.4375 225.761719 251.570312 225.050781 L 227.917969 201.894531 C 227.863281 201.84375 227.84375 201.773438 227.796875 201.71875 C 227.648438 201.546875 227.519531 201.363281 227.414062 201.15625 C 227.351562 201.035156 227.292969 200.917969 227.25 200.792969 C 227.222656 200.726562 227.179688 200.671875 227.160156 200.601562 L 223.785156 188.023438 L 223.238281 194.199219 C 223.234375 194.257812 223.199219 194.304688 223.191406 194.363281 C 223.183594 194.417969 223.203125 194.472656 223.191406 194.53125 C 223.15625 194.703125 223.066406 194.839844 223.003906 194.996094 C 222.953125 195.117188 222.925781 195.246094 222.859375 195.355469 C 222.730469 195.578125 222.566406 195.765625 222.386719 195.941406 C 222.320312 196.007812 222.277344 196.089844 222.203125 196.148438 C 221.941406 196.359375 221.644531 196.523438 221.320312 196.636719 C 221.226562 196.667969 221.121094 196.664062 221.023438 196.6875 C 220.820312 196.730469 220.621094 196.792969 220.40625 196.792969 C 220.347656 196.792969 220.285156 196.777344 220.222656 196.773438 C 220.199219 196.773438 220.179688 196.785156 220.152344 196.78125 C 220.125 196.777344 220.105469 196.761719 220.078125 196.757812 C 219.992188 196.75 219.90625 196.75 219.824219 196.734375 L 219.167969 196.59375 C 219.546875 198.449219 219.519531 200.347656 218.761719 202.207031 Z M 198.75 201.820312 C 198.679688 202.195312 198.527344 202.5625 198.300781 202.898438 C 198.539062 202.550781 198.683594 202.183594 198.75 201.820312 Z M 183.746094 204.480469 C 187.226562 204.773438 191.546875 202.679688 193.609375 199.699219 C 193.644531 199.644531 193.683594 199.59375 193.722656 199.542969 C 194.675781 198.34375 196.410156 198.117188 197.644531 199.03125 C 197.886719 199.207031 198.089844 199.421875 198.257812 199.652344 C 199.128906 200.300781 201.609375 201.804688 202.128906 202.078125 C 204.0625 202.960938 206.054688 203.292969 207.917969 203.042969 C 208.503906 202.972656 210.542969 202.660156 212.109375 201.644531 C 212.699219 201.269531 213.15625 200.789062 213.441406 200.265625 C 214.085938 199.019531 213.722656 197.144531 212.21875 193.96875 C 211.613281 192.65625 210.871094 191.257812 210.078125 189.78125 C 209.539062 188.785156 208.820312 187.480469 208 185.988281 C 205.972656 182.300781 203.414062 177.648438 201.335938 173.582031 C 200.796875 174.238281 199.992188 174.625 199.144531 174.625 C 198.816406 174.625 198.484375 174.570312 198.160156 174.449219 C 190.339844 171.570312 182.617188 168.171875 175.214844 164.355469 C 171.125 162.25 167.113281 159.941406 163.152344 157.546875 C 164.976562 161.769531 166.804688 165.984375 168.636719 170.203125 L 170.816406 175.222656 C 171.308594 176.363281 171.832031 177.492188 172.359375 178.621094 C 173.691406 181.5 175.070312 184.480469 176.015625 187.679688 C 176.28125 188.59375 176.617188 190.320312 177.035156 192.503906 C 177.566406 195.273438 178.460938 199.910156 179.011719 201.105469 C 179.96875 203.183594 181.515625 204.289062 183.746094 204.480469 Z M 148.230469 184.765625 C 148.882812 183.335938 150.570312 182.703125 151.996094 183.347656 C 153.425781 183.996094 154.0625 185.679688 153.414062 187.113281 L 152.800781 188.46875 L 154.929688 188.914062 C 155.453125 187.816406 156.609375 187.113281 157.855469 187.300781 C 159.242188 187.492188 160.199219 188.667969 160.25 190.019531 L 171.203125 192.296875 C 170.941406 190.96875 170.703125 189.777344 170.554688 189.28125 C 170.257812 188.269531 169.863281 187.289062 169.472656 186.300781 L 148.453125 181.945312 C 148.253906 181.902344 148.066406 181.839844 147.878906 181.761719 L 105.066406 163.078125 C 104.867188 163.753906 104.640625 164.433594 104.308594 165.113281 C 103.90625 165.941406 103.460938 166.644531 103 167.285156 L 139.902344 183.070312 C 140.796875 181.914062 142.414062 181.578125 143.671875 182.386719 C 144.652344 183.015625 145.109375 184.144531 144.933594 185.226562 L 147.519531 186.332031 Z M 52.910156 147.394531 C 54.777344 147.183594 56.664062 147.464844 58.382812 148.199219 L 97.503906 164.933594 C 98.125 164.402344 98.683594 163.671875 99.191406 162.628906 C 99.5 161.996094 99.660156 161.375 99.753906 160.757812 L 59.039062 142.992188 C 58.027344 142.550781 56.878906 142.449219 55.804688 142.699219 L 20.007812 151.097656 Z M 52.910156 147.394531"
          />
        </g>
        <path
          d="M 102.652344 64.53125 C 101.121094 64.1875 100.15625 62.664062 100.5 61.132812 C 100.847656 59.597656 102.378906 58.636719 103.902344 58.980469 C 108.578125 60.03125 113.144531 61.574219 117.476562 63.5625 C 119.765625 64.617188 122.015625 65.804688 124.164062 67.105469 C 125.507812 67.914062 125.941406 69.664062 125.128906 71.007812 C 124.59375 71.890625 123.65625 72.382812 122.691406 72.382812 C 122.191406 72.382812 121.683594 72.25 121.222656 71.972656 C 119.257812 70.785156 117.195312 69.695312 115.097656 68.730469 C 111.128906 66.90625 106.941406 65.496094 102.652344 64.53125 Z M 102.652344 64.53125"
        />
        <path
          d="M 131.246094 72.007812 C 133.617188 73.875 135.902344 75.933594 138.042969 78.125 C 139.140625 79.25 139.117188 81.050781 137.992188 82.144531 C 137.441406 82.683594 136.722656 82.953125 136.007812 82.953125 C 135.269531 82.953125 134.527344 82.667969 133.96875 82.097656 C 132.003906 80.082031 129.902344 78.1875 127.726562 76.472656 C 126.492188 75.5 126.28125 73.710938 127.253906 72.480469 C 128.226562 71.242188 130.015625 71.039062 131.246094 72.007812 Z M 131.246094 72.007812"
        />
        <path
          d="M 92.148438 92.148438 C 93.546875 91.429688 95.261719 91.980469 95.980469 93.375 C 96.65625 94.683594 97.410156 96.054688 98.246094 97.464844 C 99.046875 98.816406 98.597656 100.5625 97.246094 101.363281 C 96.792969 101.628906 96.292969 101.757812 95.800781 101.757812 C 94.828125 101.757812 93.882812 101.257812 93.347656 100.363281 C 92.453125 98.851562 91.648438 97.382812 90.925781 95.976562 C 90.203125 94.582031 90.753906 92.867188 92.148438 92.148438 Z M 92.148438 92.148438"
        />
        <path
          d="M 102.785156 104.289062 C 106.207031 108.902344 110.15625 113.152344 114.519531 116.933594 C 115.707031 117.964844 115.832031 119.757812 114.804688 120.945312 C 114.242188 121.59375 113.449219 121.925781 112.652344 121.925781 C 111.996094 121.925781 111.332031 121.699219 110.792969 121.234375 C 106.117188 117.183594 101.886719 112.621094 98.214844 107.679688 C 97.28125 106.417969 97.542969 104.636719 98.804688 103.699219 C 100.066406 102.765625 101.847656 103.03125 102.785156 104.289062 Z M 102.785156 104.289062"
        />
        <path
          d="M 169.800781 128.140625 C 171.179688 127.378906 172.90625 127.882812 173.664062 129.261719 L 173.820312 129.539062 C 174.949219 131.585938 176.113281 133.707031 177.171875 135.929688 C 177.703125 137.035156 178.214844 138.148438 178.722656 139.261719 C 179.371094 140.691406 178.742188 142.375 177.308594 143.027344 C 176.929688 143.199219 176.527344 143.285156 176.132812 143.285156 C 175.054688 143.285156 174.019531 142.664062 173.542969 141.617188 C 173.050781 140.535156 172.550781 139.453125 172.035156 138.378906 C 171.050781 136.300781 169.921875 134.257812 168.832031 132.28125 L 168.679688 132 C 167.921875 130.625 168.425781 128.894531 169.800781 128.140625 Z M 169.800781 128.140625"
        />
        <path
          d="M 178.320312 145.382812 C 179.769531 144.765625 181.441406 145.429688 182.058594 146.875 L 184.191406 151.839844 C 184.816406 153.277344 184.15625 154.953125 182.714844 155.578125 C 182.347656 155.738281 181.960938 155.816406 181.582031 155.816406 C 180.484375 155.816406 179.4375 155.175781 178.972656 154.101562 L 176.828125 149.117188 C 176.210938 147.675781 176.878906 146.003906 178.320312 145.382812 Z M 178.320312 145.382812"
        />
        <path
          d="M 177.292969 175.960938 C 178.703125 175.261719 180.410156 175.835938 181.109375 177.242188 C 181.542969 178.113281 181.941406 178.960938 182.324219 179.855469 C 182.949219 181.296875 182.285156 182.96875 180.84375 183.59375 C 180.476562 183.75 180.089844 183.828125 179.714844 183.828125 C 178.613281 183.828125 177.566406 183.183594 177.101562 182.109375 C 176.757812 181.3125 176.398438 180.554688 176.011719 179.773438 C 175.3125 178.371094 175.886719 176.660156 177.292969 175.960938 Z M 177.292969 175.960938"
        />
        <path
          d="M 181.285156 185.046875 C 182.773438 184.546875 184.386719 185.355469 184.882812 186.839844 C 185.683594 189.234375 186.433594 191.578125 186.820312 193.992188 C 187.070312 195.542969 186.011719 197 184.460938 197.25 C 184.308594 197.273438 184.15625 197.285156 184.007812 197.285156 C 182.636719 197.285156 181.425781 196.289062 181.203125 194.890625 C 180.882812 192.90625 180.210938 190.804688 179.488281 188.644531 C 178.992188 187.152344 179.796875 185.542969 181.285156 185.046875 Z M 181.285156 185.046875"
        />
        <path
          d="M 220.28125 10.375 C 236.328125 10.375 249.382812 23.421875 249.382812 39.464844 C 249.382812 55.503906 236.328125 68.554688 220.28125 68.554688 C 204.234375 68.554688 191.179688 55.503906 191.179688 39.464844 C 191.179688 23.421875 204.234375 10.375 220.28125 10.375 Z M 220.28125 62.867188 C 233.191406 62.867188 243.695312 52.367188 243.695312 39.464844 C 243.695312 26.558594 233.191406 16.0625 220.28125 16.0625 C 207.375 16.0625 196.871094 26.558594 196.871094 39.464844 C 196.871094 52.367188 207.375 62.867188 220.28125 62.867188 Z M 220.28125 62.867188"
        />
      </g>
    </g>
  </g>
</svg>
