<svg
  width="375"
  height="375"
  viewBox="0 0 375 375"
  fill="none"
  xmlns="http://www.w3.org/2000/svg"
>
  <path
    d="M187.5 62.3672C118.195 62.3672 62.3672 118.195 62.3672 187.5C62.3672 256.805 118.195 312.633 187.5 312.633C256.16 312.633 312.633 256.805 312.633 187.5C312.633 118.195 256.16 62.3672 187.5 62.3672ZM187.5 293.379C129.105 293.379 81.6211 245.895 81.6211 187.5C81.6211 129.105 129.105 81.6211 187.5 81.6211C245.895 81.6211 293.379 129.105 293.379 187.5C293.379 245.895 245.895 293.379 187.5 293.379Z"
    fill="#EB5E37"
  />
  <path
    d="M187.5 81.6211C129.105 81.6211 81.6211 129.105 81.6211 187.5C81.6211 245.895 129.105 293.379 187.5 293.379C245.895 293.379 293.379 245.895 293.379 187.5C293.379 129.105 245.895 81.6211 187.5 81.6211Z"
    fill="black"
  />
</svg>
