<svg width="57" height="57" viewBox="0 0 57 57" fill="none" xmlns="http://www.w3.org/2000/svg">
<path d="M28.125 0C12.5938 0 0 12.5898 0 28.125C0 43.6562 12.5938 56.25 28.125 56.25C43.6602 56.25 56.25 43.6562 56.25 28.125C56.25 12.5898 43.6602 0 28.125 0Z" fill="white"/>
<path d="M47.0469 19.2227C47.4141 19.2227 47.7109 19.5156 47.7109 19.8828V21.2227C47.7109 21.5898 47.4141 21.8867 47.0469 21.8867C46.6836 21.8867 46.3867 21.5898 46.3867 21.2227V19.8828C46.3867 19.5156 46.6836 19.2227 47.0469 19.2227Z" fill="black"/>
<path d="M44.4883 14.7812C44.8555 14.7812 45.1484 15.0781 45.1484 15.4453V25.6641C45.1484 26.0273 44.8555 26.3242 44.4883 26.3242C44.125 26.3242 43.8281 26.0273 43.8281 25.6641V15.4453C43.8281 15.0781 44.125 14.7812 44.4883 14.7812Z" fill="black"/>
<path d="M41.9297 17.0508C42.2969 17.0508 42.5898 17.3477 42.5898 17.7148V23.3906C42.5898 23.7578 42.2969 24.0547 41.9297 24.0547C41.5625 24.0547 41.2695 23.7578 41.2695 23.3906V17.7148C41.2695 17.3477 41.5625 17.0508 41.9297 17.0508Z" fill="black"/>
<path d="M39.3711 12.7461C39.7344 12.7461 40.0312 13.043 40.0312 13.4062V27.6992C40.0312 28.0664 39.7344 28.3633 39.3711 28.3633C39.0039 28.3633 38.707 28.0664 38.707 27.6992V13.4062C38.707 13.043 39.0039 12.7461 39.3711 12.7461Z" fill="black"/>
<path d="M36.8125 18.7891C37.1758 18.7891 37.4727 19.082 37.4727 19.4492V21.6562C37.4727 22.0234 37.1758 22.3203 36.8125 22.3203C36.4453 22.3203 36.1484 22.0234 36.1484 21.6562V19.4492C36.1484 19.082 36.4453 18.7891 36.8125 18.7891Z" fill="black"/>
<path d="M34.2539 14.9023C34.6172 14.9023 34.9141 15.1992 34.9141 15.5664V25.5391C34.9141 25.9063 34.6172 26.2031 34.2539 26.2031C33.8867 26.2031 33.5898 25.9063 33.5898 25.5391V15.5664C33.5898 15.1992 33.8867 14.9023 34.2539 14.9023Z" fill="black"/>
<path d="M31.6407 12.7461C31.6446 12.7461 31.6446 12.7461 31.6446 12.7461C32.0079 12.7461 32.3047 13.0391 32.3086 13.4023L32.4024 27.6953C32.4063 28.0625 32.1094 28.3594 31.7461 28.3633C31.7422 28.3633 31.7422 28.3633 31.7422 28.3633C31.3789 28.3633 31.0821 28.0664 31.0782 27.7031L30.9844 13.4102C30.9805 13.0469 31.2774 12.7461 31.6407 12.7461Z" fill="black"/>
<path d="M29.1367 11.5547C29.5 11.5547 29.7969 11.8516 29.7969 12.2188V28.8906C29.7969 29.2539 29.5 29.5508 29.1367 29.5508C28.7695 29.5508 28.4727 29.2539 28.4727 28.8906V12.2188C28.4727 11.8516 28.7695 11.5547 29.1367 11.5547Z" fill="black"/>
<path d="M26.5742 15.5742C26.9414 15.5742 27.2383 15.8711 27.2383 16.2344V24.8711C27.2383 25.2383 26.9414 25.5312 26.5742 25.5312C26.2109 25.5312 25.9141 25.2383 25.9141 24.8711V16.2344C25.9141 15.8711 26.2109 15.5742 26.5742 15.5742Z" fill="black"/>
<path d="M24.0156 17.7148C24.3828 17.7148 24.6797 18.0117 24.6797 18.375V22.7305C24.6797 23.0977 24.3828 23.3945 24.0156 23.3945C23.6523 23.3945 23.3555 23.0977 23.3555 22.7305V18.375C23.3555 18.0117 23.6523 17.7148 24.0156 17.7148Z" fill="black"/>
<path d="M21.457 13.4883C21.8242 13.4883 22.1211 13.7852 22.1211 14.1523V26.9531C22.1211 27.3203 21.8242 27.6172 21.457 27.6172C21.0938 27.6172 20.7969 27.3203 20.7969 26.9531V14.1523C20.7969 13.7852 21.0938 13.4883 21.457 13.4883Z" fill="black"/>
<path d="M18.8984 15.9297C19.2656 15.9297 19.5625 16.2266 19.5625 16.5938V24.5156C19.5625 24.8789 19.2656 25.1758 18.8984 25.1758C18.5352 25.1758 18.2383 24.8789 18.2383 24.5156V16.5938C18.2383 16.2266 18.5352 15.9297 18.8984 15.9297Z" fill="black"/>
<path d="M16.3398 18.1797C16.707 18.1797 17 18.4766 17 18.8398V22.2656C17 22.6328 16.707 22.9258 16.3398 22.9258C15.9727 22.9258 15.6797 22.6328 15.6797 22.2656V18.8398C15.6797 18.4766 15.9727 18.1797 16.3398 18.1797Z" fill="black"/>
<path d="M13.7812 12.7461C14.1445 12.7461 14.4414 13.043 14.4414 13.4062V27.6992C14.4414 28.0664 14.1445 28.3633 13.7812 28.3633C13.4141 28.3633 13.1172 28.0664 13.1172 27.6992V13.4062C13.1172 13.043 13.4141 12.7461 13.7812 12.7461Z" fill="black"/>
<path d="M11.2227 16.8086C11.5859 16.8086 11.8828 17.1055 11.8828 17.4727V23.6328C11.8828 24 11.5859 24.2969 11.2227 24.2969C10.8555 24.2969 10.5586 24 10.5586 23.6328V17.4727C10.5586 17.1055 10.8555 16.8086 11.2227 16.8086Z" fill="black"/>
<path d="M8.66406 19.4062C9.02734 19.4062 9.32422 19.7031 9.32422 20.0703V21.0352C9.32422 21.4023 9.02734 21.6992 8.66406 21.6992C8.29688 21.6992 8 21.4023 8 21.0352V20.0703C8 19.7031 8.29688 19.4062 8.66406 19.4062Z" fill="black"/>
<path d="M12.3086 33.508L23.5508 33.5432" stroke="black" stroke-width="0.854441" stroke-linecap="round"/>
<path d="M11.9375 31.5859C12.043 31.5859 12.1289 31.6328 12.2031 31.7266C12.2773 31.8203 12.3164 31.9336 12.3164 32.0664L12.3047 34.9453C12.3047 35.0781 12.2656 35.1914 12.1914 35.2852C12.1172 35.3789 12.0273 35.4258 11.9219 35.4258C11.8164 35.4258 11.7305 35.3789 11.6562 35.2852C11.582 35.1914 11.543 35.0781 11.543 34.9453L11.5547 32.0625C11.5547 31.9336 11.5937 31.8203 11.668 31.7266C11.7422 31.6328 11.832 31.5859 11.9375 31.5859Z" fill="black"/>
<path d="M23.9373 31.625C24.0427 31.625 24.1326 31.6719 24.2068 31.7656C24.2771 31.8633 24.3162 31.9766 24.3162 32.1055L24.3045 34.9883C24.3045 35.1211 24.2693 35.2344 24.1912 35.3281C24.117 35.418 24.0271 35.4648 23.9256 35.4648C23.8201 35.4648 23.7302 35.418 23.656 35.3242C23.5818 35.2305 23.5427 35.1172 23.5467 34.9844L23.5545 32.1055C23.5545 31.9727 23.5935 31.8594 23.6677 31.7656C23.742 31.6719 23.8318 31.625 23.9373 31.625Z" fill="black"/>
<path d="M46.25 32.1836C46.25 31.8477 43.3008 31.5312 43.3008 31.5312C43.3008 31.5312 41.9883 29.9023 39.6953 29.9023C37.3984 29.9023 35.9219 32.3438 34.7734 33.1562C33.625 33.9727 23.1328 42.2734 23.1328 42.2734L23.7891 42.7617L11 48.2969L12.8047 50.25C12.8047 50.25 21.4922 45.8555 23.4609 45.2031C25.3398 44.582 27.2422 45.0039 30.9805 45.7539L32.2695 49.2852L30.3047 49.7461L29.6914 50.5781H41.332L40.7422 49.6523L36.8164 48.8945L34.4531 45.8477C37.1055 45.3008 39.1719 43.4023 40.5117 41.9531C42.3164 40 42.1523 34.7891 42.1523 34.7891L43.3008 32.8359C43.3008 32.832 46.25 32.5156 46.25 32.1836ZM35.7344 49.2109L34.8398 49.6875L33.3984 49.1133L31.8398 45.9062C32.4258 45.9961 32.9961 46.0156 33.543 45.9727L35.7344 49.2109Z" fill="#61AF5E"/>
<path d="M23.5942 17.7305C23.9575 17.7305 24.2544 18.0273 24.2544 18.3945V22.7461C24.2544 23.1133 23.9575 23.4102 23.5942 23.4102C23.2271 23.4102 22.9302 23.1133 22.9302 22.7461V18.3945C22.9302 18.0273 23.2271 17.7305 23.5942 17.7305Z" fill="#5FC473"/>
<path d="M21.0356 13.5078C21.3989 13.5078 21.6958 13.8047 21.6958 14.168V26.9727C21.6958 27.3359 21.3989 27.6328 21.0356 27.6328C20.6724 27.6328 20.3755 27.3359 20.3755 26.9727V14.168C20.3755 13.8047 20.6685 13.5078 21.0356 13.5078Z" fill="#5FC473"/>
<path d="M18.4771 15.9492C18.8442 15.9492 19.1411 16.2422 19.1411 16.6094V24.5312C19.1411 24.8984 18.8442 25.1953 18.4771 25.1953C18.1138 25.1953 17.8169 24.8984 17.8169 24.5312V16.6094C17.8169 16.2422 18.1138 15.9492 18.4771 15.9492Z" fill="#5FC473"/>
<path d="M15.9185 18.1953C16.2856 18.1953 16.5825 18.4922 16.5825 18.8594V22.2812C16.5825 22.6484 16.2856 22.9453 15.9185 22.9453C15.5552 22.9453 15.2583 22.6484 15.2583 22.2812V18.8594C15.2583 18.4922 15.5552 18.1953 15.9185 18.1953Z" fill="#5FC473"/>
<path d="M13.3638 12.7617C13.7271 12.7617 14.0239 13.0586 14.0239 13.4258V27.7148C14.0239 28.082 13.7271 28.3789 13.3638 28.3789C12.9966 28.3789 12.6997 28.082 12.6997 27.7148V13.4258C12.6997 13.0586 12.9966 12.7617 13.3638 12.7617Z" fill="#5FC473"/>
</svg>
