<svg width="57" height="57" viewBox="0 0 57 57" fill="none" xmlns="http://www.w3.org/2000/svg">
<path d="M28.5 0C12.7617 0 0 12.7617 0 28.5C0 44.2422 12.7617 57 28.5 57C44.2422 57 57 44.2422 57 28.5C57 12.7617 44.2422 0 28.5 0Z" fill="white"/>
<path d="M40.9922 38.5312C42.7539 38.5312 44.1641 37.1094 44.1641 35.3555L44.1797 17.8906C44.1797 16.1367 42.7539 14.7148 40.9922 14.7148H15.4922C13.7305 14.7148 12.3047 16.1367 12.3047 17.8906V35.3555C12.3047 37.1094 13.7305 38.5312 15.4922 38.5312H9.11719C9.11719 40.2852 10.543 41.707 12.3047 41.707H44.1797C45.9414 41.707 47.3672 40.2852 47.3672 38.5312H40.9922ZM15.4922 17.8906H40.9922V35.3555H15.4922V17.8906ZM28.2422 40.1172C27.3633 40.1172 26.6484 39.4023 26.6484 38.5312C26.6484 37.6562 27.3633 36.9414 28.2422 36.9414C29.1172 36.9414 29.8359 37.6562 29.8359 38.5312C29.8359 39.4023 29.1172 40.1172 28.2422 40.1172Z" fill="black"/>
<path d="M25.9258 24.418H30.8477V29.3398H25.9258V24.418Z" fill="#5FC473"/>
<path d="M21.25 25.6484C21.668 25.6484 21.9883 25.3281 21.9883 24.9102C21.9883 24.5898 21.7891 24.3164 21.4961 24.2188V22.4492H23.5117C23.6133 22.7422 23.8828 22.9414 24.2031 22.9414C24.6211 22.9414 24.9414 22.6211 24.9414 22.2031C24.9414 21.7852 24.6211 21.4648 24.2031 21.4648C23.8828 21.4648 23.6133 21.6602 23.5117 21.957H22.9727V19.9883H26.2188C26.3203 20.2813 26.5898 20.4805 26.9102 20.4805C27.3281 20.4805 27.6484 20.1602 27.6484 19.7422C27.6484 19.3242 27.3281 19.0039 26.9102 19.0039C26.5898 19.0039 26.3203 19.1992 26.2188 19.4961H22.7266C22.5781 19.4961 22.4805 19.5937 22.4805 19.7422V21.957H21.25C21.1016 21.957 21.0039 22.0547 21.0039 22.2031V24.2188C20.707 24.3164 20.5117 24.5898 20.5117 24.9102C20.5117 25.3281 20.832 25.6484 21.25 25.6484ZM26.9102 19.4961C27.0586 19.4961 27.1562 19.5937 27.1562 19.7422C27.1562 19.8867 27.0586 19.9883 26.9102 19.9883C26.7617 19.9883 26.6641 19.8867 26.6641 19.7422C26.6641 19.5937 26.7617 19.4961 26.9102 19.4961ZM24.2031 21.957C24.3516 21.957 24.4492 22.0547 24.4492 22.2031C24.4492 22.3477 24.3516 22.4492 24.2031 22.4492C24.0547 22.4492 23.957 22.3477 23.957 22.2031C23.957 22.0547 24.0547 21.957 24.2031 21.957ZM21.25 24.6641C21.3984 24.6641 21.4961 24.7617 21.4961 24.9102C21.4961 25.0547 21.3984 25.1562 21.25 25.1562C21.1016 25.1562 21.0039 25.0547 21.0039 24.9102C21.0039 24.7617 21.1016 24.6641 21.25 24.6641Z" fill="black"/>
<path d="M29.8633 20.4805C30.1836 20.4805 30.4531 20.2813 30.5508 19.9883H33.8008V21.957H33.2578C33.1602 21.6602 32.8906 21.4648 32.5703 21.4648C32.1523 21.4648 31.832 21.7852 31.832 22.2031C31.832 22.6211 32.1523 22.9414 32.5703 22.9414C32.8906 22.9414 33.1602 22.7422 33.2578 22.4492H35.2773V24.2188C34.9805 24.3164 34.7852 24.5898 34.7852 24.9102C34.7852 25.3281 35.1055 25.6484 35.5234 25.6484C35.9414 25.6484 36.2617 25.3281 36.2617 24.9102C36.2617 24.5898 36.0625 24.3164 35.7695 24.2188V22.2031C35.7695 22.0547 35.6719 21.957 35.5234 21.957H34.293V19.7422C34.293 19.5937 34.1953 19.4961 34.0469 19.4961H30.5508C30.4531 19.1992 30.1836 19.0039 29.8633 19.0039C29.4453 19.0039 29.125 19.3242 29.125 19.7422C29.125 20.1602 29.4453 20.4805 29.8633 20.4805ZM35.5234 25.1562C35.375 25.1562 35.2773 25.0547 35.2773 24.9102C35.2773 24.7617 35.375 24.6641 35.5234 24.6641C35.6719 24.6641 35.7695 24.7617 35.7695 24.9102C35.7695 25.0547 35.6719 25.1562 35.5234 25.1562ZM32.5703 22.4492C32.4219 22.4492 32.3242 22.3477 32.3242 22.2031C32.3242 22.0547 32.4219 21.957 32.5703 21.957C32.7187 21.957 32.8164 22.0547 32.8164 22.2031C32.8164 22.3477 32.7187 22.4492 32.5703 22.4492ZM29.8633 19.4961C30.0117 19.4961 30.1094 19.5937 30.1094 19.7422C30.1094 19.8867 30.0117 19.9883 29.8633 19.9883C29.7148 19.9883 29.6172 19.8867 29.6172 19.7422C29.6172 19.5937 29.7148 19.4961 29.8633 19.4961Z" fill="black"/>
<path d="M35.5234 28.1094C35.1055 28.1094 34.7852 28.4297 34.7852 28.8477C34.7852 29.168 34.9805 29.4375 35.2773 29.5352V31.3086H33.2578C33.1602 31.0117 32.8906 30.8164 32.5703 30.8164C32.1523 30.8164 31.832 31.1367 31.832 31.5547C31.832 31.9727 32.1523 32.293 32.5703 32.293C32.8906 32.293 33.1602 32.0938 33.2578 31.8008H33.8008V33.7695H30.5508C30.4531 33.4727 30.1836 33.2773 29.8633 33.2773C29.4453 33.2773 29.125 33.5977 29.125 34.0156C29.125 34.4336 29.4453 34.7539 29.8633 34.7539C30.1836 34.7539 30.4531 34.5547 30.5508 34.2617H34.0469C34.1953 34.2617 34.293 34.1602 34.293 34.0156V31.8008H35.5234C35.6719 31.8008 35.7695 31.6992 35.7695 31.5547V29.5352C36.0625 29.4375 36.2617 29.168 36.2617 28.8477C36.2617 28.4297 35.9414 28.1094 35.5234 28.1094ZM29.8633 34.2617C29.7148 34.2617 29.6172 34.1602 29.6172 34.0156C29.6172 33.8672 29.7148 33.7695 29.8633 33.7695C30.0117 33.7695 30.1094 33.8672 30.1094 34.0156C30.1094 34.1602 30.0117 34.2617 29.8633 34.2617ZM32.5703 31.8008C32.4219 31.8008 32.3242 31.6992 32.3242 31.5547C32.3242 31.4062 32.4219 31.3086 32.5703 31.3086C32.7187 31.3086 32.8164 31.4062 32.8164 31.5547C32.8164 31.6992 32.7187 31.8008 32.5703 31.8008ZM35.5234 29.0938C35.375 29.0938 35.2773 28.9922 35.2773 28.8477C35.2773 28.6992 35.375 28.6016 35.5234 28.6016C35.6719 28.6016 35.7695 28.6992 35.7695 28.8477C35.7695 28.9922 35.6719 29.0938 35.5234 29.0938Z" fill="black"/>
<path d="M26.9102 33.2773C26.5898 33.2773 26.3203 33.4727 26.2188 33.7695H22.9727V31.8008H23.5117C23.6133 32.0938 23.8828 32.293 24.2031 32.293C24.6211 32.293 24.9414 31.9727 24.9414 31.5547C24.9414 31.1367 24.6211 30.8164 24.2031 30.8164C23.8828 30.8164 23.6133 31.0117 23.5117 31.3086H21.4961V29.5352C21.7891 29.4375 21.9883 29.168 21.9883 28.8477C21.9883 28.4297 21.668 28.1094 21.25 28.1094C20.832 28.1094 20.5117 28.4297 20.5117 28.8477C20.5117 29.168 20.707 29.4375 21.0039 29.5352V31.5547C21.0039 31.6992 21.1016 31.8008 21.25 31.8008H22.4805V34.0156C22.4805 34.1602 22.5781 34.2617 22.7266 34.2617H26.2188C26.3203 34.5547 26.5898 34.7539 26.9102 34.7539C27.3281 34.7539 27.6484 34.4336 27.6484 34.0156C27.6484 33.5977 27.3281 33.2773 26.9102 33.2773ZM21.25 28.6016C21.3984 28.6016 21.4961 28.6992 21.4961 28.8477C21.4961 28.9922 21.3984 29.0938 21.25 29.0938C21.1016 29.0938 21.0039 28.9922 21.0039 28.8477C21.0039 28.6992 21.1016 28.6016 21.25 28.6016ZM24.2031 31.3086C24.3516 31.3086 24.4492 31.4062 24.4492 31.5547C24.4492 31.6992 24.3516 31.8008 24.2031 31.8008C24.0547 31.8008 23.957 31.6992 23.957 31.5547C23.957 31.4062 24.0547 31.3086 24.2031 31.3086ZM26.9102 34.2617C26.7617 34.2617 26.6641 34.1602 26.6641 34.0156C26.6641 33.8672 26.7617 33.7695 26.9102 33.7695C27.0586 33.7695 27.1562 33.8672 27.1562 34.0156C27.1562 34.1602 27.0586 34.2617 26.9102 34.2617Z" fill="black"/>
<path d="M27.1562 23.1875V22.2031H26.6641V23.1875H24.9414C24.793 23.1875 24.6953 23.2852 24.6953 23.4336V25.1562H23.4648V25.6484H25.1875V23.6797H31.5859V25.6484H33.3086V25.1562H32.0781V23.4336C32.0781 23.2852 31.9805 23.1875 31.832 23.1875H30.1094V22.2031H29.6172V23.1875H28.6328V22.2031H28.1406V23.1875H27.1562Z" fill="black"/>
<path d="M29.6172 30.5703V31.5547H30.1094V30.5703H31.832C31.9805 30.5703 32.0781 30.4687 32.0781 30.3242V28.6016H33.3086V28.1094H31.5859V30.0781H25.1875V28.1094H23.4648V28.6016H24.6953V30.3242C24.6953 30.4687 24.793 30.5703 24.9414 30.5703H26.6641V31.5547H27.1562V30.5703H28.1406V31.5547H28.6328V30.5703H29.6172Z" fill="black"/>
<path d="M28.3867 27.8633V26.1406C28.3867 25.9922 28.2891 25.8945 28.1406 25.8945H27.1562C27.0078 25.8945 26.9102 25.9922 26.9102 26.1406V27.8633H27.4023V27.3711H27.8945V27.8633H28.3867ZM27.4023 26.8789V26.3867H27.8945V26.8789H27.4023Z" fill="black"/>
<path d="M29.8633 26.3867V25.8945H28.8789V26.3867H29.125V27.3711H28.8789V27.8633H29.8633V27.3711H29.6172V26.3867H29.8633Z" fill="black"/>
<path d="M31.5859 26.6328H33.3086V27.125H31.5859V26.6328Z" fill="black"/>
<path d="M23.4648 26.6328H25.1875V27.125H23.4648V26.6328Z" fill="black"/>
</svg>
