<svg width="60" height="58" viewBox="0 0 60 58" fill="none" xmlns="http://www.w3.org/2000/svg">
<path d="M31.5 0C15.7578 0 3 12.7617 3 28.5C3 44.2422 15.7578 57 31.5 57C47.2383 57 60 44.2422 60 28.5C60 12.7617 47.2383 0 31.5 0Z" fill="white"/>
<mask id="mask0_512_215" style="mask-type:alpha" maskUnits="userSpaceOnUse" x="0" y="1" width="41" height="57">
<mask id="mask1_512_215" style="mask-type:alpha" maskUnits="userSpaceOnUse" x="0" y="1" width="57" height="57">
<path d="M28.125 1C12.5938 1 0 13.5938 0 29.125C0 44.6602 12.5938 57.25 28.125 57.25C43.6562 57.25 56.25 44.6602 56.25 29.125C56.25 13.5938 43.6562 1 28.125 1Z" fill="white"/>
</mask>
<g mask="url(#mask1_512_215)">
<path d="M29.7303 21.6642C29.0702 23.004 28.2577 24.3048 27.4881 25.59C27.0116 24.8829 26.4491 24.2423 25.9764 23.5353C25.7303 23.1681 25.246 23.7384 25.4217 24.0665C25.8006 24.7579 26.0858 25.4962 26.4569 26.1954C26.5506 26.3751 26.6639 26.5587 26.7577 26.7462C26.0936 27.7189 25.3436 28.586 24.4178 29.3751C23.1874 30.4298 22.0741 31.465 21.1796 32.8243C21.1053 31.8751 20.9764 30.9337 20.785 30.0001C20.6639 29.4337 20.4686 28.8751 20.3475 28.3165C20.0624 27.0235 19.9725 25.6954 19.6483 24.3985C19.4764 23.7032 19.41 23.422 19.6835 22.754C19.8827 22.2501 20.1327 21.7735 20.4374 21.3282C21.16 20.2696 22.3358 20.0118 23.1522 19.047C23.4061 18.7501 23.6327 18.4298 23.8475 18.0978C24.1835 17.59 24.4921 17.0548 24.8124 16.547C25.078 16.1329 24.5702 15.7853 24.2967 16.1993C23.7655 17.004 23.3085 18.0704 22.4296 18.5548C21.496 19.0665 20.2811 19.1837 19.2811 19.6759C18.828 19.8946 17.3319 21.4298 17.0038 21.3946C16.6053 21.3556 15.8124 20.1017 15.4921 19.797C14.6132 18.9728 13.4257 17.7462 13.4335 16.4454C13.4335 15.9454 13.4374 15.4415 13.4491 14.9415C13.4608 14.4962 12.8827 14.7618 12.8241 15.0548C12.6835 15.7345 12.4413 16.4532 12.4335 17.1642C11.8202 16.6642 11.1991 16.1759 10.7499 15.504C10.4217 15.0157 10.1053 14.5157 9.78112 14.0196C9.71081 13.9103 9.60924 13.7853 9.47643 13.8009C8.93737 13.8751 9.5819 14.879 9.67565 15.0665C9.96862 15.6407 10.2382 16.3673 10.6835 16.84C11.16 17.3478 11.5467 17.9298 11.953 18.504C12.871 19.797 13.7889 21.0939 14.6874 22.3946C15.0467 22.9181 15.4999 23.3439 15.7928 23.9259C16.0897 24.5118 16.2733 25.1642 16.2811 25.8243C16.2889 26.9376 15.91 26.6017 15.0897 26.4493C14.4217 26.3282 13.746 26.2618 13.078 26.1485C11.5663 25.8946 10.0428 25.7267 8.53502 25.4689C8.51549 25.4493 8.49987 25.4298 8.48034 25.4103C8.0194 25.0235 7.49987 24.9415 6.97643 24.7267C6.94909 24.7189 6.92174 24.7032 6.8944 24.6915C6.86315 24.5353 6.81237 24.3751 6.76549 24.1993C6.62877 23.6681 6.53502 23.1368 6.4569 22.5978C6.40221 22.1993 5.92956 22.461 5.92956 22.7657C5.93346 23.2267 5.95299 23.6876 5.98034 24.1485C5.83581 24.0587 5.69518 23.9689 5.55456 23.8907C4.5819 23.379 3.60143 22.8907 2.64049 22.3595C2.15221 22.086 1.51549 22.8751 2.03503 23.1759C3.02331 23.7423 3.98815 24.3595 4.96471 24.9493C5.90221 25.5157 6.85924 26.4337 7.88659 26.8087C8.97643 27.211 10.3475 27.3556 11.496 27.5782C12.6639 27.8087 13.8514 27.9923 15.0116 28.2618C16.2108 28.5431 16.0819 29.215 16.2577 30.3282C16.6366 32.7032 16.8514 34.879 16.8514 37.2814C15.7342 36.1798 14.6014 35.086 13.5897 33.8985C13.3202 33.586 12.7655 34.0235 13.0233 34.3556C14.1874 35.84 15.1835 37.4767 16.2342 39.047C16.4296 39.3439 16.6327 39.6642 16.8397 39.9767C18.1171 41.8946 16.4452 45.4806 15.8124 47.3712C14.7069 50.6837 14.3788 53.9845 13.9569 57.4532C13.8475 58.3478 16.0272 58.2189 16.4764 58.1993C17.578 58.1446 20.0116 59.0431 20.7421 57.7267C20.9764 57.297 20.9452 56.7735 20.9061 56.2814C20.7421 54.2501 20.3749 52.1251 20.4061 50.086C20.4335 48.1759 20.8983 46.2618 20.8983 44.3321C20.8983 42.9689 20.746 41.5587 20.785 40.2228C20.828 38.9259 21.4335 37.4689 21.9569 36.3048C23.0272 33.9337 24.6756 31.8243 26.2811 29.8517C27.2108 28.7071 28.0506 27.4962 28.7421 26.1876C29.4803 24.7931 29.8827 23.3165 30.4491 21.8556C30.6756 21.2814 29.9608 21.1954 29.7303 21.6642Z" fill="#444444"/>
<path d="M7.44517 25.2071C6.93736 25.336 6.39439 25.2188 5.97252 24.9219C4.68736 25.2422 3.31236 25.2618 2.00377 25.1446C0.613141 25.0157 -1.18373 24.8477 -1.74233 23.3165C-2.2853 21.836 -1.10952 20.8243 0.21861 20.5938C1.78111 20.3204 3.53892 19.875 5.12877 20.0586C6.45299 20.211 7.67955 20.9805 8.37095 22.1368C9.0272 23.2266 8.88658 24.8438 7.44517 25.2071ZM39.3788 3.60161C37.9725 1.2188 35.5116 -0.347609 32.7967 -0.831984C31.7264 -2.95308 28.7694 -3.19136 26.5819 -2.69136C24.7069 -2.25777 23.0077 -1.19917 21.7616 0.25786C20.7342 -0.00776428 19.9842 -0.871047 18.9452 -1.30855C16.4022 -2.38667 14.6288 -1.60933 12.5311 -0.261672C10.5116 1.03911 8.26158 1.98442 5.92173 2.51958C4.2147 2.9063 2.4022 3.10161 0.941266 4.06255C-1.67592 5.78911 -2.2853 9.7227 -0.75014 12.4649C0.413922 14.5547 2.55845 15.9219 4.8358 16.4883C5.91002 16.7579 6.62486 16.7032 7.42173 17.4883C8.28892 18.3321 8.74205 19.5586 9.3397 20.5899C11.578 24.4336 16.0272 23.7383 19.6991 24.8282C24.2069 26.1641 29.1835 26.0665 33.5975 24.4141C36.2538 23.4219 38.703 21.6993 39.5624 19.0196C40.2069 17.004 39.6249 14.9571 38.2889 13.4063C41.1288 11.0586 41.2147 6.70708 39.3788 3.60161ZM15.6092 32.7227C15.5155 32.5665 15.3827 32.4375 15.2264 32.3243C14.7967 32.0196 14.1874 31.8633 13.7381 31.7891C13.5038 31.75 12.5663 31.8946 12.4256 31.7383C11.8866 31.129 11.1092 30.7657 10.3045 30.711C9.38267 30.3516 8.32799 30.4297 7.47642 31.0821C7.30064 31.2149 7.1483 31.3672 7.01158 31.5274C5.95689 31.3086 4.96861 31.125 3.94127 31.5977C3.12877 31.9649 2.49205 32.6602 2.31627 33.5508C1.91783 35.5547 3.99986 36.8907 5.7733 36.6407C5.8983 36.625 6.03502 36.6016 6.17564 36.5704C6.34361 36.6836 6.51939 36.7891 6.69908 36.875C7.75377 37.3711 8.9647 37.4454 10.0194 37.0469C10.5585 37.0782 11.1131 36.9688 11.621 36.6915C11.8124 36.586 11.992 36.4571 12.1561 36.3165C12.3241 36.3165 12.492 36.3047 12.66 36.2774C12.953 36.3438 13.2655 36.3594 13.5897 36.3086C15.0311 36.0782 16.496 34.1954 15.6092 32.7227Z" fill="#100F0D"/>
</g>
</mask>
<g mask="url(#mask0_512_215)">
<rect x="18" y="10" width="25" height="39" fill="black"/>
</g>
<path d="M30.0664 18.6389L30.0859 18.5803" stroke="#5FC473" stroke-width="2.22126" stroke-linecap="round"/>
<path d="M30.8901 18.147L30.9097 18.0884" stroke="#5FC473" stroke-width="2.22126" stroke-linecap="round"/>
<path d="M32.7935 16.9329L32.813 16.8782" stroke="#5FC473" stroke-width="2.22126" stroke-linecap="round"/>
<path d="M33.6289 16.2603L33.6484 16.2017" stroke="#5FC473" stroke-width="2.22126" stroke-linecap="round"/>
<path d="M35.3711 15.0461L35.3906 14.9875" stroke="#5FC473" stroke-width="2.22126" stroke-linecap="round"/>
<path d="M36.1362 14.4712L36.1558 14.4126" stroke="#5FC473" stroke-width="2.22126" stroke-linecap="round"/>
<path d="M29.1133 18.6042L40.8047 10.4129" stroke="#5FC473" stroke-width="2.23968" stroke-linecap="round"/>
<path d="M29.4137 20.0218L41.1011 11.8265" stroke="#5FC473" stroke-width="2.23968" stroke-linecap="round"/>
<path d="M26.2427 20.1587L27.1958 20.3892" stroke="#5FC473" stroke-width="2.13621" stroke-linecap="round"/>
<path d="M26 18.7798L26.9453 18.9907" stroke="#5FC473" stroke-width="2.14377" stroke-linecap="round"/>
<path d="M28.5586 19.7324L28.5781 19.6738" stroke="#5FC473" stroke-width="2.22126" stroke-linecap="round"/>
<path d="M27.918 19.5881L27.7461 20.0217" stroke="#5FC473" stroke-width="2.10675" stroke-linecap="round"/>
<path d="M26.5354 18.9515L26.1565 19.7328" stroke="#5FC473" stroke-width="2.31417" stroke-linecap="round"/>
<path d="M39.2188 17.6431C39.6836 17.061 40.1289 16.4517 40.4062 15.7563C40.668 15.0806 40.6211 14.311 40.9219 13.6509C41.2305 12.979 41.6953 12.3853 42.1797 11.8345C43 10.9048 43.0898 9.88525 43.0117 9.17041L40.9297 8.11963L36.207 17.4517L38.4375 18.5806C38.7148 18.2837 38.9688 17.9595 39.2188 17.6431Z" fill="#5FC473"/>
<path d="M39.7697 8.64307C39.3009 9.2251 38.8478 9.82666 38.5783 10.5298C38.3126 11.2056 38.3791 11.9829 38.0783 12.6431C37.7697 13.3149 37.3009 13.9048 36.8087 14.4517C35.9767 15.3774 35.9025 16.4009 35.9962 17.1235L37.383 17.8228L42.1056 8.49072L40.5626 7.71338C40.2814 8.00635 40.0236 8.33057 39.7697 8.64307Z" fill="#5FC473"/>
<path d="M38.621 14.7289C38.6249 14.7485 38.7069 15.0453 38.9022 15.143L39.453 15.4203C39.6639 15.5297 39.746 15.7914 39.6444 16.0258C39.6444 16.0297 39.6405 16.0336 39.6405 16.0375C39.6366 16.0453 39.6327 16.0492 39.6327 16.0532L38.6092 18.0727C38.6053 18.0805 38.6053 18.0844 38.6014 18.0883C38.5975 18.0922 38.5936 18.1 38.5936 18.1039C38.4647 18.3188 38.203 18.4125 37.9921 18.3032L37.4413 18.0258C37.2499 17.9282 36.9608 18.0375 36.9413 18.0453C36.9374 18.0258 36.8553 17.7289 36.6639 17.6313L36.1132 17.35C35.9022 17.2446 35.8202 16.9789 35.9178 16.7485C35.9217 16.7446 35.9217 16.7407 35.9257 16.7328C35.9296 16.7289 35.9296 16.725 35.9335 16.7172L36.9569 14.6977C36.9569 14.6938 36.9608 14.6899 36.9647 14.6821C36.9647 14.6782 36.9686 14.6742 36.9725 14.6703C37.0975 14.4516 37.3592 14.3617 37.5702 14.4672L38.1249 14.7485C38.3163 14.8461 38.6014 14.7367 38.621 14.7289Z" fill="#5FC473"/>
<path d="M39.7972 10.4596L37.0628 15.901" stroke="#5FC473" stroke-width="2.20957" stroke-linecap="round"/>
<path d="M40.9297 11.0732L38.2656 16.5342" stroke="#5FC473" stroke-width="2.2126" stroke-linecap="round"/>
<path d="M29.9727 10.5571C30.668 10.8267 31.3828 11.0688 32.1289 11.1235C32.8516 11.1743 33.5742 10.897 34.293 10.9868C35.0234 11.0806 35.7305 11.3462 36.4023 11.647C37.5352 12.147 38.5352 11.9282 39.1914 11.6431L39.5742 9.34229L29.2539 7.62354L28.8438 10.0884C29.2109 10.2681 29.5977 10.4126 29.9727 10.5571Z" fill="#5FC473"/>
<path d="M38.7266 8.39304C38.0312 8.11569 37.3203 7.86569 36.5703 7.81491C35.8477 7.76804 35.125 8.06101 34.4023 7.97116C33.6719 7.88132 32.9687 7.60788 32.2969 7.30319C31.168 6.78757 30.168 7.02194 29.5078 7.32663L29.2539 8.85788L39.5703 10.5727L39.8516 8.8696C39.4883 8.68991 39.1016 8.53757 38.7266 8.39304Z" fill="#5FC473"/>
<path d="M32.5781 9.11951C32.5586 9.12732 32.3008 9.29529 32.2656 9.51014L32.1641 10.1195C32.125 10.35 31.8984 10.5101 31.6484 10.4828C31.6406 10.4828 31.6367 10.4828 31.6328 10.4828C31.625 10.4789 31.6211 10.4789 31.6133 10.4789L29.3828 10.1078C29.375 10.1078 29.3711 10.1039 29.3633 10.1039C29.3594 10.1039 29.3555 10.1 29.3477 10.1C29.1016 10.0453 28.9375 9.82264 28.9766 9.58826L29.0781 8.97889C29.1133 8.76404 28.9219 8.52576 28.9102 8.51014C28.9258 8.49842 29.1875 8.33045 29.2227 8.11951L29.3242 7.50623C29.3633 7.27576 29.5898 7.11951 29.8398 7.14295C29.8477 7.14295 29.8516 7.14685 29.8555 7.14685C29.8633 7.14685 29.8672 7.14685 29.875 7.14685L32.1055 7.51795C32.1133 7.52185 32.1172 7.52185 32.125 7.52185C32.1289 7.52576 32.1328 7.52576 32.1406 7.52576C32.3867 7.58435 32.5508 7.80701 32.5117 8.03748L32.4102 8.65076C32.375 8.8617 32.5664 9.10389 32.5781 9.11951Z" fill="#5FC473"/>
<path d="M41.457 11.2954L39.2422 10.936L39.6016 8.71338L41.457 11.2954Z" fill="#5FC473"/>
<path d="M38.8628 9.31494L30.73 7.93603" stroke="#5FC473" stroke-width="2.25126" stroke-linecap="round"/>
<path d="M41.4297 12.0728L39.2188 11.7095L39.4609 10.229L41.6758 10.5923L41.4297 12.0728Z" fill="#5FC473"/>
<path d="M39.6597 10.6199L30.7065 9.29957" stroke="#5FC473" stroke-width="2.22806" stroke-linecap="round"/>
<path d="M32.7812 14.1782C33.5156 14.0532 34.2539 13.9009 34.9258 13.5649C35.5742 13.2407 36.0547 12.6353 36.7188 12.3462C37.3945 12.0532 38.1367 11.9243 38.8672 11.8384C40.0977 11.6938 40.8477 10.9946 41.2656 10.4126L40.4219 8.24072L30.668 12.022L31.5742 14.3501C31.9805 14.3149 32.3867 14.2446 32.7812 14.1782Z" fill="#5FC473"/>
<path d="M39.2109 7.854C38.4727 7.97119 37.7305 8.11963 37.0625 8.45557C36.4141 8.78369 35.9414 9.40478 35.2773 9.69385C34.6016 9.99072 33.8555 10.1157 33.1211 10.1938C31.8867 10.3228 31.1445 11.0376 30.7344 11.6353L31.2969 13.0845L41.0469 9.30322L40.4219 7.69385C40.0156 7.72119 39.6055 7.7876 39.2109 7.854Z" fill="#5FC473"/>
<path d="M34.289 11.6118C34.2773 11.6314 34.1405 11.9048 34.2187 12.1079L34.4413 12.6822C34.5273 12.9048 34.4101 13.1548 34.1835 13.2603C34.1796 13.2642 34.1718 13.2642 34.1679 13.2681C34.164 13.2681 34.1562 13.272 34.1523 13.272L32.0429 14.0923C32.0351 14.0923 32.0312 14.0962 32.0273 14.0962C32.0194 14.1001 32.0155 14.1001 32.0116 14.104C31.7694 14.1782 31.5155 14.0728 31.4296 13.8501L31.2069 13.2759C31.1288 13.0728 30.8398 12.9634 30.8241 12.9556C30.8319 12.94 30.9687 12.6626 30.8905 12.4634L30.6679 11.8853C30.5819 11.6665 30.6991 11.4126 30.9257 11.3072C30.9335 11.3072 30.9374 11.3032 30.9413 11.3032C30.9491 11.2993 30.953 11.2954 30.9569 11.2954L33.0663 10.4751C33.0741 10.4751 33.078 10.4712 33.0858 10.4712C33.0898 10.4673 33.0937 10.4673 33.1015 10.4673C33.3398 10.3892 33.5937 10.4986 33.6796 10.7173L33.9023 11.2954C33.9843 11.4947 34.2694 11.604 34.289 11.6118Z" fill="#5FC473"/>
<path d="M43.0391 8.95947L40.9492 9.77979L40.1289 7.68604L43.0391 8.95947Z" fill="#5FC473"/>
<path d="M39.7969 8.58105L32.0977 11.5381" stroke="#5FC473" stroke-width="2.25126" stroke-linecap="round"/>
<path d="M43.4102 9.64697L41.3203 10.4595L40.7773 9.06104L42.8672 8.24854L43.4102 9.64697Z" fill="#5FC473"/>
<path d="M41.145 9.29492L32.77 12.7207" stroke="#5FC473" stroke-width="2.22806" stroke-linecap="round"/>
<path d="M46.4414 18.6001C46.2852 17.8696 46.0977 17.1431 45.7305 16.4868C45.3789 15.854 44.75 15.4048 44.4297 14.7524C44.1055 14.0884 43.9414 13.354 43.8203 12.6274C43.6211 11.4048 42.8906 10.6899 42.2891 10.2993L40.1562 11.2446L44.3867 20.811L46.6719 19.7993C46.6172 19.397 46.5273 18.9946 46.4414 18.6001Z" fill="#5FC473"/>
<path d="M39.8242 12.4751C39.9766 13.2056 40.1602 13.9399 40.5273 14.5923C40.8828 15.2212 41.5273 15.6665 41.8477 16.3188C42.1719 16.979 42.332 17.7173 42.4453 18.4478C42.6328 19.6743 43.3789 20.3813 43.9961 20.7642L45.418 20.1392L41.1875 10.5728L39.6094 11.272C39.6562 11.6782 39.7422 12.0806 39.8242 12.4751Z" fill="#5FC473"/>
<path d="M43.8046 17.2172C43.8242 17.225 44.1015 17.35 44.3007 17.264L44.8671 17.014C45.082 16.9164 45.3398 17.0219 45.457 17.2445C45.457 17.2484 45.4609 17.2562 45.4648 17.2601C45.4648 17.264 45.4687 17.268 45.4726 17.2758L46.3867 19.3461C46.3867 19.35 46.3906 19.3539 46.3906 19.3617C46.3945 19.3656 46.3945 19.3695 46.3984 19.3773C46.4843 19.6117 46.3906 19.8734 46.1757 19.9672L45.6093 20.2172C45.4101 20.307 45.3124 20.5961 45.3085 20.6156C45.289 20.6078 45.0078 20.4828 44.8124 20.5687L44.246 20.8187C44.0312 20.9164 43.7734 20.8109 43.6562 20.5883C43.6523 20.5844 43.6523 20.5765 43.6484 20.5726C43.6484 20.5687 43.6445 20.5648 43.6406 20.557L42.7265 18.4867C42.7226 18.4828 42.7226 18.4789 42.7187 18.4711C42.7187 18.4672 42.7148 18.4633 42.7148 18.4555C42.6288 18.2211 42.7226 17.9594 42.9374 17.8656L43.5038 17.6156C43.7031 17.5258 43.8007 17.2367 43.8046 17.2172Z" fill="#5FC473"/>
<path d="M40.75 8.59619L41.668 10.6431L39.6133 11.561L40.75 8.59619Z" fill="#5FC473"/>
<path d="M40.5201 11.8579L43.8366 19.4126" stroke="#5FC473" stroke-width="2.25125" stroke-linecap="round"/>
<path d="M41.418 8.19775L42.3281 10.2485L40.957 10.854L40.0469 8.80713L41.418 8.19775Z" fill="#5FC473"/>
<path d="M41.1719 10.4751L44.9844 18.6781" stroke="#5FC473" stroke-width="2.22806" stroke-linecap="round"/>
<path d="M50.375 16.5298C49.9766 15.897 49.5508 15.2759 48.9805 14.7876C48.4297 14.3149 47.6875 14.1079 47.1641 13.604C46.6328 13.0923 46.2227 12.4595 45.8633 11.8188C45.2539 10.7407 44.3203 10.3188 43.6211 10.1587L41.9453 11.7759L49.1992 19.311L51 17.5767C50.8125 17.2134 50.5898 16.8657 50.375 16.5298Z" fill="#5FC473"/>
<path d="M42.0547 13.0454C42.4492 13.6821 42.8711 14.3071 43.4414 14.7954C43.9922 15.2642 44.75 15.4595 45.2734 15.9634C45.8047 16.4712 46.2109 17.1079 46.5664 17.7563C47.1641 18.8423 48.1094 19.2524 48.8203 19.4009L49.9375 18.3228L42.6797 10.7915L41.4375 11.9907C41.6211 12.354 41.8398 12.7056 42.0547 13.0454Z" fill="#5FC473"/>
<path d="M47.4219 16.1352C47.4414 16.1352 47.7461 16.1548 47.9024 16.0063L48.3477 15.5766C48.5195 15.4126 48.793 15.4243 48.9805 15.5923C48.9844 15.5962 48.9883 15.6001 48.9922 15.604C48.9961 15.6079 49 15.6118 49.0039 15.6157L50.5742 17.2446C50.5781 17.2524 50.582 17.2563 50.586 17.2602C50.5899 17.2641 50.5938 17.268 50.5977 17.2719C50.7617 17.4633 50.7617 17.7407 50.5899 17.9048L50.1445 18.3344C49.9883 18.4829 50 18.7915 50 18.811C49.9805 18.811 49.6719 18.7876 49.5156 18.9399V18.936L49.0703 19.3657C48.9024 19.5298 48.625 19.5219 48.4375 19.3501C48.4336 19.3462 48.4297 19.3423 48.4258 19.3383C48.4219 19.3344 48.418 19.3305 48.4141 19.3266L46.8438 17.6977C46.8399 17.6938 46.836 17.6899 46.832 17.686C46.8281 17.6821 46.8242 17.6782 46.8203 17.6743C46.6602 17.479 46.6602 17.2055 46.8281 17.0415L47.2735 16.6118C47.4297 16.4594 47.4219 16.1548 47.4219 16.1352Z" fill="#5FC473"/>
<path d="M41.5938 9.08447L43.1562 10.6938L41.543 12.2603L41.5938 9.08447Z" fill="#5FC473"/>
<path d="M42.4964 12.2296L48.2034 18.1866" stroke="#5FC473" stroke-width="2.25126" stroke-linecap="round"/>
<path d="M42.082 8.48291L43.6406 10.0962L42.5586 11.1392L41.0039 9.52588L42.082 8.48291Z" fill="#5FC473"/>
<path d="M42.6331 10.7063L49.0316 17.1047" stroke="#5FC473" stroke-width="2.22806" stroke-linecap="round"/>
<path d="M41.1993 8.17037C41.0157 8.07271 40.7891 8.14302 40.6915 8.32271C40.5938 8.5063 40.6641 8.73287 40.8477 8.83052C41.0274 8.92818 41.2579 8.86177 41.3556 8.67818C41.4532 8.49458 41.3829 8.26802 41.1993 8.17037Z" fill="#5FC473"/>
<path d="M42.0938 9.0688C41.9141 8.97115 41.6837 9.04146 41.586 9.22115C41.4884 9.40474 41.5587 9.6313 41.7423 9.72896C41.9259 9.82662 42.1524 9.76021 42.2501 9.57661C42.3477 9.39302 42.2774 9.16646 42.0938 9.0688Z" fill="#5FC473"/>
<path d="M40.8711 9.57284C40.6875 9.47518 40.4609 9.5455 40.3633 9.72909C40.2656 9.90878 40.332 10.1353 40.5156 10.233C40.6992 10.3307 40.9258 10.2642 41.0234 10.0807C41.1211 9.89706 41.0508 9.6705 40.8711 9.57284Z" fill="#5FC473"/>
<path d="M31.0056 38.0117C31.0447 37.8789 31.1736 37.8477 31.3064 37.8906C39.076 40.1875 47.2517 35.918 49.8103 28.2305C49.8494 28.0977 49.9939 28.0235 50.0799 28.0508C50.2127 28.0899 50.2439 28.2227 50.201 28.3516C47.6072 36.2461 39.1697 40.6485 31.1814 38.2813C31.0525 38.2422 30.9783 38.0977 31.0056 38.0117Z" fill="#5FC473"/>
<path d="M32.1973 35.1211C32.2403 34.9922 32.3536 34.9336 32.4551 34.9883C38.4668 36.7813 44.8067 33.4688 46.7715 27.5156C46.7989 27.4258 46.9122 27.3672 47.0293 27.3789C47.1622 27.4219 47.2207 27.5352 47.1661 27.6367C45.1309 33.8125 38.5606 37.2422 32.3028 35.3946C32.2442 35.3516 32.1856 35.2383 32.1973 35.1211Z" fill="#5FC473"/>
<path d="M33.7091 32.0703C33.7481 31.9375 33.8341 31.8946 33.877 31.9063C37.8966 33.0977 42.1114 30.8946 43.4317 26.9219C43.4591 26.8321 43.5606 26.8164 43.6622 26.875C43.795 26.9141 43.838 27 43.838 27.0742C42.4513 31.2657 38.006 33.5899 33.7716 32.3282C33.713 32.2891 33.6661 32.2032 33.7091 32.0703Z" fill="#5FC473"/>
<path d="M34.5723 29.3905C34.6153 29.2616 34.6543 29.203 34.7012 29.2147C37.2481 29.9686 39.9434 28.5585 40.7832 26.0389C40.795 25.996 40.8965 25.9803 40.9981 26.035C41.1309 26.078 41.2051 26.1483 41.1895 26.1913C40.2832 28.9296 37.3575 30.4569 34.5918 29.6366C34.5332 29.5936 34.5176 29.4921 34.5723 29.3905Z" fill="#5FC473"/>
</svg>
