<svg
  xmlns="http://www.w3.org/2000/svg"
  width="375"
  viewBox="0 0 375 375"
  height="375"
  version="1.0"
>
  <defs>
    <clipPath id="a">
      <path
        d="M 68 71.472656 L 301 71.472656 L 301 303.222656 L 68 303.222656 Z M 68 71.472656"
      />
    </clipPath>
    <clipPath id="b">
      <path
        d="M 44.097656 223 L 136 223 L 136 273 L 44.097656 273 Z M 44.097656 223"
      />
    </clipPath>
    <clipPath id="c">
      <path
        d="M 238 156 L 330.597656 156 L 330.597656 207 L 238 207 Z M 238 156"
      />
    </clipPath>
  </defs>
  <path fill="none" d="M-37.5 -37.5H412.5V412.5H-37.5z" />
  <path fill="none" d="M-37.5 -37.5H412.5V412.5H-37.5z" />
  <g clip-path="url(#a)">
    <path
      stroke-linecap="round"
      transform="matrix(.1354 0 0 -.13537 -100.57 475.141)"
      fill="none"
      stroke-linejoin="round"
      d="M 2941.481736 2126.067916 C 2941.481736 1664.334635 2567.25875 1289.921204 2105.47376 1289.921204 C 1643.74647 1289.921204 1269.465783 1664.334635 1269.465783 2126.067916 C 1269.465783 2587.743483 1643.74647 2962.070345 2105.47376 2962.070345 C 2567.25875 2962.070345 2941.481736 2587.743483 2941.481736 2126.067916 Z M 2941.481736 2126.067916"
      stroke="#180D0C"
      stroke-width="40"
      stroke-miterlimit="10"
    />
  </g>
  <path
    fill="#5FC473"
    d="M 229.527344 149.332031 L 229.3125 148.902344 L 228.414062 147.148438 C 228.78125 147.175781 229.152344 147.199219 229.539062 147.234375 C 229.519531 147.566406 229.492188 147.921875 229.464844 148.3125 C 229.445312 148.660156 229.464844 149.003906 229.527344 149.332031 Z M 149.132812 90.890625 C 148.261719 90.890625 147.402344 91.175781 146.699219 91.699219 C 143.292969 94.25 141.570312 95.542969 138.195312 98.078125 C 137.414062 98.578125 136.867188 98.929688 136.238281 99.324219 L 135.058594 100.082031 C 134.492188 100.441406 134.027344 100.9375 133.695312 101.523438 C 132.65625 103.390625 132.007812 104.582031 131.191406 106.136719 C 130.273438 106.375 129.457031 106.601562 128.289062 106.945312 C 127.441406 107.199219 126.703125 107.714844 126.179688 108.425781 C 125.03125 109.96875 124.414062 110.816406 123.367188 112.25 L 123.085938 112.628906 C 122.523438 113.394531 122.269531 114.300781 122.300781 115.195312 C 121.898438 115.472656 121.503906 115.757812 121.097656 116.046875 L 116.457031 119.328125 C 114.898438 120.433594 114.320312 122.476562 115.066406 124.230469 C 115.210938 124.570312 115.347656 124.882812 115.472656 125.175781 C 112.179688 128.023438 109.867188 130 105.921875 133.324219 C 104.335938 134.667969 104.019531 136.996094 105.1875 138.714844 C 105.96875 139.859375 107.238281 140.492188 108.546875 140.492188 C 109.203125 140.492188 109.863281 140.332031 110.472656 140.003906 C 120.21875 134.753906 126.125 131.570312 135.675781 126.609375 C 137.929688 133.769531 140.089844 140.886719 141.238281 145.042969 C 140.257812 145.535156 139.480469 146.414062 139.15625 147.539062 C 139.105469 147.714844 137.921875 151.855469 136.90625 156.222656 C 135.007812 164.347656 134.933594 167.390625 136.726562 169.296875 C 137.925781 171.320312 142.214844 182.011719 145.617188 191.058594 C 146.21875 192.664062 147.753906 193.691406 149.417969 193.691406 C 149.660156 193.691406 149.914062 193.671875 150.164062 193.621094 C 152.101562 193.261719 153.496094 191.566406 153.480469 189.597656 L 153.46875 187.980469 C 155.636719 190.839844 157.933594 193.828125 160.980469 197.757812 C 161.628906 198.597656 162.585938 199.152344 163.644531 199.296875 C 170.171875 200.183594 177.019531 201.828125 178.960938 202.945312 C 179.691406 204.515625 181.957031 207.457031 190.804688 212.636719 C 189.398438 216.597656 188.242188 222.578125 190.363281 229.171875 C 192.605469 236.148438 197.953125 242.007812 206.269531 246.601562 C 206.695312 262.273438 207.019531 270.671875 207.742188 285.472656 C 207.800781 286.625 208.347656 287.699219 209.242188 288.421875 C 212.234375 290.855469 213.714844 292.039062 216.4375 294.171875 C 217.164062 294.734375 218.046875 295.03125 218.941406 295.03125 C 219.40625 295.03125 219.875 294.953125 220.324219 294.789062 C 221.636719 294.3125 222.617188 293.191406 222.914062 291.828125 C 224.53125 284.328125 225.488281 280.230469 227.441406 272.203125 C 228.609375 270.378906 230.066406 268.519531 230.878906 267.804688 C 232.3125 267.648438 234.9375 266.558594 241.953125 259.210938 C 246.050781 254.917969 248.699219 251.585938 249.859375 249.269531 C 250.148438 249.339844 250.394531 249.414062 250.476562 249.445312 C 250.945312 249.625 251.441406 249.714844 251.933594 249.714844 C 252.605469 249.714844 253.269531 249.546875 253.875 249.21875 C 254.914062 248.652344 255.660156 247.660156 255.90625 246.496094 C 256.765625 242.421875 257.195312 240.222656 257.972656 236.199219 C 260.171875 233.085938 261.429688 231.292969 263.78125 227.933594 C 264.542969 226.851562 264.726562 225.464844 264.269531 224.222656 C 263.820312 222.976562 262.789062 222.027344 261.511719 221.683594 C 253.261719 219.464844 248.84375 218.15625 240.460938 215.535156 C 239.269531 214.410156 238.339844 213.519531 237.347656 212.570312 L 234.496094 209.855469 C 234.140625 209.519531 233.722656 209.242188 233.269531 209.058594 L 232.902344 208.898438 C 225.535156 205.804688 221.484375 204.101562 213.761719 200.71875 C 213.246094 200.492188 212.6875 200.378906 212.132812 200.378906 C 211.582031 200.378906 211.035156 200.492188 210.515625 200.714844 C 210.109375 199.910156 209.4375 199.253906 208.59375 198.863281 C 208.050781 198.613281 207.472656 198.492188 206.890625 198.492188 C 206.113281 198.492188 205.335938 198.714844 204.660156 199.160156 L 199.964844 202.246094 L 197.277344 204.011719 C 195.699219 202.855469 194.40625 201.898438 192.753906 200.671875 C 192.769531 200.027344 192.792969 199.40625 192.8125 198.640625 L 192.835938 197.953125 C 192.898438 195.820312 191.296875 194.003906 189.167969 193.792969 C 188.597656 193.734375 188.105469 193.6875 187.652344 193.644531 C 187.625 192.695312 187.609375 191.730469 187.578125 190.457031 C 187.535156 188.28125 185.789062 186.527344 183.617188 186.480469 C 183.585938 186.472656 183.550781 186.472656 183.515625 186.472656 C 181.632812 186.472656 180.023438 187.769531 179.582031 189.546875 C 179.277344 189.628906 178.730469 189.734375 177.804688 189.734375 C 176.90625 189.734375 175.839844 189.636719 174.640625 189.441406 C 174.203125 189.367188 173.441406 189.175781 173.359375 188.925781 C 172.679688 186.707031 176.328125 180.382812 177.992188 178.679688 C 178.679688 178.386719 180.628906 178.207031 181.691406 178.113281 C 183.183594 177.976562 184.546875 177.847656 185.742188 177.464844 C 186.175781 177.765625 186.703125 178.175781 187.175781 178.582031 C 187.832031 180.425781 188.257812 181.613281 189.019531 183.6875 C 189.511719 185.039062 190.6875 186.023438 192.097656 186.28125 C 192.5 186.355469 192.804688 186.414062 193.105469 186.472656 C 193.449219 186.542969 193.785156 186.605469 194.253906 186.691406 C 194.496094 186.734375 194.734375 186.753906 194.976562 186.753906 C 195.921875 186.753906 196.847656 186.425781 197.589844 185.808594 C 198.507812 185.03125 199.042969 183.886719 199.039062 182.675781 C 199.027344 180.101562 199.027344 178.429688 199.03125 176.378906 C 201.03125 175.589844 202.640625 174.957031 205.164062 173.972656 C 206.710938 173.363281 207.738281 171.875 207.742188 170.207031 C 207.742188 170.1875 207.765625 167.617188 208.136719 165.0625 C 208.8125 163.910156 211.917969 161.175781 215.042969 158.964844 C 219.457031 158.074219 222.066406 157.566406 226.433594 156.71875 L 227.390625 156.535156 C 228.640625 156.285156 229.707031 155.472656 230.269531 154.316406 C 230.734375 153.351562 230.796875 152.25 230.460938 151.246094 C 230.941406 151.796875 231.570312 152.21875 232.304688 152.453125 C 234.726562 153.207031 235.929688 153.59375 238.328125 154.367188 C 238.738281 154.496094 239.160156 154.5625 239.578125 154.5625 C 240.605469 154.5625 241.613281 154.171875 242.386719 153.433594 C 243.460938 152.410156 243.894531 150.875 243.503906 149.4375 C 242.863281 147.085938 242.4375 145.550781 241.929688 143.722656 L 241.179688 141.003906 C 241.121094 140.796875 241.046875 140.597656 240.957031 140.394531 C 239.300781 136.761719 238.089844 134.125 236.859375 131.433594 C 235.808594 129.148438 234.742188 126.828125 233.375 123.832031 C 232.78125 122.527344 231.542969 121.640625 230.121094 121.480469 C 229.972656 121.464844 229.824219 121.460938 229.675781 121.460938 C 228.691406 121.460938 227.734375 121.820312 227 122.46875 C 226.941406 120.878906 225.949219 119.445312 224.429688 118.847656 C 222.617188 118.132812 216.433594 115.800781 212.996094 115.800781 C 212.96875 115.800781 212.882812 115.800781 212.863281 115.800781 C 210.652344 115.832031 209.347656 116.796875 208.644531 117.59375 C 207.082031 119.375 207.324219 121.503906 207.457031 122.648438 C 207.46875 122.75 207.484375 122.882812 207.496094 123 C 206.421875 124.972656 206.628906 127.402344 207.234375 129.578125 C 206.527344 129.953125 205.785156 130.34375 204.84375 130.84375 C 204.597656 130.984375 204.363281 131.140625 204.152344 131.320312 C 204.078125 131.261719 204 131.210938 203.925781 131.164062 C 200.710938 129.058594 198.820312 127.828125 196.207031 126.132812 C 196.265625 125.183594 196.320312 124.316406 196.390625 123.304688 C 203.910156 118.441406 208.273438 115.664062 216.464844 110.652344 C 218.230469 109.574219 218.902344 107.339844 218.03125 105.464844 C 217.632812 104.625 217.371094 104.050781 217.074219 103.402344 L 216.511719 102.179688 C 216.019531 101.101562 215.078125 100.292969 213.933594 99.96875 C 213.570312 99.863281 213.195312 99.816406 212.828125 99.816406 C 212.03125 99.816406 211.25 100.042969 210.578125 100.492188 C 210.53125 100.523438 210.476562 100.558594 210.429688 100.589844 C 210.109375 98.75 209.800781 96.972656 209.40625 94.628906 C 209.113281 92.933594 207.78125 91.597656 206.078125 91.308594 C 205.851562 91.273438 205.625 91.25 205.394531 91.25 C 203.9375 91.25 202.570312 92.039062 201.847656 93.34375 C 200.6875 95.433594 198.953125 98.617188 197.832031 100.835938 C 197.769531 100.835938 197.707031 100.835938 197.636719 100.835938 C 194.53125 100.835938 189.59375 100.3125 187.621094 100.089844 C 185.457031 98.78125 184.1875 98.023438 181.960938 96.710938 C 181.921875 96.6875 181.882812 96.664062 181.839844 96.644531 C 178.679688 94.914062 177.164062 94.089844 174.246094 92.609375 C 173.667969 92.320312 173.039062 92.171875 172.402344 92.171875 C 171.96875 92.171875 171.535156 92.246094 171.113281 92.382812 C 167.855469 93.476562 165.753906 94.210938 163.253906 95.140625 C 162.730469 94.121094 161.789062 93.367188 160.667969 93.070312 C 155.828125 91.800781 153.550781 91.355469 149.582031 90.917969 C 149.429688 90.902344 149.28125 90.890625 149.132812 90.890625 Z M 149.132812 94.953125 C 152.917969 95.371094 155.035156 95.789062 159.636719 97 C 160.203125 98.277344 160.488281 98.921875 161.121094 100.292969 C 165.597656 98.578125 167.84375 97.761719 172.402344 96.230469 C 175.269531 97.6875 176.757812 98.496094 179.894531 100.207031 C 182.351562 101.664062 183.636719 102.421875 186.265625 104.019531 C 186.265625 104.019531 193.417969 104.898438 197.636719 104.898438 C 199.304688 104.898438 200.515625 104.761719 200.652344 104.378906 C 201.121094 103.042969 205.402344 95.3125 205.402344 95.3125 C 206.203125 100.035156 206.621094 102.449219 207.558594 107.371094 C 209.675781 105.949219 210.722656 105.273438 212.828125 103.878906 C 213.429688 105.183594 213.730469 105.859375 214.351562 107.1875 C 205.753906 112.4375 201.339844 115.257812 192.476562 121 C 192.273438 123.890625 192.183594 125.332031 192.023438 128.265625 C 195.796875 130.703125 197.742188 131.964844 201.699219 134.558594 C 201.765625 137.675781 201.808594 139.265625 201.898438 142.457031 C 203.972656 141.679688 204.992188 141.304688 207.066406 140.542969 C 206.949219 138.070312 206.875 136.859375 206.765625 134.425781 C 208.996094 133.230469 210.101562 132.660156 212.335938 131.492188 C 212.335938 131.492188 209.875 126.558594 211.171875 124.769531 C 212.449219 123 210.019531 119.90625 212.925781 119.863281 C 212.949219 119.863281 212.96875 119.863281 212.992188 119.863281 C 215.925781 119.863281 222.945312 122.628906 222.945312 122.628906 C 222.625 125.128906 222.46875 126.398438 222.136719 128.941406 C 224.007812 129.101562 224.941406 129.191406 226.816406 129.347656 C 227.96875 127.804688 228.546875 127.027344 229.683594 125.519531 C 232.660156 132.035156 234.199219 135.363281 237.265625 142.082031 C 238.1875 145.425781 238.65625 147.105469 239.582031 150.5 C 237.164062 149.722656 235.953125 149.335938 233.523438 148.574219 C 233.652344 146.519531 233.722656 145.492188 233.867188 143.476562 C 228.714844 143.09375 226.105469 142.902344 220.898438 142.617188 C 220.378906 144.070312 220.109375 144.800781 219.589844 146.269531 C 221.332031 146.71875 222.207031 146.929688 223.964844 147.378906 C 225.015625 149.4375 225.550781 150.472656 226.613281 152.546875 C 221.359375 153.566406 218.6875 154.085938 213.414062 155.148438 C 213.414062 155.148438 204.617188 161.148438 204.15625 164.175781 C 203.699219 167.167969 203.683594 170.1875 203.683594 170.1875 C 200.1875 171.554688 198.445312 172.242188 194.976562 173.613281 C 194.964844 177.226562 194.964844 179.066406 194.976562 182.691406 C 194.113281 182.535156 193.695312 182.449219 192.835938 182.289062 C 191.953125 179.890625 191.523438 178.679688 190.660156 176.261719 C 190.660156 176.261719 187.359375 173.089844 185.699219 173.089844 C 185.46875 173.089844 185.273438 173.148438 185.117188 173.28125 C 183.839844 174.40625 177.484375 173.6875 175.386719 175.554688 C 173.296875 177.398438 163.539062 191.71875 173.972656 193.441406 C 175.476562 193.691406 176.734375 193.796875 177.804688 193.796875 C 182.667969 193.796875 183.445312 191.585938 183.519531 190.535156 C 183.574219 193.285156 183.605469 194.628906 183.691406 197.34375 C 185.707031 197.53125 186.726562 197.628906 188.773438 197.832031 C 188.714844 199.777344 188.683594 200.753906 188.640625 202.679688 C 192.042969 205.199219 193.75 206.464844 197.148438 208.957031 C 200.980469 206.441406 202.9375 205.15625 206.890625 202.554688 C 207.09375 204.167969 207.199219 204.984375 207.382812 206.582031 C 209.265625 205.746094 210.21875 205.3125 212.132812 204.441406 C 220.007812 207.890625 224.023438 209.574219 231.695312 212.796875 C 234.390625 215.359375 235.722656 216.640625 238.34375 219.132812 C 247.5 221.996094 251.949219 223.320312 260.453125 225.609375 C 257.933594 229.203125 256.664062 231.003906 254.148438 234.570312 C 253.285156 239.0625 252.851562 241.292969 251.933594 245.65625 C 251.933594 245.65625 250.472656 245.09375 249.0625 245.09375 C 247.90625 245.09375 246.777344 245.46875 246.488281 246.816406 C 245.859375 249.789062 232.597656 263.777344 230.222656 263.777344 C 230.199219 263.777344 230.183594 263.769531 230.167969 263.769531 C 230.136719 263.769531 230.105469 263.765625 230.074219 263.765625 C 227.816406 263.765625 223.648438 270.609375 223.648438 270.609375 C 221.574219 279.125 220.613281 283.242188 218.941406 290.972656 C 216.164062 288.796875 214.726562 287.644531 211.800781 285.269531 C 211.054688 270.074219 210.738281 261.730469 210.261719 244.117188 C 187.835938 232.964844 193.019531 216.496094 195.988281 210.898438 C 193.882812 209.75 183.40625 203.863281 182.539062 200.925781 C 181.589844 197.628906 164.191406 195.273438 164.191406 195.273438 C 158.003906 187.28125 154.976562 183.285156 149.308594 175.644531 L 149.417969 189.628906 C 149.417969 189.628906 141.242188 167.871094 139.761719 166.589844 C 138.289062 165.3125 143.0625 148.660156 143.0625 148.660156 C 143.0625 148.660156 143.949219 148.914062 144.78125 148.914062 C 145.363281 148.914062 145.910156 148.792969 146.105469 148.375 C 146.582031 147.363281 138.09375 120.78125 138.09375 120.78125 C 125.886719 127.085938 119.902344 130.3125 108.546875 136.429688 C 113.253906 132.453125 115.652344 130.394531 120.488281 126.207031 C 119.699219 124.683594 119.367188 123.964844 118.804688 122.640625 C 123.457031 119.34375 125.8125 117.691406 130.554688 114.320312 C 130.996094 113.558594 131.222656 113.171875 131.675781 112.421875 C 129.527344 113.445312 128.464844 113.976562 126.363281 115.03125 C 127.585938 113.359375 128.203125 112.511719 129.441406 110.84375 C 131.199219 110.324219 132.109375 110.082031 133.949219 109.632812 C 135.226562 107.15625 135.890625 105.933594 137.242188 103.503906 C 138.554688 102.667969 139.214844 102.25 140.511719 101.414062 C 143.964844 98.824219 145.691406 97.527344 149.132812 94.953125"
  />
  <path
    fill="#5FC473"
    d="M 191.121094 80.390625 C 190.476562 80.390625 189.835938 80.542969 189.257812 80.839844 C 186.339844 82.339844 184.863281 83.105469 181.902344 84.667969 C 179.941406 85.703125 179.167969 88.121094 180.171875 90.097656 C 181.054688 91.84375 181.578125 92.816406 182.441406 94.429688 L 182.800781 95.101562 C 183.527344 96.453125 184.921875 97.246094 186.382812 97.246094 C 186.835938 97.246094 187.296875 97.167969 187.742188 97.007812 C 192.492188 95.320312 194.808594 94.554688 199.535156 93.105469 C 200.582031 92.785156 201.457031 92.054688 201.957031 91.074219 C 202.460938 90.101562 202.546875 88.960938 202.191406 87.925781 C 201.675781 86.414062 201.40625 85.578125 200.988281 84.265625 L 200.800781 83.6875 C 200.300781 82.148438 198.941406 81.054688 197.332031 80.898438 C 195.023438 80.667969 193.785156 80.558594 191.394531 80.394531 C 191.304688 80.390625 191.210938 80.390625 191.121094 80.390625 Z M 191.121094 84.449219 C 193.421875 84.605469 194.589844 84.710938 196.933594 84.9375 C 197.476562 86.625 197.753906 87.484375 198.34375 89.226562 C 193.546875 90.695312 191.164062 91.484375 186.382812 93.1875 C 185.304688 91.171875 184.773438 90.1875 183.796875 88.261719 C 186.742188 86.707031 188.210938 85.941406 191.121094 84.449219"
  />
  <path
    fill="#FFF"
    d="M 87.679688 269.789062 C 101.222656 269.789062 117.230469 269.789062 117.429688 269.789062 C 125.992188 269.789062 132.933594 262.84375 132.933594 254.285156 C 132.933594 245.722656 125.992188 238.78125 117.429688 238.78125 C 116.441406 238.78125 112.222656 239.292969 111.136719 239.625 C 108.160156 233.792969 102.109375 229.792969 95.105469 229.792969 C 91.4375 229.792969 88.03125 230.894531 85.183594 232.777344 C 81.171875 228.484375 75.453125 225.792969 69.105469 225.792969 C 56.957031 225.792969 47.105469 235.640625 47.105469 247.789062 C 47.105469 259.941406 56.957031 269.789062 69.105469 269.789062"
  />
  <g clip-path="url(#b)">
    <path
      stroke-linecap="round"
      transform="matrix(.1354 0 0 -.13537 -100.57 475.141)"
      fill="none"
      stroke-linejoin="round"
      d="M 1390.379246 1516.993211 C 1490.404772 1516.993211 1608.635116 1516.993211 1610.106504 1516.993211 C 1673.347333 1516.993211 1724.615103 1568.300115 1724.615103 1631.524765 C 1724.615103 1694.778271 1673.347333 1746.056318 1610.106504 1746.056318 C 1602.807266 1746.056318 1571.648464 1742.276113 1563.627957 1739.823309 C 1541.643691 1782.906103 1496.953891 1812.455186 1445.224509 1812.455186 C 1418.133661 1812.455186 1392.975813 1804.317645 1371.943622 1790.4088 C 1342.313909 1822.122122 1300.076421 1842.004269 1253.193964 1842.004269 C 1163.468154 1842.004269 1090.70658 1769.256966 1090.70658 1679.513168 C 1090.70658 1589.740514 1163.468154 1516.993211 1253.193964 1516.993211"
      stroke="#180D0C"
      stroke-width="40"
      stroke-miterlimit="10"
    />
  </g>
  <path
    fill="#FFF"
    d="M 282.207031 203.457031 C 295.738281 203.457031 311.75 203.457031 311.949219 203.457031 C 320.511719 203.457031 327.453125 196.515625 327.453125 187.953125 C 327.453125 179.394531 320.511719 172.449219 311.949219 172.449219 C 310.960938 172.449219 306.742188 172.964844 305.65625 173.296875 C 302.679688 167.464844 296.628906 163.460938 289.625 163.460938 C 285.957031 163.460938 282.550781 164.566406 279.703125 166.449219 C 275.683594 162.15625 269.972656 159.464844 263.625 159.464844 C 251.476562 159.464844 241.625 169.308594 241.625 181.460938 C 241.625 193.613281 251.476562 203.457031 263.625 203.457031"
  />
  <g clip-path="url(#c)">
    <path
      stroke-linecap="round"
      transform="matrix(.1354 0 0 -.13537 -100.57 475.141)"
      fill="none"
      stroke-linejoin="round"
      d="M 2827.117391 2007.005888 C 2927.056365 2007.005888 3045.31556 2007.005888 3046.786948 2007.005888 C 3110.027776 2007.005888 3161.295546 2058.283935 3161.295546 2121.537441 C 3161.295546 2184.762091 3110.027776 2236.068995 3046.786948 2236.068995 C 3039.48771 2236.068995 3008.328907 2232.259933 3000.308401 2229.807129 C 2978.324135 2272.889923 2933.634334 2302.467862 2881.904952 2302.467862 C 2854.814104 2302.467862 2829.656257 2294.301465 2808.624065 2280.39262 C 2778.936651 2312.105942 2736.756865 2331.988089 2689.874407 2331.988089 C 2600.148597 2331.988089 2527.387023 2259.269642 2527.387023 2169.496988 C 2527.387023 2079.724334 2600.148597 2007.005888 2689.874407 2007.005888"
      stroke="#180D0C"
      stroke-width="40"
      stroke-miterlimit="10"
    />
  </g>
  <path
    stroke-linecap="round"
    transform="matrix(.1354 0 0 -.13537 -100.57 475.141)"
    fill="#FFF"
    stroke-linejoin="round"
    d="M 1394.649156 2659.105674 C 1470.036148 2659.105674 1559.127242 2659.105674 1560.281271 2659.105674 C 1607.971549 2659.105674 1646.602694 2697.773419 1646.602694 2745.473257 C 1646.602694 2793.144239 1607.971549 2831.811985 1560.281271 2831.811985 C 1554.79963 2831.811985 1531.286275 2828.955189 1525.227619 2827.079514 C 1508.667292 2859.571963 1474.969625 2881.849202 1436.021122 2881.849202 C 1415.594796 2881.849202 1396.553305 2875.702761 1380.743098 2865.198986 C 1358.412623 2889.149903 1326.561403 2904.097584 1291.219243 2904.097584 C 1223.564251 2904.097584 1168.718989 2849.270183 1168.718989 2781.601629 C 1168.718989 2713.96193 1223.564251 2659.105674 1291.219243 2659.105674"
    stroke="#180D0C"
    stroke-width="40"
    stroke-miterlimit="10"
  />
</svg>
