<svg width="375" height="375" viewBox="0 0 375 375" fill="none" xmlns="http://www.w3.org/2000/svg">
  <path fill-rule="evenodd" clip-rule="evenodd" d="M85.246 195.953C82.5897 187.125 80.4765 178.133 78.8866 169.055C77.2694 159.812 76.1991 150.477 75.6522 141.113C75.3241 135.465 75.1757 129.801 75.2421 124.148C75.3085 118.891 75.5585 113.629 76.0585 108.395L77.1835 96.5664L89.1054 96.3359C99.8358 96.1367 110.547 94.8867 121.008 92.4883C131.047 90.1875 140.82 86.8359 150.109 82.3789C155.469 79.8047 160.687 76.8594 165.633 73.5586C170.121 70.5664 174.437 67.2422 178.371 63.5469L187.516 54.9531L196.66 63.5469C200.594 67.2422 204.906 70.5664 209.398 73.5586C214.344 76.8594 219.562 79.8047 224.922 82.3789C234.211 86.8359 243.984 90.1875 254.019 92.4883C264.484 94.8867 275.195 96.1367 285.926 96.3359L297.848 96.5664L298.973 108.395C299.469 113.629 299.723 118.891 299.789 124.148C299.855 129.801 299.711 135.465 299.379 141.113C298.832 150.477 297.762 159.812 296.144 169.055C294.555 178.133 292.441 187.125 289.785 195.953C282.199 221.18 270.336 244.621 253.887 265.246C237.391 285.938 217.098 302.793 194.148 315.93L187.516 319.727L180.879 315.93C157.933 302.793 137.637 285.938 121.141 265.246C104.695 244.621 92.8319 221.18 85.246 195.953ZM187.516 306.23L188.324 305.766C209.98 293.375 229.152 277.488 244.719 257.961C260.23 238.504 271.398 216.391 278.555 192.602C281.074 184.215 283.082 175.668 284.59 167.039C286.129 158.246 287.16 149.367 287.684 140.453C288 135.074 288.148 129.68 288.086 124.289C288.023 119.352 287.785 114.41 287.32 109.496L287.18 108.055L285.726 108.023C274.184 107.809 262.664 106.473 251.406 103.891C240.523 101.398 229.934 97.75 219.867 92.918C214.008 90.1016 208.297 86.8828 202.887 83.2734C197.863 79.9258 193.031 76.2031 188.633 72.0664L187.516 71.0195L186.398 72.0664C181.996 76.2031 177.168 79.9258 172.144 83.2734C166.734 86.8828 161.027 90.1016 155.164 92.918C145.098 97.75 134.508 101.398 123.625 103.891C112.371 106.473 100.844 107.809 89.3007 108.023L87.8515 108.055L87.7108 109.496C87.246 114.41 87.0077 119.352 86.9452 124.289C86.8827 129.68 87.0351 135.074 87.3476 140.453C87.871 149.367 88.9022 158.246 90.4374 167.039C91.9491 175.668 93.9569 184.215 96.4804 192.602C103.633 216.395 114.801 238.504 130.312 257.961C145.879 277.488 165.051 293.375 186.707 305.766L187.516 306.23Z" fill="#141414"/>
  <path fill-rule="evenodd" clip-rule="evenodd" d="M276.406 117.957C251.047 117.012 230.801 110.633 215.699 103.383C202.231 96.9141 192.828 89.7539 187.516 85.1172C182.199 89.7539 172.801 96.9141 159.332 103.383C144.227 110.633 123.984 117.012 98.6212 117.957C97.7501 130.051 97.1797 158.578 106.918 190.953C117.445 225.949 140.066 265.395 187.516 293.191C234.965 265.398 257.586 225.949 268.113 190.953C277.848 158.578 277.281 130.051 276.406 117.957Z" fill="#141414"/>
</svg>