<svg width="57" height="57" viewBox="0 0 57 57" fill="none" xmlns="http://www.w3.org/2000/svg">
<path d="M28.5 0C12.7578 0 0 12.7617 0 28.5C0 44.2422 12.7578 57 28.5 57C44.2383 57 57 44.2422 57 28.5C57 12.7617 44.2383 0 28.5 0Z" fill="white"/>
<path d="M28.2229 13.2617L40.219 17.3555V31.2812C40.2307 31.7773 40.1292 32.2773 39.926 32.7344C37.0901 38.8828 29.8948 42.6094 28.4338 43.3164C26.969 42.6367 19.5042 38.9375 16.5354 32.7344C16.3206 32.2656 16.2151 31.7578 16.2229 31.2422V17.3555L28.2229 13.2617ZM28.2229 11C28.0823 11 27.9456 11.0234 27.8127 11.0664L14.8831 15.4805C14.3518 15.668 13.9963 16.1719 14.0002 16.7344V31.2422C13.9924 32.0859 14.1721 32.918 14.5276 33.6836C18.2073 41.3672 27.8049 45.457 27.8049 45.457C27.9416 45.4961 28.0823 45.5195 28.2229 45.5195H28.6682C28.8049 45.5195 28.9417 45.4961 29.0706 45.457C29.0706 45.457 38.3909 41.3594 41.9456 33.6523C42.2815 32.9062 42.4495 32.0977 42.4417 31.2812V16.7344C42.4495 16.1719 42.094 15.668 41.5588 15.4805L28.6331 11.0664C28.5002 11.0234 28.3596 11 28.2229 11Z" fill="#EB5E37"/>
<path d="M26.9687 35.1641H29.0273V32.4336H32.957C33.0156 32.4336 33.043 32.3945 33.0508 32.3789C33.0625 32.3633 33.082 32.3164 33.0508 32.2695L30.1367 27.2109H32.0664L29.543 22.832H30.9297L28 17.75L25.0703 22.832H26.457L23.9336 27.2109H25.8633L22.9453 32.2695C22.918 32.3164 22.9375 32.3633 22.9453 32.3789C22.957 32.3945 22.9844 32.4336 23.043 32.4336H26.9687V35.1641ZM29.4766 35.6133H26.5234V32.8789H23.043C22.8398 32.8789 22.6602 32.7773 22.5625 32.6016C22.4609 32.4258 22.4609 32.2188 22.5625 32.043L25.0898 27.6602H23.1602L25.6836 23.2773H24.2969L28 16.8555L31.7031 23.2773H30.3164L32.8398 27.6602H30.9102L33.4375 32.043C33.5391 32.2188 33.5391 32.4258 33.4375 32.6016C33.3398 32.7773 33.1602 32.8789 32.957 32.8789H29.4766V35.6133Z" fill="#38402E"/>
<path d="M24.0234 35.6133H21.6797V33.7969C21.6797 33.6562 21.5625 33.543 21.4219 33.543H18.2695L20.5508 29.5859H19.0898L21.0039 26.2656H19.9531L22.8516 21.2344L25.0508 25.0508C25.1094 25.1563 25.0742 25.293 24.9688 25.3555C24.8633 25.418 24.7266 25.3789 24.6641 25.2734L22.8516 22.1289L20.7227 25.8203H21.7734L19.8633 29.1367H21.3242L19.043 33.0938H21.4219C21.8086 33.0938 22.125 33.4102 22.125 33.7969V35.1641H23.5781V34.0938C23.5781 33.9727 23.6758 33.8711 23.8008 33.8711C23.9219 33.8711 24.0234 33.9727 24.0234 34.0938V35.6133Z" fill="#38402E"/>
<path d="M34.3205 35.6133H31.9767V34.0938C31.9767 33.9727 32.0783 33.8711 32.1994 33.8711C32.3244 33.8711 32.4221 33.9727 32.4221 34.0938V35.1641H33.8752V33.7969C33.8752 33.4102 34.1916 33.0938 34.5744 33.0938H36.9572L34.676 29.1367H36.1369L34.2267 25.8203H35.2775L33.1486 22.1289L31.3361 25.2734C31.2736 25.3789 31.1369 25.418 31.0314 25.3555C30.926 25.293 30.8869 25.1563 30.9494 25.0508L33.1486 21.2344L36.0471 26.2656H34.9963L36.9103 29.5859H35.4494L37.7306 33.543H34.5744C34.4338 33.543 34.3205 33.6562 34.3205 33.7969V35.6133Z" fill="#38402E"/>
</svg>
