<svg
  xmlns="http://www.w3.org/2000/svg"
  xmlns:xlink="http://www.w3.org/1999/xlink"
  width="375"
  viewBox="0 0 375 375"
  height="375"
  version="1.0"
>
  <defs>
    <clipPath id="d">
      <path
        d="M 0.121094 1 L 58.386719 1 L 58.386719 44 L 0.121094 44 Z M 0.121094 1"
      />
    </clipPath>
    <clipPath id="e">
      <path d="M 9 13 L 45 13 L 45 80.164062 L 9 80.164062 Z M 9 13" />
    </clipPath>
    <clipPath id="c"><path d="M0 0H59V81H0z" /></clipPath>
    <clipPath id="h">
      <path d="M 1 1 L 59.1875 1 L 59.1875 44 L 1 44 Z M 1 1" />
    </clipPath>
    <clipPath id="i">
      <path d="M 9 13 L 46 13 L 46 80.164062 L 9 80.164062 Z M 9 13" />
    </clipPath>
    <clipPath id="g"><path d="M0 0H60V81H0z" /></clipPath>
    <clipPath id="l">
      <path d="M 1 1 L 71.605469 1 L 71.605469 53 L 1 53 Z M 1 1" />
    </clipPath>
    <clipPath id="m">
      <path d="M 11 16 L 56 16 L 56 97.238281 L 11 97.238281 Z M 11 16" />
    </clipPath>
    <clipPath id="k"><path d="M0 0H72V98H0z" /></clipPath>
    <clipPath id="p">
      <path d="M 1 0.0390625 L 81 0.0390625 L 81 60 L 1 60 Z M 1 0.0390625" />
    </clipPath>
    <clipPath id="q">
      <path d="M 19 17 L 70 17 L 70 109.960938 L 19 109.960938 Z M 19 17" />
    </clipPath>
    <clipPath id="o"><path d="M0 0H82V110H0z" /></clipPath>
    <clipPath id="t">
      <path d="M 1 0.558594 L 59 0.558594 L 59 44 L 1 44 Z M 1 0.558594" />
    </clipPath>
    <clipPath id="u">
      <path d="M 14 13 L 51 13 L 51 79.894531 L 14 79.894531 Z M 14 13" />
    </clipPath>
    <clipPath id="s"><path d="M0 0H60V80H0z" /></clipPath>
    <clipPath id="x">
      <path d="M 1 0 L 84.238281 0 L 84.238281 78 L 1 78 Z M 1 0" />
    </clipPath>
    <clipPath id="y">
      <path d="M 20 32 L 77 32 L 77 118.800781 L 20 118.800781 Z M 20 32" />
    </clipPath>
    <clipPath id="w"><path d="M0 0H85V119H0z" /></clipPath>
    <clipPath id="z">
      <path
        d="M 180 120.082031 L 280 120.082031 L 280 214 L 180 214 Z M 180 120.082031"
      />
    </clipPath>
    <mask id="b">
      <g filter="url(#a)">
        <path fill-opacity=".898" d="M-37.5 -37.5H412.5V412.5H-37.5z" />
      </g>
    </mask>
    <mask id="f">
      <g filter="url(#a)">
        <path fill-opacity=".498" d="M-37.5 -37.5H412.5V412.5H-37.5z" />
      </g>
    </mask>
    <mask id="j">
      <g filter="url(#a)">
        <path fill-opacity=".298" d="M-37.5 -37.5H412.5V412.5H-37.5z" />
      </g>
    </mask>
    <mask id="n">
      <g filter="url(#a)">
        <path fill-opacity=".776" d="M-37.5 -37.5H412.5V412.5H-37.5z" />
      </g>
    </mask>
    <mask id="r">
      <g filter="url(#a)">
        <path fill-opacity=".498" d="M-37.5 -37.5H412.5V412.5H-37.5z" />
      </g>
    </mask>
    <mask id="v">
      <g filter="url(#a)">
        <path fill-opacity=".776" d="M-37.5 -37.5H412.5V412.5H-37.5z" />
      </g>
    </mask>
    <filter
      x="0%"
      y="0%"
      width="100%"
      xmlns:xlink="http://www.w3.org/1999/xlink"
      xlink:type="simple"
      xlink:actuate="onLoad"
      height="100%"
      id="a"
      xlink:show="other"
    >
      <feColorMatrix
        values="0 0 0 0 1 0 0 0 0 1 0 0 0 0 1 0 0 0 1 0"
        color-interpolation-filters="sRGB"
      />
    </filter>
  </defs>
  <path fill="none" d="M-37.5 -37.5H412.5V412.5H-37.5z" />
  <path fill="none" d="M-37.5 -37.5H412.5V412.5H-37.5z" />
  <g mask="url(#b)">
    <g>
      <g clip-path="url(#c)" transform="translate(231 176)">
        <g clip-path="url(#d)">
          <path
            d="M 3.957031 32.246094 C 3.578125 32.738281 3.578125 33.410156 3.785156 33.964844 C 4.332031 35.425781 5.953125 35.707031 7.402344 35.742188 C 8.003906 36.378906 9.007812 36.664062 9.875 36.792969 C 10.902344 36.949219 11.8125 36.734375 12.738281 36.320312 C 13.746094 35.867188 14.589844 35.503906 15.730469 35.574219 C 16.777344 35.640625 17.800781 35.90625 18.855469 35.894531 C 20.425781 35.878906 22.007812 35.101562 22.386719 33.542969 C 22.75 32.046875 21.554688 30.871094 20.136719 30.453125 C 19.238281 30.183594 18.296875 30.234375 17.367188 30.171875 C 16.429688 30.109375 15.683594 29.828125 14.957031 29.257812 C 13.601562 28.191406 12.550781 26.941406 10.808594 26.414062 C 9.28125 25.949219 7.371094 26.003906 6.003906 26.871094 C 5.339844 27.289062 4.757812 27.917969 4.613281 28.683594 C 4.472656 29.425781 5.03125 30.039062 4.941406 30.75 C 4.859375 31.390625 4.324219 31.765625 3.957031 32.246094 Z M 34.222656 37.917969 C 35.109375 37.617188 35.917969 37.839844 36.792969 38.03125 C 37.382812 38.15625 38.355469 38.578125 38.945312 38.402344 C 39.550781 38.21875 39.976562 37.859375 40.644531 37.804688 C 41.292969 37.75 41.964844 37.851562 42.609375 37.902344 C 43.308594 37.953125 44.046875 37.949219 44.734375 38.113281 C 45.75 38.359375 48.5625 41.21875 46.792969 42.101562 C 44.6875 43.152344 42.285156 43.601562 39.945312 43.378906 C 38.53125 43.246094 37.148438 42.875 35.773438 42.507812 C 35.09375 42.324219 34.398438 42.132812 33.804688 41.753906 C 33.207031 41.375 32.714844 40.769531 32.648438 40.066406 C 32.5625 39.117188 33.3125 38.226562 34.222656 37.917969 Z M 21.863281 22.511719 C 21.847656 22.035156 21.921875 21.585938 22.066406 21.167969 C 20.339844 20.5 18.769531 19.5 17.515625 18.25 C 14.144531 21.453125 8.003906 21.878906 4.136719 19.09375 C 1.425781 17.144531 -0.800781 12.324219 1.246094 9.371094 C 1.886719 8.449219 2.898438 7.859375 4.066406 7.417969 C 6.277344 6.585938 9.035156 6.300781 10.847656 5.347656 C 11.828125 4.835938 12.640625 4.09375 13.570312 3.511719 C 15.230469 2.472656 17.175781 1.738281 19.160156 1.375 C 22.96875 0.671875 25.769531 1.8125 29.386719 2.460938 C 31.867188 2.902344 34.722656 2.214844 37.050781 1.851562 C 40.511719 1.316406 44.210938 2.414062 46.703125 4.625 C 49.058594 6.714844 50.351562 9.796875 49.792969 12.765625 C 49.304688 15.363281 47.425781 17.554688 44.617188 18.3125 C 45.117188 18.785156 45.527344 19.339844 45.824219 19.957031 C 48.34375 18.5 51.59375 18.984375 53.675781 21.152344 C 54.375 21.339844 55.050781 21.601562 55.675781 21.96875 C 57.175781 22.859375 58.335938 24.472656 58.285156 26.210938 C 58.234375 27.949219 56.703125 29.628906 54.964844 29.492188 C 55.152344 29.507812 53.65625 31.429688 53.457031 31.574219 C 52.511719 32.253906 51.628906 32.28125 50.527344 32.339844 C 48.039062 32.476562 45.742188 32.097656 43.464844 31.019531 C 41.9375 32.414062 39.761719 32.679688 37.71875 32.515625 C 34.640625 32.261719 31.574219 31.488281 28.546875 30.917969 C 25.816406 30.410156 22.320312 30.203125 20.617188 27.667969 C 19.417969 25.890625 19.867188 23.195312 21.863281 22.511719 Z M 21.863281 22.511719"
          />
        </g>
        <g clip-path="url(#e)">
          <path
            fill="#32312F"
            d="M 10.207031 32.746094 C 10.304688 32.808594 10.398438 32.875 10.496094 32.929688 C 11.035156 33.246094 11.460938 33.339844 12.03125 33.527344 C 12.59375 33.714844 13.261719 34.644531 13.84375 34.148438 C 14.265625 33.789062 14.054688 33.007812 14.417969 32.597656 C 14.777344 32.195312 15.675781 32.058594 15.730469 32.789062 C 15.742188 32.949219 15.6875 33.105469 15.632812 33.257812 C 15.21875 34.453125 14.722656 35.484375 15.308594 36.71875 C 15.757812 37.675781 16.808594 37.941406 17.582031 38.550781 C 18.796875 39.390625 19.878906 40.550781 21.199219 41.199219 C 22.554688 41.859375 23.816406 42.714844 25.15625 43.421875 C 25.824219 43.773438 26.640625 44.105469 27.300781 43.746094 C 28.3125 43.199219 28.035156 42.1875 28.046875 41.285156 C 28.0625 39.867188 28.382812 38.414062 28.492188 37 C 28.359375 36.394531 28.222656 35.796875 28.0625 35.199219 C 27.75 34.019531 27.378906 32.824219 27.089844 31.660156 C 26.824219 30.589844 26.3125 30.023438 25.679688 29.109375 C 24.789062 27.828125 25.078125 26.382812 24.652344 25 C 24.144531 23.355469 23.535156 21.746094 23.035156 20.097656 C 22.875 19.578125 22.792969 18.929688 22.496094 18.464844 C 22.125 17.882812 21.339844 17.496094 20.761719 17.15625 C 19.59375 16.46875 18.367188 15.886719 17.070312 15.492188 C 16.617188 15.355469 16.421875 14.425781 17.046875 14.59375 C 18.492188 14.984375 20.097656 15.480469 21.484375 16.261719 C 21.628906 15.570312 21.796875 14.894531 21.792969 14.171875 C 21.792969 13.523438 22.675781 13.941406 22.675781 14.433594 C 22.675781 15.210938 22.609375 16.050781 22.257812 16.746094 C 22.789062 17.117188 23.273438 17.542969 23.683594 18.039062 C 24.203125 18.664062 24.554688 19.417969 24.859375 20.191406 C 25.75 21.597656 26.183594 23.285156 26.882812 24.785156 C 27.683594 26.503906 28.675781 28.199219 30.058594 29.519531 C 30.5625 29.246094 31.125 29.042969 31.609375 28.8125 C 33.035156 28.128906 34.242188 27.09375 35.625 26.351562 C 36.675781 25.785156 37.363281 25.496094 37.628906 24.191406 C 37.695312 23.878906 38.203125 20.945312 38.785156 21.132812 C 39.839844 21.480469 39.804688 23.832031 39.53125 25.050781 C 40.039062 24.917969 40.554688 24.816406 41.109375 24.703125 C 42.105469 24.5 43.179688 24.179688 43.882812 23.410156 C 44.230469 23.027344 44.996094 23.890625 44.691406 24.269531 C 43.492188 25.753906 41.695312 26.238281 40.058594 27.109375 C 39.09375 27.625 38.164062 28.203125 37.105469 28.519531 C 36.652344 28.65625 36.257812 28.800781 35.851562 29.007812 C 35.792969 29.046875 35.734375 29.085938 35.675781 29.128906 C 34.246094 30.113281 32.875 31.199219 31.742188 32.519531 C 30.574219 33.878906 31.636719 35.617188 31.484375 37.140625 C 31.375 38.199219 31.140625 40.15625 31.679688 41.128906 C 32.953125 43.421875 35.449219 40.019531 36.886719 40.023438 C 37.257812 40.023438 37.640625 40.273438 37.703125 40.636719 C 37.8125 41.292969 35.695312 42.535156 35.25 43.007812 C 31.902344 46.582031 29.582031 54.59375 30.101562 59.367188 C 30.300781 61.179688 30.957031 62.90625 31.613281 64.609375 C 33.394531 69.261719 35.179688 73.914062 36.960938 78.5625 C 35.027344 78.929688 33.175781 79.757812 31.304688 80.054688 C 30.535156 80.175781 24.886719 78.78125 24.90625 78.753906 C 26.632812 76.558594 26.6875 73.480469 26.132812 70.746094 C 25.578125 68.015625 24.496094 65.390625 24.195312 62.621094 C 23.796875 58.90625 25.226562 55.335938 25.109375 51.640625 C 25.046875 49.761719 24.453125 48.210938 23.644531 46.550781 C 23.421875 46.085938 23.269531 45.09375 22.71875 44.910156 C 22.386719 44.796875 22.042969 45.09375 21.71875 45.117188 C 21.304688 45.140625 20.964844 44.945312 20.558594 44.898438 C 19.820312 44.816406 19.117188 45.289062 18.402344 45.238281 C 17.636719 45.1875 16.773438 44.621094 16.226562 44.121094 C 16.078125 43.984375 15.929688 43.828125 15.859375 43.636719 C 15.789062 43.445312 15.808594 43.203125 15.957031 43.0625 C 16.175781 42.855469 16.527344 42.941406 16.8125 43.042969 C 18.132812 43.503906 18.722656 43.636719 20.003906 43.058594 C 18.757812 41.710938 17.121094 40.691406 15.832031 39.355469 C 13.8125 37.261719 11.589844 35.605469 9.332031 33.796875 C 9.332031 33.40625 8.71875 33.199219 9.234375 32.71875 C 9.578125 32.394531 9.894531 32.550781 10.207031 32.746094 Z M 10.207031 32.746094"
          />
        </g>
      </g>
    </g>
  </g>
  <g mask="url(#f)">
    <g>
      <g clip-path="url(#g)" transform="translate(19 176)">
        <g clip-path="url(#h)">
          <path
            d="M 4.753906 32.246094 C 4.375 32.738281 4.375 33.410156 4.582031 33.964844 C 5.128906 35.425781 6.75 35.707031 8.199219 35.742188 C 8.800781 36.378906 9.804688 36.664062 10.671875 36.792969 C 11.699219 36.949219 12.609375 36.734375 13.535156 36.320312 C 14.542969 35.867188 15.386719 35.503906 16.527344 35.574219 C 17.574219 35.640625 18.601562 35.90625 19.652344 35.894531 C 21.222656 35.878906 22.804688 35.101562 23.183594 33.542969 C 23.546875 32.046875 22.351562 30.871094 20.9375 30.453125 C 20.035156 30.183594 19.09375 30.234375 18.164062 30.171875 C 17.226562 30.109375 16.480469 29.828125 15.757812 29.257812 C 14.398438 28.191406 13.347656 26.941406 11.605469 26.414062 C 10.078125 25.949219 8.167969 26.003906 6.800781 26.871094 C 6.136719 27.289062 5.554688 27.917969 5.410156 28.683594 C 5.269531 29.425781 5.828125 30.039062 5.738281 30.75 C 5.65625 31.390625 5.121094 31.765625 4.753906 32.246094 Z M 35.019531 37.917969 C 35.90625 37.617188 36.714844 37.839844 37.589844 38.03125 C 38.179688 38.15625 39.152344 38.578125 39.742188 38.402344 C 40.347656 38.21875 40.773438 37.859375 41.441406 37.804688 C 42.089844 37.75 42.761719 37.851562 43.40625 37.902344 C 44.105469 37.953125 44.847656 37.949219 45.53125 38.113281 C 46.546875 38.359375 49.359375 41.21875 47.589844 42.101562 C 45.484375 43.152344 43.085938 43.601562 40.742188 43.378906 C 39.328125 43.246094 37.945312 42.875 36.574219 42.507812 C 35.890625 42.324219 35.195312 42.132812 34.601562 41.753906 C 34.003906 41.375 33.511719 40.769531 33.445312 40.066406 C 33.359375 39.117188 34.109375 38.226562 35.019531 37.917969 Z M 22.660156 22.511719 C 22.644531 22.035156 22.71875 21.585938 22.863281 21.167969 C 21.140625 20.5 19.566406 19.5 18.3125 18.25 C 14.941406 21.453125 8.800781 21.878906 4.933594 19.09375 C 2.222656 17.144531 -0.00390625 12.324219 2.042969 9.371094 C 2.683594 8.449219 3.695312 7.859375 4.863281 7.417969 C 7.074219 6.585938 9.835938 6.300781 11.644531 5.347656 C 12.625 4.835938 13.4375 4.09375 14.367188 3.511719 C 16.03125 2.472656 17.972656 1.738281 19.957031 1.375 C 23.765625 0.671875 26.566406 1.8125 30.1875 2.460938 C 32.667969 2.902344 35.519531 2.214844 37.847656 1.851562 C 41.308594 1.316406 45.007812 2.414062 47.5 4.625 C 49.855469 6.714844 51.148438 9.796875 50.589844 12.765625 C 50.101562 15.363281 48.222656 17.554688 45.414062 18.3125 C 45.914062 18.785156 46.324219 19.339844 46.621094 19.957031 C 49.140625 18.5 52.390625 18.984375 54.472656 21.152344 C 55.171875 21.339844 55.847656 21.601562 56.472656 21.96875 C 57.972656 22.859375 59.132812 24.472656 59.082031 26.210938 C 59.035156 27.949219 57.5 29.628906 55.761719 29.492188 C 55.949219 29.507812 54.457031 31.429688 54.253906 31.574219 C 53.308594 32.253906 52.425781 32.28125 51.324219 32.339844 C 48.835938 32.476562 46.539062 32.097656 44.261719 31.019531 C 42.734375 32.414062 40.558594 32.679688 38.515625 32.515625 C 35.4375 32.261719 32.371094 31.488281 29.34375 30.917969 C 26.613281 30.410156 23.117188 30.203125 21.414062 27.667969 C 20.21875 25.890625 20.664062 23.195312 22.660156 22.511719 Z M 22.660156 22.511719"
          />
        </g>
        <g clip-path="url(#i)">
          <path
            fill="#32312F"
            d="M 11.003906 32.746094 C 11.101562 32.808594 11.195312 32.875 11.292969 32.929688 C 11.832031 33.246094 12.257812 33.339844 12.828125 33.527344 C 13.394531 33.714844 14.058594 34.644531 14.640625 34.148438 C 15.0625 33.789062 14.851562 33.007812 15.214844 32.597656 C 15.574219 32.195312 16.472656 32.058594 16.527344 32.789062 C 16.539062 32.949219 16.484375 33.105469 16.433594 33.257812 C 16.015625 34.453125 15.519531 35.484375 16.105469 36.71875 C 16.558594 37.675781 17.605469 37.941406 18.378906 38.550781 C 19.59375 39.390625 20.675781 40.550781 22 41.199219 C 23.351562 41.859375 24.613281 42.714844 25.953125 43.421875 C 26.621094 43.773438 27.4375 44.105469 28.101562 43.746094 C 29.109375 43.199219 28.832031 42.1875 28.84375 41.285156 C 28.859375 39.867188 29.179688 38.414062 29.289062 37 C 29.15625 36.394531 29.019531 35.796875 28.863281 35.199219 C 28.546875 34.019531 28.175781 32.824219 27.886719 31.660156 C 27.621094 30.589844 27.109375 30.023438 26.476562 29.109375 C 25.585938 27.828125 25.875 26.382812 25.449219 25 C 24.945312 23.355469 24.332031 21.746094 23.832031 20.097656 C 23.671875 19.578125 23.589844 18.929688 23.292969 18.464844 C 22.921875 17.882812 22.136719 17.496094 21.558594 17.15625 C 20.390625 16.46875 19.164062 15.886719 17.867188 15.492188 C 17.414062 15.355469 17.21875 14.425781 17.84375 14.59375 C 19.289062 14.984375 20.894531 15.480469 22.28125 16.261719 C 22.425781 15.570312 22.59375 14.894531 22.589844 14.171875 C 22.589844 13.523438 23.472656 13.941406 23.472656 14.433594 C 23.472656 15.210938 23.40625 16.050781 23.054688 16.746094 C 23.585938 17.117188 24.070312 17.542969 24.480469 18.039062 C 25 18.664062 25.351562 19.417969 25.65625 20.191406 C 26.546875 21.597656 26.980469 23.285156 27.679688 24.785156 C 28.480469 26.503906 29.472656 28.199219 30.855469 29.519531 C 31.359375 29.246094 31.921875 29.042969 32.40625 28.8125 C 33.832031 28.128906 35.039062 27.09375 36.421875 26.351562 C 37.476562 25.785156 38.160156 25.496094 38.425781 24.191406 C 38.492188 23.878906 39 20.945312 39.582031 21.132812 C 40.636719 21.480469 40.601562 23.832031 40.328125 25.050781 C 40.835938 24.917969 41.351562 24.816406 41.90625 24.703125 C 42.902344 24.5 43.976562 24.179688 44.679688 23.410156 C 45.03125 23.027344 45.792969 23.890625 45.488281 24.269531 C 44.289062 25.753906 42.492188 26.238281 40.855469 27.109375 C 39.890625 27.625 38.960938 28.203125 37.902344 28.519531 C 37.449219 28.65625 37.054688 28.800781 36.648438 29.007812 C 36.589844 29.046875 36.53125 29.085938 36.472656 29.128906 C 35.042969 30.113281 33.671875 31.199219 32.539062 32.519531 C 31.371094 33.878906 32.433594 35.617188 32.28125 37.140625 C 32.171875 38.199219 31.9375 40.15625 32.476562 41.128906 C 33.75 43.421875 36.246094 40.019531 37.6875 40.023438 C 38.054688 40.023438 38.4375 40.273438 38.5 40.636719 C 38.609375 41.292969 36.492188 42.535156 36.046875 43.007812 C 32.699219 46.582031 30.378906 54.59375 30.898438 59.367188 C 31.097656 61.179688 31.757812 62.90625 32.410156 64.609375 C 34.191406 69.261719 35.976562 73.914062 37.757812 78.5625 C 35.824219 78.929688 33.972656 79.757812 32.101562 80.054688 C 31.332031 80.175781 25.683594 78.78125 25.703125 78.753906 C 27.429688 76.558594 27.484375 73.480469 26.929688 70.746094 C 26.375 68.015625 25.292969 65.390625 24.992188 62.621094 C 24.59375 58.90625 26.023438 55.335938 25.90625 51.640625 C 25.84375 49.761719 25.25 48.210938 24.441406 46.550781 C 24.21875 46.085938 24.066406 45.09375 23.515625 44.910156 C 23.183594 44.796875 22.839844 45.09375 22.515625 45.117188 C 22.101562 45.140625 21.761719 44.945312 21.355469 44.898438 C 20.617188 44.816406 19.914062 45.289062 19.199219 45.238281 C 18.433594 45.1875 17.570312 44.621094 17.023438 44.121094 C 16.875 43.984375 16.726562 43.828125 16.65625 43.636719 C 16.585938 43.445312 16.605469 43.203125 16.753906 43.0625 C 16.972656 42.855469 17.324219 42.941406 17.609375 43.042969 C 18.929688 43.503906 19.519531 43.636719 20.800781 43.058594 C 19.554688 41.710938 17.917969 40.691406 16.632812 39.355469 C 14.609375 37.261719 12.386719 35.605469 10.128906 33.796875 C 10.128906 33.40625 9.515625 33.199219 10.03125 32.71875 C 10.375 32.394531 10.691406 32.550781 11.003906 32.746094 Z M 11.003906 32.746094"
          />
        </g>
      </g>
    </g>
  </g>
  <path
    fill="#100F0D"
    d="M 111.933594 183.222656 C 113.109375 183.519531 114.359375 183.253906 115.335938 182.566406 C 118.308594 183.300781 121.480469 183.347656 124.5 183.074219 C 127.714844 182.785156 131.871094 182.394531 133.164062 178.875 C 134.417969 175.460938 131.699219 173.136719 128.632812 172.605469 C 125.019531 171.976562 120.960938 170.953125 117.285156 171.375 C 114.222656 171.726562 111.390625 173.496094 109.792969 176.152344 C 108.28125 178.667969 108.601562 182.386719 111.933594 183.222656 Z M 38.152344 133.496094 C 41.402344 128.015625 47.09375 124.417969 53.359375 123.300781 C 55.832031 118.414062 62.671875 117.871094 67.722656 119.023438 C 72.054688 120.015625 75.980469 122.453125 78.855469 125.808594 C 81.226562 125.199219 82.964844 123.210938 85.363281 122.199219 C 91.242188 119.71875 95.332031 121.507812 100.179688 124.609375 C 104.851562 127.601562 110.042969 129.785156 115.453125 131.011719 C 119.394531 131.902344 123.578125 132.351562 126.957031 134.566406 C 133.007812 138.53125 134.410156 147.585938 130.871094 153.898438 C 128.175781 158.707031 123.222656 161.851562 117.957031 163.160156 C 115.480469 163.777344 113.832031 163.65625 111.984375 165.457031 C 109.984375 167.40625 108.933594 170.226562 107.550781 172.597656 C 102.378906 181.441406 92.101562 179.839844 83.625 182.347656 C 73.207031 185.425781 61.710938 185.203125 51.507812 181.398438 C 45.371094 179.109375 39.714844 175.152344 37.730469 168.980469 C 36.242188 164.347656 37.589844 159.640625 40.671875 156.0625 C 34.105469 150.667969 33.914062 140.648438 38.152344 133.496094 Z M 93.070312 200.515625 C 93.285156 200.160156 93.59375 199.859375 93.957031 199.601562 C 94.949219 198.898438 96.351562 198.535156 97.394531 198.367188 C 97.933594 198.28125 100.105469 198.613281 100.421875 198.253906 C 101.671875 196.851562 103.46875 196.011719 105.328125 195.886719 C 107.453125 195.066406 109.894531 195.246094 111.859375 196.742188 C 112.265625 197.046875 112.617188 197.394531 112.9375 197.769531 C 115.367188 197.261719 117.652344 196.84375 120.03125 197.925781 C 121.902344 198.777344 123.375 200.371094 123.785156 202.421875 C 124.703125 207.035156 119.894531 210.109375 115.796875 209.539062 C 115.503906 209.496094 115.191406 209.441406 114.863281 209.375 C 114.472656 209.636719 114.070312 209.878906 113.65625 210.074219 C 111.21875 211.21875 108.417969 211.386719 105.988281 210.464844 C 104.738281 210.542969 103.460938 210.292969 102.28125 209.648438 C 101.839844 209.40625 101.425781 209.113281 101.046875 208.785156 C 100.664062 208.789062 100.277344 208.757812 99.886719 208.699219 C 99.207031 208.855469 98.484375 208.890625 97.738281 208.773438 C 94.402344 208.242188 91.019531 203.90625 93.070312 200.515625 Z M 93.070312 200.515625"
  />
  <path
    fill="#2B2B2B"
    d="M 60.449219 175.070312 C 61.96875 178.148438 63.847656 181.144531 65.621094 184.097656 C 66.730469 182.480469 68.027344 181.007812 69.121094 179.375 C 69.691406 178.53125 70.808594 179.84375 70.394531 180.59375 C 69.527344 182.191406 68.867188 183.890625 68.011719 185.496094 C 67.789062 185.914062 67.527344 186.328125 67.3125 186.761719 C 68.851562 189 70.582031 190.996094 72.722656 192.820312 C 75.5625 195.238281 78.140625 197.621094 80.199219 200.75 C 80.371094 198.566406 80.667969 196.398438 81.117188 194.257812 C 81.386719 192.949219 81.84375 191.664062 82.125 190.378906 C 82.777344 187.398438 82.988281 184.34375 83.734375 181.363281 C 84.136719 179.761719 84.285156 179.113281 83.660156 177.574219 C 83.195312 176.421875 82.617188 175.320312 81.914062 174.292969 C 80.246094 171.859375 77.53125 171.269531 75.644531 169.046875 C 75.0625 168.363281 74.535156 167.625 74.03125 166.863281 C 73.261719 165.691406 72.550781 164.464844 71.804688 163.296875 C 71.195312 162.34375 72.367188 161.542969 73 162.492188 C 74.222656 164.339844 75.28125 166.800781 77.316406 167.914062 C 79.46875 169.089844 82.28125 169.359375 84.589844 170.488281 C 85.636719 171 89.089844 174.527344 89.851562 174.449219 C 90.769531 174.355469 92.597656 171.472656 93.34375 170.773438 C 95.375 168.871094 98.113281 166.050781 98.097656 163.058594 C 98.09375 161.910156 98.085938 160.746094 98.058594 159.597656 C 98.035156 158.574219 99.367188 159.183594 99.507812 159.859375 C 99.832031 161.417969 100.386719 163.082031 100.410156 164.71875 C 101.824219 163.5625 103.257812 162.4375 104.296875 160.894531 C 105.054688 159.765625 105.785156 158.617188 106.53125 157.480469 C 106.699219 157.222656 106.933594 156.933594 107.234375 156.976562 C 108.484375 157.148438 106.996094 159.453125 106.777344 159.882812 C 106.105469 161.207031 105.476562 162.875 104.453125 163.964844 C 103.351562 165.136719 102.457031 166.472656 101.519531 167.796875 C 99.398438 170.769531 97.277344 173.753906 95.203125 176.75 C 94.371094 177.953125 93.328125 178.9375 92.648438 180.273438 C 91.960938 181.625 91.535156 183.121094 91.523438 184.640625 C 91.5 187.207031 92.378906 186.429688 94.273438 186.082031 C 95.816406 185.800781 97.375 185.652344 98.917969 185.390625 C 102.40625 184.804688 105.933594 184.417969 109.414062 183.824219 C 109.457031 183.777344 109.496094 183.730469 109.542969 183.691406 C 110.601562 182.796875 111.808594 182.609375 113.019531 182.121094 C 113.082031 182.09375 113.144531 182.0625 113.207031 182.035156 C 113.28125 181.675781 113.394531 181.308594 113.5 180.898438 C 113.8125 179.683594 114.03125 178.453125 114.210938 177.214844 C 114.34375 176.300781 115.4375 176.90625 115.433594 177.601562 C 115.425781 178.664062 115.382812 179.730469 115.316406 180.789062 C 115.644531 180.574219 115.976562 180.371094 116.300781 180.195312 C 118.546875 179.015625 120.816406 177.894531 123.03125 176.667969 C 124.15625 176.042969 125.632812 177.855469 124.433594 178.546875 C 122.144531 179.855469 119.921875 181.269531 117.664062 182.625 C 115.496094 183.929688 113.285156 186.042969 110.914062 186.910156 C 108.398438 187.832031 105.222656 188.167969 102.574219 188.683594 C 99.875 189.207031 97.132812 189.632812 94.453125 190.253906 C 91.683594 190.898438 91.976562 192.445312 91.570312 195.011719 C 90.699219 200.472656 90.203125 205.480469 90.199219 211.007812 C 92.777344 208.476562 95.394531 205.957031 97.742188 203.226562 C 98.359375 202.503906 99.644531 203.515625 99.050781 204.273438 C 96.355469 207.695312 94.054688 211.453125 91.628906 215.070312 C 91.171875 215.753906 90.710938 216.488281 90.226562 217.210938 C 87.273438 221.628906 91.136719 229.878906 92.597656 234.230469 C 95.15625 241.851562 95.917969 249.445312 96.890625 257.429688 C 97.140625 259.484375 92.109375 259.191406 91.0625 259.144531 C 88.523438 259.027344 82.898438 261.09375 81.214844 258.058594 C 80.667969 257.070312 80.742188 255.863281 80.832031 254.734375 C 81.210938 250.058594 82.058594 245.167969 81.988281 240.476562 C 81.921875 236.082031 80.855469 231.671875 80.855469 227.234375 C 80.855469 224.101562 81.203125 220.851562 81.109375 217.773438 C 81.015625 214.789062 79.617188 211.441406 78.402344 208.757812 C 75.9375 203.300781 72.121094 198.453125 68.414062 193.910156 C 66.261719 191.273438 64.324219 188.488281 62.726562 185.480469 C 61.019531 182.269531 60.097656 178.871094 58.78125 175.507812 C 58.261719 174.183594 59.914062 173.988281 60.449219 175.070312 Z M 60.449219 175.070312"
  />
  <g mask="url(#j)">
    <g>
      <g clip-path="url(#k)" transform="translate(122 155)">
        <g clip-path="url(#l)">
          <path
            d="M 5.457031 38.929688 C 5 39.527344 5 40.347656 5.25 41.023438 C 5.914062 42.800781 7.886719 43.140625 9.644531 43.183594 C 10.378906 43.957031 11.597656 44.304688 12.648438 44.464844 C 13.898438 44.65625 15.003906 44.394531 16.132812 43.886719 C 17.355469 43.335938 18.378906 42.894531 19.769531 42.980469 C 21.039062 43.058594 22.285156 43.382812 23.5625 43.371094 C 25.472656 43.351562 27.398438 42.402344 27.855469 40.507812 C 28.296875 38.683594 26.84375 37.257812 25.125 36.746094 C 24.027344 36.417969 22.886719 36.484375 21.757812 36.40625 C 20.617188 36.328125 19.707031 35.988281 18.828125 35.292969 C 17.179688 33.992188 15.902344 32.472656 13.785156 31.828125 C 11.929688 31.265625 9.609375 31.332031 7.945312 32.386719 C 7.140625 32.898438 6.433594 33.664062 6.257812 34.59375 C 6.085938 35.5 6.765625 36.242188 6.65625 37.109375 C 6.558594 37.886719 5.910156 38.347656 5.457031 38.929688 Z M 42.238281 45.832031 C 43.3125 45.46875 44.296875 45.738281 45.359375 45.96875 C 46.078125 46.125 47.261719 46.636719 47.972656 46.421875 C 48.710938 46.199219 49.226562 45.761719 50.039062 45.691406 C 50.828125 45.625 51.644531 45.75 52.429688 45.8125 C 53.277344 45.875 54.175781 45.871094 55.007812 46.070312 C 56.246094 46.367188 59.660156 49.847656 57.511719 50.925781 C 54.953125 52.203125 52.035156 52.75 49.191406 52.480469 C 47.472656 52.316406 45.792969 51.867188 44.125 51.414062 C 43.296875 51.191406 42.453125 50.960938 41.726562 50.5 C 41.003906 50.039062 40.402344 49.304688 40.324219 48.449219 C 40.21875 47.289062 41.132812 46.207031 42.238281 45.832031 Z M 27.21875 27.082031 C 27.199219 26.503906 27.289062 25.957031 27.464844 25.445312 C 25.371094 24.636719 23.460938 23.417969 21.9375 21.898438 C 17.839844 25.792969 10.378906 26.3125 5.675781 22.925781 C 2.382812 20.554688 -0.320312 14.6875 2.167969 11.089844 C 2.945312 9.96875 4.175781 9.25 5.59375 8.714844 C 8.277344 7.703125 11.632812 7.351562 13.832031 6.195312 C 15.023438 5.570312 16.011719 4.667969 17.140625 3.957031 C 19.160156 2.695312 21.523438 1.804688 23.933594 1.359375 C 28.5625 0.503906 31.964844 1.894531 36.363281 2.679688 C 39.378906 3.21875 42.847656 2.378906 45.675781 1.941406 C 49.882812 1.289062 54.375 2.625 57.40625 5.316406 C 60.265625 7.855469 61.835938 11.609375 61.15625 15.222656 C 60.5625 18.382812 58.28125 21.050781 54.867188 21.972656 C 55.476562 22.546875 55.976562 23.222656 56.332031 23.976562 C 59.398438 22.203125 63.347656 22.792969 65.875 25.429688 C 66.726562 25.65625 67.546875 25.972656 68.304688 26.421875 C 70.125 27.503906 71.535156 29.46875 71.476562 31.582031 C 71.417969 33.699219 69.554688 35.746094 67.441406 35.578125 C 67.667969 35.597656 65.855469 37.933594 65.609375 38.109375 C 64.460938 38.9375 63.386719 38.96875 62.050781 39.042969 C 59.027344 39.210938 56.238281 38.746094 53.46875 37.4375 C 51.613281 39.132812 48.96875 39.457031 46.488281 39.253906 C 42.746094 38.949219 39.019531 38.003906 35.339844 37.316406 C 32.023438 36.695312 27.773438 36.441406 25.703125 33.359375 C 24.25 31.191406 24.792969 27.914062 27.21875 27.082031 Z M 27.21875 27.082031"
          />
        </g>
        <g clip-path="url(#m)">
          <path
            fill="#32312F"
            d="M 13.054688 39.539062 C 13.171875 39.613281 13.289062 39.691406 13.40625 39.761719 C 14.0625 40.144531 14.578125 40.261719 15.269531 40.488281 C 15.957031 40.71875 16.765625 41.847656 17.472656 41.246094 C 17.984375 40.808594 17.730469 39.855469 18.171875 39.355469 C 18.605469 38.867188 19.699219 38.699219 19.765625 39.589844 C 19.777344 39.785156 19.714844 39.976562 19.648438 40.160156 C 19.144531 41.617188 18.542969 42.871094 19.253906 44.375 C 19.800781 45.535156 21.078125 45.859375 22.015625 46.601562 C 23.492188 47.621094 24.808594 49.035156 26.414062 49.824219 C 28.058594 50.632812 29.59375 51.667969 31.222656 52.527344 C 32.03125 52.957031 33.023438 53.363281 33.828125 52.925781 C 35.054688 52.261719 34.71875 51.027344 34.730469 49.925781 C 34.75 48.207031 35.140625 46.433594 35.273438 44.714844 C 35.113281 43.980469 34.945312 43.25 34.753906 42.523438 C 34.375 41.085938 33.921875 39.636719 33.570312 38.21875 C 33.246094 36.914062 32.625 36.222656 31.855469 35.113281 C 30.773438 33.550781 31.125 31.792969 30.609375 30.109375 C 29.992188 28.109375 29.25 26.148438 28.640625 24.148438 C 28.449219 23.511719 28.347656 22.722656 27.984375 22.15625 C 27.535156 21.449219 26.582031 20.976562 25.878906 20.5625 C 24.460938 19.730469 22.96875 19.019531 21.394531 18.542969 C 20.84375 18.375 20.609375 17.242188 21.367188 17.445312 C 23.125 17.921875 25.074219 18.527344 26.757812 19.476562 C 26.933594 18.636719 27.136719 17.8125 27.136719 16.933594 C 27.132812 16.140625 28.207031 16.652344 28.207031 17.25 C 28.203125 18.195312 28.125 19.21875 27.699219 20.070312 C 28.34375 20.519531 28.933594 21.035156 29.429688 21.636719 C 30.058594 22.398438 30.488281 23.320312 30.859375 24.257812 C 31.941406 25.96875 32.46875 28.023438 33.316406 29.847656 C 34.292969 31.941406 35.496094 34.003906 37.175781 35.613281 C 37.789062 35.277344 38.476562 35.03125 39.0625 34.75 C 40.796875 33.917969 42.261719 32.660156 43.941406 31.757812 C 45.21875 31.066406 46.054688 30.714844 46.378906 29.128906 C 46.457031 28.746094 47.078125 25.175781 47.78125 25.40625 C 49.0625 25.828125 49.019531 28.6875 48.6875 30.171875 C 49.304688 30.011719 49.933594 29.890625 50.605469 29.75 C 51.816406 29.5 53.121094 29.113281 53.976562 28.175781 C 54.402344 27.710938 55.328125 28.761719 54.957031 29.222656 C 53.503906 31.027344 51.316406 31.617188 49.328125 32.679688 C 48.15625 33.304688 47.023438 34.011719 45.742188 34.394531 C 45.1875 34.558594 44.707031 34.734375 44.21875 34.988281 C 44.148438 35.035156 44.074219 35.085938 44.003906 35.132812 C 42.265625 36.332031 40.601562 37.652344 39.222656 39.261719 C 37.800781 40.917969 39.09375 43.03125 38.910156 44.886719 C 38.777344 46.171875 38.488281 48.554688 39.148438 49.742188 C 40.695312 52.53125 43.726562 48.386719 45.476562 48.394531 C 45.925781 48.394531 46.390625 48.695312 46.464844 49.136719 C 46.597656 49.9375 44.023438 51.449219 43.484375 52.027344 C 39.417969 56.375 36.601562 66.128906 37.230469 71.933594 C 37.472656 74.140625 38.269531 76.242188 39.066406 78.316406 C 41.230469 83.976562 43.398438 89.636719 45.566406 95.296875 C 43.214844 95.742188 40.964844 96.753906 38.691406 97.113281 C 37.753906 97.261719 30.894531 95.558594 30.917969 95.527344 C 33.011719 92.859375 33.082031 89.109375 32.410156 85.785156 C 31.734375 82.460938 30.417969 79.265625 30.054688 75.894531 C 29.566406 71.375 31.308594 67.027344 31.164062 62.53125 C 31.089844 60.246094 30.363281 58.359375 29.386719 56.335938 C 29.109375 55.773438 28.925781 54.566406 28.257812 54.339844 C 27.855469 54.207031 27.4375 54.566406 27.046875 54.589844 C 26.539062 54.625 26.125 54.382812 25.632812 54.328125 C 24.738281 54.226562 23.882812 54.800781 23.011719 54.742188 C 22.082031 54.679688 21.035156 53.992188 20.371094 53.382812 C 20.1875 53.214844 20.007812 53.023438 19.921875 52.789062 C 19.835938 52.554688 19.863281 52.265625 20.042969 52.09375 C 20.308594 51.839844 20.734375 51.945312 21.082031 52.066406 C 22.683594 52.628906 23.402344 52.789062 24.960938 52.085938 C 23.445312 50.449219 21.457031 49.207031 19.894531 47.582031 C 17.433594 45.035156 14.734375 43.019531 11.992188 40.816406 C 11.992188 40.339844 11.25 40.089844 11.871094 39.503906 C 12.289062 39.109375 12.675781 39.300781 13.054688 39.539062 Z M 13.054688 39.539062"
          />
        </g>
      </g>
    </g>
  </g>
  <path
    fill="#38402E"
    d="M 134.746094 202.6875 C 135.675781 202.921875 136.664062 202.710938 137.433594 202.171875 C 139.785156 202.753906 142.296875 202.789062 144.683594 202.574219 C 147.230469 202.34375 150.515625 202.03125 151.535156 199.253906 C 152.527344 196.550781 150.378906 194.714844 147.953125 194.292969 C 145.09375 193.796875 141.882812 192.988281 138.976562 193.320312 C 136.554688 193.597656 134.316406 194.996094 133.050781 197.101562 C 131.855469 199.085938 132.109375 202.027344 134.746094 202.6875 Z M 76.378906 163.371094 C 78.949219 159.035156 83.453125 156.191406 88.410156 155.308594 C 90.363281 151.445312 95.773438 151.015625 99.769531 151.925781 C 103.199219 152.710938 106.300781 154.636719 108.578125 157.289062 C 110.453125 156.808594 111.828125 155.238281 113.726562 154.4375 C 118.375 152.472656 121.613281 153.890625 125.445312 156.34375 C 129.140625 158.707031 133.25 160.433594 137.53125 161.40625 C 140.644531 162.109375 143.957031 162.464844 146.628906 164.214844 C 151.417969 167.351562 152.523438 174.511719 149.722656 179.503906 C 147.59375 183.304688 143.671875 185.792969 139.511719 186.824219 C 137.550781 187.3125 136.246094 187.21875 134.785156 188.640625 C 133.203125 190.183594 132.371094 192.414062 131.277344 194.285156 C 127.1875 201.28125 119.054688 200.015625 112.351562 201.996094 C 104.109375 204.429688 95.015625 204.253906 86.945312 201.246094 C 82.089844 199.4375 77.613281 196.308594 76.046875 191.429688 C 74.867188 187.761719 75.933594 184.042969 78.371094 181.214844 C 73.179688 176.945312 73.027344 169.023438 76.378906 163.371094 Z M 119.820312 216.363281 C 119.992188 216.082031 120.238281 215.84375 120.523438 215.640625 C 121.308594 215.085938 122.417969 214.796875 123.246094 214.664062 C 123.667969 214.59375 125.386719 214.855469 125.636719 214.574219 C 126.625 213.464844 128.046875 212.800781 129.519531 212.703125 C 131.199219 212.054688 133.128906 212.195312 134.683594 213.378906 C 135.003906 213.621094 135.285156 213.894531 135.539062 214.191406 C 137.460938 213.789062 139.269531 213.460938 141.148438 214.316406 C 142.628906 214.988281 143.796875 216.246094 144.117188 217.871094 C 144.847656 221.519531 141.042969 223.949219 137.800781 223.496094 C 137.570312 223.464844 137.320312 223.421875 137.0625 223.367188 C 136.753906 223.574219 136.4375 223.765625 136.105469 223.921875 C 134.179688 224.824219 131.964844 224.960938 130.042969 224.230469 C 129.054688 224.289062 128.042969 224.09375 127.109375 223.582031 C 126.761719 223.394531 126.433594 223.164062 126.128906 222.902344 C 125.828125 222.90625 125.523438 222.878906 125.214844 222.832031 C 124.675781 222.957031 124.105469 222.984375 123.515625 222.890625 C 120.875 222.472656 118.199219 219.042969 119.820312 216.363281 Z M 119.820312 216.363281"
  />
  <path
    fill="#ABB3A4"
    d="M 94.015625 196.242188 C 95.21875 198.679688 96.707031 201.046875 98.109375 203.382812 C 98.988281 202.101562 100.015625 200.9375 100.878906 199.648438 C 101.328125 198.980469 102.210938 200.015625 101.886719 200.609375 C 101.199219 201.871094 100.675781 203.214844 100 204.488281 C 99.824219 204.816406 99.617188 205.144531 99.445312 205.488281 C 100.664062 207.257812 102.035156 208.835938 103.726562 210.277344 C 105.972656 212.191406 108.011719 214.074219 109.640625 216.546875 C 109.777344 214.820312 110.011719 213.105469 110.367188 211.414062 C 110.582031 210.378906 110.941406 209.363281 111.164062 208.347656 C 111.679688 205.992188 111.847656 203.574219 112.4375 201.21875 C 112.757812 199.953125 112.875 199.4375 112.378906 198.222656 C 112.011719 197.3125 111.554688 196.441406 110.996094 195.628906 C 109.679688 193.703125 107.53125 193.238281 106.039062 191.480469 C 105.578125 190.9375 105.160156 190.355469 104.761719 189.753906 C 104.152344 188.824219 103.59375 187.855469 103 186.933594 C 102.519531 186.179688 103.445312 185.546875 103.945312 186.296875 C 104.914062 187.757812 105.75 189.703125 107.359375 190.582031 C 109.0625 191.511719 111.289062 191.726562 113.113281 192.621094 C 113.941406 193.023438 116.675781 195.8125 117.277344 195.75 C 118.003906 195.675781 119.449219 193.398438 120.039062 192.847656 C 121.644531 191.34375 123.808594 189.113281 123.800781 186.746094 C 123.796875 185.835938 123.792969 184.914062 123.769531 184.007812 C 123.75 183.199219 124.804688 183.683594 124.914062 184.214844 C 125.171875 185.449219 125.609375 186.761719 125.628906 188.054688 C 126.746094 187.144531 127.882812 186.253906 128.703125 185.035156 C 129.300781 184.140625 129.882812 183.234375 130.46875 182.332031 C 130.601562 182.132812 130.789062 181.902344 131.027344 181.9375 C 132.015625 182.070312 130.839844 183.894531 130.667969 184.234375 C 130.132812 185.28125 129.636719 186.601562 128.824219 187.460938 C 127.953125 188.386719 127.25 189.445312 126.503906 190.492188 C 124.828125 192.84375 123.152344 195.203125 121.507812 197.570312 C 120.851562 198.523438 120.027344 199.300781 119.488281 200.355469 C 118.945312 201.425781 118.609375 202.609375 118.597656 203.808594 C 118.578125 205.839844 119.277344 205.222656 120.773438 204.949219 C 121.992188 204.726562 123.226562 204.609375 124.449219 204.40625 C 127.210938 203.9375 129.996094 203.632812 132.75 203.164062 C 132.785156 203.128906 132.816406 203.09375 132.855469 203.058594 C 133.691406 202.351562 134.644531 202.203125 135.601562 201.816406 C 135.652344 201.796875 135.703125 201.773438 135.75 201.75 C 135.808594 201.464844 135.898438 201.175781 135.984375 200.851562 C 136.230469 199.890625 136.402344 198.917969 136.546875 197.9375 C 136.652344 197.214844 137.515625 197.695312 137.511719 198.246094 C 137.507812 199.085938 137.472656 199.925781 137.417969 200.765625 C 137.679688 200.59375 137.941406 200.433594 138.199219 200.296875 C 139.972656 199.363281 141.769531 198.476562 143.523438 197.503906 C 144.414062 197.011719 145.582031 198.445312 144.628906 198.992188 C 142.824219 200.027344 141.066406 201.144531 139.277344 202.21875 C 137.5625 203.25 135.8125 204.917969 133.9375 205.605469 C 131.949219 206.332031 129.433594 206.601562 127.34375 207.007812 C 125.207031 207.417969 123.039062 207.757812 120.917969 208.25 C 118.726562 208.757812 118.957031 209.980469 118.636719 212.007812 C 117.945312 216.328125 117.554688 220.289062 117.550781 224.660156 C 119.59375 222.660156 121.660156 220.667969 123.515625 218.503906 C 124.003906 217.9375 125.023438 218.734375 124.550781 219.332031 C 122.421875 222.039062 120.601562 225.011719 118.683594 227.871094 C 118.320312 228.414062 117.957031 228.992188 117.574219 229.566406 C 115.238281 233.058594 118.292969 239.578125 119.449219 243.023438 C 121.472656 249.046875 122.074219 255.050781 122.84375 261.363281 C 123.042969 262.992188 119.0625 262.757812 118.234375 262.71875 C 116.226562 262.628906 111.773438 264.261719 110.445312 261.863281 C 110.011719 261.078125 110.070312 260.128906 110.144531 259.234375 C 110.441406 255.535156 111.109375 251.671875 111.054688 247.960938 C 111.003906 244.488281 110.160156 241 110.160156 237.488281 C 110.160156 235.011719 110.4375 232.441406 110.359375 230.007812 C 110.285156 227.648438 109.179688 225.003906 108.222656 222.878906 C 106.269531 218.566406 103.25 214.730469 100.320312 211.140625 C 98.617188 209.054688 97.082031 206.851562 95.820312 204.472656 C 94.46875 201.933594 93.738281 199.246094 92.699219 196.589844 C 92.289062 195.542969 93.59375 195.386719 94.015625 196.242188 Z M 94.015625 196.242188"
  />
  <g mask="url(#n)">
    <g>
      <g clip-path="url(#o)" transform="translate(146 149)">
        <g clip-path="url(#p)">
          <path
            d="M 76.015625 43.519531 C 76.539062 44.199219 76.539062 45.132812 76.25 45.902344 C 75.496094 47.925781 73.257812 48.316406 71.261719 48.363281 C 70.429688 49.246094 69.042969 49.640625 67.851562 49.824219 C 66.429688 50.042969 65.175781 49.746094 63.898438 49.167969 C 62.507812 48.539062 61.347656 48.035156 59.769531 48.136719 C 58.328125 48.226562 56.910156 48.59375 55.460938 48.578125 C 53.289062 48.558594 51.109375 47.476562 50.585938 45.316406 C 50.085938 43.238281 51.734375 41.613281 53.6875 41.027344 C 54.929688 40.65625 56.226562 40.730469 57.511719 40.640625 C 58.804688 40.554688 59.835938 40.164062 60.835938 39.375 C 62.707031 37.890625 64.15625 36.160156 66.5625 35.425781 C 68.667969 34.785156 71.304688 34.859375 73.191406 36.0625 C 74.101562 36.644531 74.910156 37.515625 75.109375 38.578125 C 75.304688 39.609375 74.53125 40.457031 74.65625 41.445312 C 74.765625 42.328125 75.503906 42.851562 76.015625 43.519531 Z M 34.257812 51.382812 C 33.035156 50.96875 31.917969 51.273438 30.714844 51.539062 C 29.898438 51.714844 28.554688 52.300781 27.746094 52.054688 C 26.910156 51.800781 26.320312 51.304688 25.398438 51.226562 C 24.503906 51.148438 23.578125 51.292969 22.6875 51.359375 C 21.722656 51.433594 20.703125 51.429688 19.757812 51.65625 C 18.355469 51.992188 14.476562 55.960938 16.917969 57.1875 C 19.820312 58.644531 23.132812 59.265625 26.359375 58.957031 C 28.316406 58.773438 30.222656 58.257812 32.117188 57.746094 C 33.058594 57.492188 34.015625 57.230469 34.835938 56.703125 C 35.660156 56.179688 36.339844 55.339844 36.429688 54.363281 C 36.550781 53.042969 35.511719 51.8125 34.257812 51.382812 Z M 51.308594 30.019531 C 51.332031 29.355469 51.226562 28.734375 51.027344 28.152344 C 53.410156 27.230469 55.574219 25.84375 57.308594 24.109375 C 61.957031 28.546875 70.429688 29.136719 75.765625 25.28125 C 79.507812 22.578125 82.578125 15.890625 79.75 11.796875 C 78.871094 10.515625 77.472656 9.695312 75.859375 9.085938 C 72.8125 7.933594 69.003906 7.535156 66.507812 6.214844 C 65.152344 5.503906 64.035156 4.476562 62.753906 3.667969 C 60.457031 2.226562 57.773438 1.210938 55.039062 0.703125 C 49.78125 -0.269531 45.921875 1.3125 40.925781 2.210938 C 37.503906 2.824219 33.566406 1.867188 30.355469 1.367188 C 25.578125 0.625 20.476562 2.148438 17.039062 5.214844 C 13.789062 8.109375 12.007812 12.386719 12.777344 16.503906 C 13.453125 20.101562 16.042969 23.144531 19.917969 24.195312 C 19.230469 24.847656 18.660156 25.621094 18.253906 26.476562 C 14.773438 24.457031 10.292969 25.128906 7.421875 28.132812 C 6.453125 28.390625 5.523438 28.753906 4.664062 29.265625 C 2.59375 30.5 0.992188 32.734375 1.0625 35.148438 C 1.128906 37.558594 3.246094 39.890625 5.644531 39.699219 C 5.382812 39.71875 7.445312 42.382812 7.722656 42.585938 C 9.027344 43.527344 10.246094 43.5625 11.765625 43.648438 C 15.195312 43.835938 18.363281 43.3125 21.503906 41.820312 C 23.613281 43.75 26.617188 44.121094 29.433594 43.890625 C 33.679688 43.539062 37.910156 42.464844 42.089844 41.679688 C 45.855469 40.96875 50.679688 40.683594 53.03125 37.167969 C 54.679688 34.703125 54.0625 30.964844 51.308594 30.019531 Z M 51.308594 30.019531"
          />
        </g>
        <g clip-path="url(#q)">
          <path
            fill="#32312F"
            d="M 67.390625 44.210938 C 67.257812 44.296875 67.125 44.386719 66.992188 44.464844 C 66.246094 44.902344 65.660156 45.035156 64.875 45.296875 C 64.09375 45.554688 63.179688 46.84375 62.375 46.15625 C 61.792969 45.65625 62.082031 44.574219 61.578125 44.003906 C 61.085938 43.445312 59.84375 43.253906 59.773438 44.273438 C 59.757812 44.492188 59.828125 44.710938 59.902344 44.921875 C 60.476562 46.582031 61.160156 48.007812 60.355469 49.71875 C 59.730469 51.046875 58.28125 51.414062 57.21875 52.257812 C 55.539062 53.421875 54.046875 55.035156 52.222656 55.933594 C 50.355469 56.851562 48.617188 58.035156 46.765625 59.011719 C 45.84375 59.5 44.71875 59.964844 43.804688 59.464844 C 42.410156 58.710938 42.792969 57.304688 42.78125 56.050781 C 42.757812 54.085938 42.316406 52.070312 42.164062 50.109375 C 42.347656 49.273438 42.535156 48.441406 42.753906 47.613281 C 43.1875 45.972656 43.699219 44.320312 44.097656 42.707031 C 44.464844 41.222656 45.171875 40.433594 46.046875 39.167969 C 47.273438 37.390625 46.875 35.386719 47.460938 33.46875 C 48.160156 31.1875 49.003906 28.953125 49.695312 26.671875 C 49.914062 25.949219 50.027344 25.050781 50.4375 24.402344 C 50.949219 23.597656 52.035156 23.058594 52.828125 22.589844 C 54.4375 21.636719 56.132812 20.832031 57.921875 20.285156 C 58.546875 20.09375 58.816406 18.800781 57.953125 19.035156 C 55.957031 19.578125 53.746094 20.265625 51.832031 21.351562 C 51.632812 20.394531 51.402344 19.453125 51.40625 18.453125 C 51.40625 17.550781 50.1875 18.132812 50.1875 18.816406 C 50.191406 19.890625 50.28125 21.054688 50.765625 22.023438 C 50.03125 22.539062 49.363281 23.128906 48.796875 23.8125 C 48.082031 24.679688 47.597656 25.730469 47.175781 26.800781 C 45.945312 28.75 45.351562 31.089844 44.386719 33.167969 C 43.277344 35.554688 41.914062 37.902344 40.003906 39.738281 C 39.308594 39.355469 38.53125 39.074219 37.863281 38.753906 C 35.894531 37.804688 34.230469 36.371094 32.324219 35.34375 C 30.871094 34.558594 29.925781 34.15625 29.558594 32.347656 C 29.46875 31.914062 28.765625 27.84375 27.964844 28.105469 C 26.507812 28.589844 26.554688 31.847656 26.933594 33.539062 C 26.234375 33.355469 25.519531 33.214844 24.757812 33.058594 C 23.382812 32.773438 21.898438 32.332031 20.929688 31.265625 C 20.449219 30.734375 19.394531 31.929688 19.816406 32.457031 C 21.46875 34.515625 23.949219 35.1875 26.207031 36.394531 C 27.539062 37.109375 28.824219 37.914062 30.28125 38.351562 C 30.910156 38.539062 31.453125 38.738281 32.007812 39.027344 C 32.089844 39.082031 32.171875 39.136719 32.25 39.191406 C 34.226562 40.558594 36.117188 42.0625 37.683594 43.898438 C 39.292969 45.78125 37.828125 48.191406 38.039062 50.308594 C 38.183594 51.773438 38.511719 54.488281 37.765625 55.839844 C 36.007812 59.015625 32.566406 54.296875 30.578125 54.300781 C 30.070312 54.300781 29.542969 54.648438 29.457031 55.152344 C 29.308594 56.0625 32.226562 57.785156 32.84375 58.445312 C 37.457031 63.394531 40.65625 74.511719 39.941406 81.128906 C 39.667969 83.640625 38.761719 86.035156 37.859375 88.398438 C 35.398438 94.851562 32.9375 101.300781 30.476562 107.75 C 33.148438 108.257812 35.703125 109.410156 38.285156 109.820312 C 39.347656 109.988281 47.136719 108.050781 47.109375 108.015625 C 44.730469 104.972656 44.652344 100.699219 45.417969 96.910156 C 46.183594 93.121094 47.679688 89.480469 48.089844 85.636719 C 48.644531 80.492188 46.667969 75.539062 46.832031 70.410156 C 46.914062 67.808594 47.738281 65.65625 48.851562 63.355469 C 49.160156 62.710938 49.371094 61.335938 50.128906 61.078125 C 50.585938 60.925781 51.0625 61.335938 51.507812 61.363281 C 52.082031 61.402344 52.550781 61.128906 53.109375 61.0625 C 54.125 60.949219 55.097656 61.605469 56.085938 61.535156 C 57.140625 61.464844 58.328125 60.679688 59.082031 59.988281 C 59.292969 59.792969 59.496094 59.582031 59.59375 59.3125 C 59.691406 59.046875 59.660156 58.714844 59.457031 58.519531 C 59.15625 58.230469 58.667969 58.351562 58.277344 58.488281 C 56.457031 59.128906 55.640625 59.3125 53.875 58.511719 C 55.59375 56.644531 57.851562 55.230469 59.628906 53.378906 C 62.417969 50.472656 65.484375 48.175781 68.597656 45.667969 C 68.597656 45.125 69.441406 44.835938 68.734375 44.171875 C 68.257812 43.722656 67.820312 43.9375 67.390625 44.210938 Z M 67.390625 44.210938"
          />
        </g>
      </g>
    </g>
  </g>
  <g mask="url(#r)">
    <g>
      <g clip-path="url(#s)" transform="translate(293 172)">
        <g clip-path="url(#t)">
          <path
            fill="#38402E"
            d="M 55.394531 31.980469 C 55.773438 32.472656 55.773438 33.144531 55.566406 33.699219 C 55.019531 35.160156 53.398438 35.441406 51.949219 35.472656 C 51.347656 36.109375 50.34375 36.394531 49.476562 36.527344 C 48.449219 36.683594 47.539062 36.46875 46.613281 36.054688 C 45.605469 35.601562 44.761719 35.238281 43.621094 35.308594 C 42.574219 35.375 41.550781 35.640625 40.496094 35.628906 C 38.925781 35.613281 37.34375 34.832031 36.964844 33.277344 C 36.601562 31.777344 37.796875 30.605469 39.214844 30.183594 C 40.113281 29.917969 41.054688 29.96875 41.984375 29.90625 C 42.921875 29.839844 43.667969 29.5625 44.394531 28.992188 C 45.75 27.921875 46.800781 26.671875 48.542969 26.144531 C 50.070312 25.683594 51.980469 25.734375 53.347656 26.605469 C 54.011719 27.023438 54.59375 27.652344 54.738281 28.417969 C 54.878906 29.160156 54.320312 29.773438 54.410156 30.484375 C 54.492188 31.121094 55.027344 31.5 55.394531 31.980469 Z M 25.128906 37.652344 C 24.246094 37.351562 23.433594 37.574219 22.558594 37.761719 C 21.96875 37.890625 20.996094 38.3125 20.40625 38.136719 C 19.800781 37.953125 19.375 37.59375 18.707031 37.535156 C 18.058594 37.480469 17.386719 37.585938 16.742188 37.632812 C 16.042969 37.6875 15.304688 37.683594 14.617188 37.847656 C 13.601562 38.089844 10.789062 40.949219 12.558594 41.835938 C 14.664062 42.886719 17.066406 43.335938 19.40625 43.113281 C 20.820312 42.980469 22.203125 42.609375 23.578125 42.238281 C 24.257812 42.054688 24.953125 41.867188 25.550781 41.488281 C 26.144531 41.109375 26.636719 40.503906 26.703125 39.800781 C 26.789062 38.847656 26.039062 37.960938 25.128906 37.652344 Z M 37.488281 22.246094 C 37.503906 21.769531 37.429688 21.320312 37.285156 20.898438 C 39.011719 20.234375 40.582031 19.234375 41.835938 17.984375 C 45.207031 21.183594 51.347656 21.609375 55.214844 18.828125 C 57.925781 16.878906 60.152344 12.058594 58.105469 9.105469 C 57.464844 8.183594 56.453125 7.589844 55.285156 7.152344 C 53.074219 6.320312 50.316406 6.03125 48.503906 5.082031 C 47.523438 4.566406 46.714844 3.824219 45.78125 3.242188 C 44.121094 2.203125 42.175781 1.472656 40.191406 1.105469 C 36.382812 0.40625 33.582031 1.546875 29.964844 2.195312 C 27.484375 2.636719 24.628906 1.945312 22.300781 1.585938 C 18.839844 1.050781 15.140625 2.148438 12.648438 4.359375 C 10.292969 6.445312 9 9.53125 9.558594 12.5 C 10.046875 15.09375 11.925781 17.289062 14.734375 18.046875 C 14.234375 18.515625 13.824219 19.074219 13.527344 19.691406 C 11.007812 18.234375 7.757812 18.71875 5.675781 20.886719 C 4.976562 21.070312 4.300781 21.332031 3.675781 21.703125 C 2.175781 22.589844 1.019531 24.203125 1.066406 25.941406 C 1.117188 27.683594 2.648438 29.363281 4.386719 29.226562 C 4.199219 29.242188 5.695312 31.160156 5.894531 31.308594 C 6.839844 31.988281 7.722656 32.011719 8.824219 32.074219 C 11.3125 32.210938 13.609375 31.828125 15.886719 30.753906 C 17.414062 32.144531 19.589844 32.414062 21.632812 32.246094 C 24.710938 31.996094 27.777344 31.21875 30.804688 30.652344 C 33.535156 30.140625 37.03125 29.933594 38.734375 27.402344 C 39.933594 25.621094 39.484375 22.929688 37.488281 22.246094 Z M 37.488281 22.246094"
          />
        </g>
        <g clip-path="url(#u)">
          <path
            fill="#ABB3A4"
            d="M 49.144531 32.480469 C 49.046875 32.542969 48.953125 32.605469 48.855469 32.664062 C 48.316406 32.976562 47.890625 33.074219 47.320312 33.261719 C 46.757812 33.449219 46.089844 34.378906 45.507812 33.882812 C 45.085938 33.523438 45.296875 32.742188 44.933594 32.328125 C 44.574219 31.925781 43.675781 31.789062 43.621094 32.523438 C 43.609375 32.683594 43.664062 32.839844 43.71875 32.992188 C 44.132812 34.1875 44.628906 35.214844 44.042969 36.453125 C 43.59375 37.40625 42.542969 37.671875 41.769531 38.28125 C 40.554688 39.121094 39.472656 40.285156 38.152344 40.929688 C 36.796875 41.59375 35.535156 42.445312 34.195312 43.152344 C 33.527344 43.503906 32.710938 43.839844 32.050781 43.480469 C 31.039062 42.933594 31.316406 41.921875 31.304688 41.015625 C 31.289062 39.601562 30.96875 38.144531 30.859375 36.730469 C 30.992188 36.128906 31.128906 35.527344 31.289062 34.929688 C 31.601562 33.75 31.972656 32.558594 32.261719 31.394531 C 32.527344 30.324219 33.039062 29.757812 33.671875 28.84375 C 34.5625 27.558594 34.273438 26.117188 34.699219 24.730469 C 35.207031 23.089844 35.816406 21.476562 36.316406 19.832031 C 36.476562 19.308594 36.558594 18.664062 36.855469 18.195312 C 37.226562 17.613281 38.011719 17.226562 38.589844 16.886719 C 39.757812 16.203125 40.984375 15.621094 42.28125 15.226562 C 42.734375 15.089844 42.929688 14.15625 42.304688 14.328125 C 40.859375 14.71875 39.253906 15.214844 37.867188 15.996094 C 37.722656 15.304688 37.554688 14.625 37.558594 13.90625 C 37.558594 13.253906 36.675781 13.675781 36.675781 14.167969 C 36.675781 14.941406 36.742188 15.78125 37.09375 16.480469 C 36.5625 16.851562 36.078125 17.277344 35.667969 17.769531 C 35.148438 18.398438 34.796875 19.152344 34.492188 19.921875 C 33.601562 21.332031 33.167969 23.019531 32.46875 24.515625 C 31.667969 26.238281 30.675781 27.929688 29.292969 29.253906 C 28.789062 28.976562 28.226562 28.773438 27.742188 28.542969 C 26.316406 27.859375 25.109375 26.828125 23.726562 26.085938 C 22.675781 25.519531 21.988281 25.226562 21.722656 23.925781 C 21.65625 23.609375 21.148438 20.675781 20.566406 20.867188 C 19.511719 21.214844 19.546875 23.5625 19.820312 24.785156 C 19.3125 24.648438 18.796875 24.550781 18.242188 24.4375 C 17.246094 24.230469 16.171875 23.910156 15.46875 23.144531 C 15.121094 22.761719 14.355469 23.625 14.660156 24.003906 C 15.859375 25.488281 17.65625 25.972656 19.292969 26.84375 C 20.257812 27.359375 21.1875 27.9375 22.246094 28.253906 C 22.699219 28.386719 23.097656 28.53125 23.5 28.742188 C 23.558594 28.78125 23.617188 28.820312 23.675781 28.859375 C 25.105469 29.84375 26.476562 30.929688 27.609375 32.253906 C 28.777344 33.613281 27.714844 35.351562 27.867188 36.875 C 27.976562 37.933594 28.214844 39.890625 27.671875 40.863281 C 26.398438 43.15625 23.902344 39.75 22.464844 39.753906 C 22.09375 39.757812 21.710938 40.003906 21.648438 40.367188 C 21.539062 41.023438 23.65625 42.265625 24.105469 42.742188 C 27.449219 46.3125 29.769531 54.328125 29.25 59.101562 C 29.050781 60.914062 28.394531 62.640625 27.738281 64.34375 C 25.957031 68.996094 24.171875 73.644531 22.390625 78.296875 C 24.324219 78.660156 26.175781 79.492188 28.046875 79.789062 C 28.816406 79.910156 34.464844 78.511719 34.445312 78.488281 C 32.71875 76.292969 32.664062 73.210938 33.21875 70.480469 C 33.773438 67.75 34.855469 65.125 35.15625 62.351562 C 35.558594 58.640625 34.125 55.066406 34.242188 51.371094 C 34.304688 49.496094 34.898438 47.941406 35.707031 46.28125 C 35.929688 45.820312 36.082031 44.828125 36.632812 44.640625 C 36.964844 44.53125 37.308594 44.828125 37.632812 44.847656 C 38.046875 44.875 38.386719 44.679688 38.792969 44.632812 C 39.53125 44.546875 40.234375 45.019531 40.953125 44.972656 C 41.714844 44.917969 42.578125 44.355469 43.125 43.855469 C 43.273438 43.714844 43.421875 43.5625 43.492188 43.367188 C 43.5625 43.175781 43.542969 42.9375 43.394531 42.796875 C 43.175781 42.589844 42.824219 42.675781 42.539062 42.773438 C 41.21875 43.234375 40.628906 43.367188 39.347656 42.792969 C 40.59375 41.445312 42.230469 40.425781 43.519531 39.089844 C 45.539062 36.996094 47.761719 35.339844 50.019531 33.527344 C 50.019531 33.136719 50.632812 32.929688 50.117188 32.449219 C 49.773438 32.128906 49.457031 32.28125 49.144531 32.480469 Z M 49.144531 32.480469"
          />
        </g>
      </g>
    </g>
  </g>
  <g mask="url(#v)">
    <g>
      <g clip-path="url(#w)" transform="translate(246 144)">
        <g clip-path="url(#x)">
          <path
            d="M 65.882812 54.332031 C 66.875 54.578125 67.929688 54.355469 68.75 53.78125 C 71.257812 54.398438 73.933594 54.4375 76.480469 54.207031 C 79.191406 53.964844 82.695312 53.636719 83.785156 50.691406 C 84.839844 47.832031 82.550781 45.882812 79.964844 45.4375 C 76.917969 44.910156 73.492188 44.054688 70.394531 44.40625 C 67.8125 44.703125 65.425781 46.183594 64.074219 48.410156 C 62.800781 50.515625 63.074219 53.632812 65.882812 54.332031 Z M 3.664062 12.675781 C 6.402344 8.085938 11.203125 5.070312 16.488281 4.136719 C 18.574219 0.0429688 24.339844 -0.414062 28.597656 0.554688 C 32.253906 1.382812 35.5625 3.425781 37.988281 6.234375 C 39.988281 5.726562 41.453125 4.0625 43.476562 3.214844 C 48.433594 1.132812 51.882812 2.632812 55.96875 5.230469 C 59.910156 7.738281 64.289062 9.566406 68.851562 10.59375 C 72.171875 11.34375 75.703125 11.71875 78.550781 13.570312 C 83.65625 16.894531 84.835938 24.480469 81.851562 29.769531 C 79.578125 33.792969 75.402344 36.429688 70.964844 37.527344 C 68.875 38.042969 67.480469 37.941406 65.925781 39.449219 C 64.238281 41.082031 63.355469 43.445312 62.1875 45.429688 C 57.824219 52.839844 49.160156 51.5 42.007812 53.597656 C 33.222656 56.175781 23.53125 55.992188 14.925781 52.804688 C 9.75 50.886719 4.980469 47.570312 3.308594 42.402344 C 2.054688 38.519531 3.1875 34.574219 5.789062 31.582031 C 0.253906 27.058594 0.0898438 18.667969 3.664062 12.675781 Z M 49.972656 68.820312 C 50.15625 68.519531 50.417969 68.265625 50.722656 68.050781 C 51.5625 67.464844 52.742188 67.160156 53.625 67.019531 C 54.074219 66.945312 55.90625 67.222656 56.175781 66.925781 C 57.226562 65.75 58.742188 65.042969 60.3125 64.941406 C 62.101562 64.253906 64.160156 64.402344 65.820312 65.65625 C 66.160156 65.914062 66.460938 66.203125 66.730469 66.515625 C 68.777344 66.089844 70.707031 65.742188 72.710938 66.648438 C 74.289062 67.363281 75.53125 68.695312 75.875 70.414062 C 76.652344 74.28125 72.597656 76.851562 69.140625 76.375 C 68.894531 76.339844 68.628906 76.296875 68.355469 76.238281 C 68.023438 76.457031 67.6875 76.660156 67.335938 76.824219 C 65.28125 77.785156 62.917969 77.925781 60.867188 77.152344 C 59.816406 77.214844 58.738281 77.007812 57.742188 76.46875 C 57.371094 76.265625 57.023438 76.019531 56.699219 75.746094 C 56.378906 75.75 56.050781 75.722656 55.722656 75.671875 C 55.148438 75.804688 54.539062 75.835938 53.910156 75.734375 C 51.097656 75.289062 48.246094 71.65625 49.972656 68.820312 Z M 49.972656 68.820312"
          />
        </g>
        <g clip-path="url(#y)">
          <path
            fill="#32312F"
            d="M 22.464844 47.5 C 23.746094 50.082031 25.332031 52.59375 26.828125 55.066406 C 27.761719 53.710938 28.859375 52.476562 29.78125 51.109375 C 30.257812 50.402344 31.199219 51.5 30.855469 52.128906 C 30.121094 53.46875 29.5625 54.890625 28.84375 56.238281 C 28.65625 56.585938 28.433594 56.933594 28.253906 57.296875 C 29.550781 59.171875 31.011719 60.84375 32.816406 62.371094 C 35.210938 64.398438 37.382812 66.390625 39.121094 69.011719 C 39.265625 67.183594 39.515625 65.367188 39.894531 63.574219 C 40.125 62.480469 40.507812 61.402344 40.746094 60.324219 C 41.296875 57.828125 41.472656 55.269531 42.105469 52.773438 C 42.441406 51.433594 42.566406 50.886719 42.039062 49.597656 C 41.648438 48.632812 41.160156 47.710938 40.566406 46.851562 C 39.160156 44.8125 36.871094 44.320312 35.277344 42.457031 C 34.789062 41.882812 34.34375 41.265625 33.921875 40.628906 C 33.269531 39.644531 32.671875 38.617188 32.042969 37.640625 C 31.527344 36.839844 32.519531 36.167969 33.050781 36.96875 C 34.082031 38.515625 34.972656 40.574219 36.691406 41.507812 C 38.503906 42.492188 40.875 42.71875 42.824219 43.664062 C 43.707031 44.09375 46.617188 47.046875 47.261719 46.980469 C 48.035156 46.902344 49.578125 44.488281 50.203125 43.902344 C 51.917969 42.308594 54.226562 39.949219 54.214844 37.441406 C 54.210938 36.476562 54.207031 35.503906 54.183594 34.539062 C 54.160156 33.683594 55.285156 34.195312 55.402344 34.761719 C 55.675781 36.066406 56.144531 37.457031 56.164062 38.828125 C 57.355469 37.863281 58.566406 36.921875 59.441406 35.628906 C 60.082031 34.683594 60.699219 33.71875 61.328125 32.765625 C 61.46875 32.550781 61.664062 32.3125 61.921875 32.34375 C 62.972656 32.488281 61.71875 34.417969 61.535156 34.78125 C 60.96875 35.890625 60.4375 37.285156 59.574219 38.199219 C 58.644531 39.179688 57.890625 40.300781 57.097656 41.410156 C 55.3125 43.902344 53.523438 46.398438 51.773438 48.910156 C 51.070312 49.917969 50.191406 50.742188 49.617188 51.859375 C 49.039062 52.992188 48.679688 54.246094 48.667969 55.519531 C 48.648438 57.667969 49.390625 57.015625 50.992188 56.726562 C 52.289062 56.492188 53.605469 56.367188 54.90625 56.148438 C 57.847656 55.65625 60.820312 55.332031 63.757812 54.835938 C 63.792969 54.796875 63.824219 54.757812 63.867188 54.722656 C 64.757812 53.976562 65.777344 53.820312 66.796875 53.40625 C 66.851562 53.386719 66.902344 53.359375 66.953125 53.335938 C 67.019531 53.035156 67.113281 52.730469 67.203125 52.386719 C 67.46875 51.367188 67.652344 50.335938 67.804688 49.296875 C 67.914062 48.53125 68.835938 49.039062 68.832031 49.621094 C 68.828125 50.515625 68.789062 51.40625 68.734375 52.292969 C 69.011719 52.113281 69.289062 51.941406 69.566406 51.796875 C 71.457031 50.808594 73.371094 49.867188 75.242188 48.839844 C 76.191406 48.316406 77.4375 49.835938 76.421875 50.414062 C 74.492188 51.511719 72.621094 52.695312 70.714844 53.832031 C 68.886719 54.925781 67.023438 56.695312 65.019531 57.421875 C 62.902344 58.191406 60.222656 58.476562 57.992188 58.90625 C 55.714844 59.34375 53.402344 59.699219 51.140625 60.222656 C 48.804688 60.761719 49.054688 62.058594 48.710938 64.207031 C 47.976562 68.78125 47.558594 72.976562 47.554688 77.605469 C 49.730469 75.488281 51.933594 73.378906 53.914062 71.085938 C 54.433594 70.484375 55.519531 71.332031 55.015625 71.964844 C 52.746094 74.832031 50.804688 77.980469 48.761719 81.011719 C 48.375 81.582031 47.984375 82.199219 47.578125 82.804688 C 45.085938 86.503906 48.34375 93.414062 49.578125 97.0625 C 51.734375 103.445312 52.375 109.804688 53.195312 116.492188 C 53.40625 118.214844 49.164062 117.96875 48.28125 117.929688 C 46.140625 117.832031 41.394531 119.5625 39.976562 117.019531 C 39.515625 116.191406 39.578125 115.183594 39.65625 114.238281 C 39.976562 110.316406 40.6875 106.222656 40.628906 102.292969 C 40.574219 98.613281 39.671875 94.917969 39.671875 91.199219 C 39.671875 88.574219 39.96875 85.851562 39.886719 83.273438 C 39.808594 80.773438 38.632812 77.972656 37.605469 75.722656 C 35.527344 71.152344 32.308594 67.089844 29.183594 63.285156 C 27.371094 61.078125 25.734375 58.742188 24.386719 56.222656 C 22.949219 53.535156 22.167969 50.683594 21.058594 47.871094 C 20.621094 46.761719 22.015625 46.597656 22.464844 47.5 Z M 22.464844 47.5"
          />
        </g>
      </g>
    </g>
  </g>
  <g clip-path="url(#z)">
    <path
      fill="#38402E"
      d="M 202.445312 185.472656 C 201.273438 185.769531 200.019531 185.503906 199.046875 184.816406 C 196.074219 185.550781 192.898438 185.597656 189.882812 185.324219 C 186.664062 185.035156 182.511719 184.644531 181.21875 181.125 C 179.964844 177.710938 182.683594 175.386719 185.75 174.855469 C 189.363281 174.226562 193.421875 173.203125 197.097656 173.625 C 200.160156 173.976562 202.992188 175.746094 204.589844 178.402344 C 206.101562 180.917969 205.78125 184.636719 202.445312 185.472656 Z M 276.230469 135.746094 C 272.980469 130.265625 267.289062 126.667969 261.019531 125.550781 C 258.550781 120.664062 251.710938 120.121094 246.660156 121.273438 C 242.328125 122.265625 238.402344 124.703125 235.527344 128.058594 C 233.15625 127.449219 231.414062 125.460938 229.019531 124.449219 C 223.140625 121.96875 219.046875 123.757812 214.203125 126.859375 C 209.53125 129.851562 204.339844 132.035156 198.925781 133.261719 C 194.988281 134.152344 190.800781 134.601562 187.425781 136.816406 C 181.371094 140.78125 179.972656 149.835938 183.511719 156.148438 C 186.207031 160.957031 191.160156 164.101562 196.421875 165.410156 C 198.902344 166.027344 200.550781 165.90625 202.394531 167.707031 C 204.394531 169.65625 205.445312 172.476562 206.832031 174.847656 C 212 183.691406 222.28125 182.089844 230.757812 184.597656 C 241.175781 187.675781 252.671875 187.453125 262.871094 183.648438 C 269.011719 181.359375 274.667969 177.402344 276.648438 171.230469 C 278.140625 166.597656 276.792969 161.890625 273.710938 158.3125 C 280.273438 152.917969 280.46875 142.898438 276.230469 135.746094 Z M 221.3125 202.765625 C 221.097656 202.410156 220.789062 202.109375 220.421875 201.851562 C 219.429688 201.148438 218.027344 200.785156 216.984375 200.617188 C 216.449219 200.53125 214.277344 200.863281 213.960938 200.503906 C 212.710938 199.101562 210.914062 198.261719 209.050781 198.136719 C 206.929688 197.316406 204.488281 197.496094 202.523438 198.992188 C 202.117188 199.296875 201.761719 199.644531 201.445312 200.019531 C 199.011719 199.511719 196.726562 199.09375 194.351562 200.175781 C 192.476562 201.027344 191.007812 202.621094 190.597656 204.671875 C 189.675781 209.285156 194.484375 212.359375 198.582031 211.789062 C 198.875 211.746094 199.191406 211.691406 199.515625 211.625 C 199.90625 211.886719 200.308594 212.128906 200.726562 212.324219 C 203.160156 213.46875 205.964844 213.636719 208.394531 212.714844 C 209.640625 212.792969 210.917969 212.542969 212.101562 211.898438 C 212.539062 211.65625 212.953125 211.363281 213.335938 211.035156 C 213.71875 211.039062 214.105469 211.007812 214.492188 210.949219 C 215.175781 211.105469 215.898438 211.140625 216.644531 211.023438 C 219.980469 210.492188 223.359375 206.15625 221.3125 202.765625 Z M 221.3125 202.765625"
    />
  </g>
  <path
    fill="#ABB3A4"
    d="M 253.933594 177.320312 C 252.414062 180.398438 250.53125 183.394531 248.761719 186.347656 C 247.652344 184.730469 246.351562 183.257812 245.257812 181.625 C 244.691406 180.78125 243.574219 182.09375 243.984375 182.84375 C 244.855469 184.441406 245.515625 186.140625 246.371094 187.746094 C 246.59375 188.164062 246.855469 188.578125 247.070312 189.011719 C 245.527344 191.25 243.800781 193.246094 241.660156 195.070312 C 238.820312 197.488281 236.242188 199.871094 234.183594 203 C 234.011719 200.816406 233.710938 198.648438 233.265625 196.507812 C 232.992188 195.199219 232.539062 193.914062 232.257812 192.628906 C 231.601562 189.648438 231.390625 186.59375 230.644531 183.613281 C 230.246094 182.011719 230.097656 181.363281 230.71875 179.824219 C 231.1875 178.671875 231.765625 177.570312 232.46875 176.542969 C 234.132812 174.109375 236.851562 173.519531 238.738281 171.296875 C 239.320312 170.613281 239.847656 169.875 240.347656 169.113281 C 241.121094 167.941406 241.828125 166.714844 242.574219 165.546875 C 243.1875 164.59375 242.011719 163.792969 241.382812 164.742188 C 240.15625 166.589844 239.101562 169.050781 237.066406 170.164062 C 234.914062 171.339844 232.101562 171.609375 229.789062 172.738281 C 228.746094 173.25 225.289062 176.777344 224.527344 176.699219 C 223.613281 176.605469 221.78125 173.722656 221.039062 173.023438 C 219.007812 171.121094 216.269531 168.300781 216.285156 165.308594 C 216.289062 164.160156 216.292969 162.996094 216.320312 161.847656 C 216.347656 160.824219 215.011719 161.433594 214.875 162.109375 C 214.550781 163.667969 213.996094 165.332031 213.972656 166.96875 C 212.558594 165.8125 211.121094 164.6875 210.085938 163.144531 C 209.328125 162.015625 208.59375 160.867188 207.851562 159.730469 C 207.683594 159.472656 207.449219 159.183594 207.144531 159.226562 C 205.894531 159.398438 207.382812 161.703125 207.601562 162.132812 C 208.277344 163.457031 208.90625 165.125 209.929688 166.214844 C 211.03125 167.386719 211.925781 168.722656 212.863281 170.046875 C 214.980469 173.019531 217.101562 176.003906 219.179688 179 C 220.011719 180.203125 221.054688 181.1875 221.734375 182.523438 C 222.421875 183.875 222.84375 185.371094 222.859375 186.890625 C 222.882812 189.457031 222.003906 188.679688 220.105469 188.332031 C 218.566406 188.050781 217.007812 187.902344 215.464844 187.640625 C 211.972656 187.054688 208.449219 186.667969 204.96875 186.074219 C 204.925781 186.027344 204.886719 185.980469 204.835938 185.941406 C 203.777344 185.046875 202.574219 184.859375 201.363281 184.371094 C 201.300781 184.34375 201.238281 184.3125 201.175781 184.285156 C 201.101562 183.925781 200.988281 183.558594 200.882812 183.148438 C 200.566406 181.933594 200.347656 180.703125 200.167969 179.464844 C 200.039062 178.550781 198.945312 179.15625 198.949219 179.851562 C 198.953125 180.914062 199 181.980469 199.066406 183.039062 C 198.734375 182.824219 198.40625 182.621094 198.078125 182.445312 C 195.835938 181.265625 193.566406 180.144531 191.347656 178.917969 C 190.222656 178.292969 188.746094 180.105469 189.949219 180.796875 C 192.234375 182.105469 194.457031 183.519531 196.714844 184.875 C 198.882812 186.179688 201.09375 188.292969 203.46875 189.160156 C 205.984375 190.082031 209.160156 190.417969 211.804688 190.933594 C 214.507812 191.457031 217.246094 191.882812 219.925781 192.503906 C 222.699219 193.148438 222.402344 194.695312 222.8125 197.261719 C 223.683594 202.722656 224.179688 207.730469 224.183594 213.257812 C 221.601562 210.726562 218.988281 208.207031 216.640625 205.476562 C 216.023438 204.753906 214.738281 205.765625 215.332031 206.523438 C 218.023438 209.945312 220.328125 213.703125 222.75 217.320312 C 223.210938 218.003906 223.671875 218.738281 224.15625 219.460938 C 227.109375 223.878906 223.242188 232.128906 221.78125 236.480469 C 219.222656 244.101562 218.464844 251.695312 217.492188 259.679688 C 217.242188 261.734375 222.273438 261.441406 223.316406 261.394531 C 225.859375 261.277344 231.484375 263.34375 233.167969 260.308594 C 233.714844 259.320312 233.640625 258.113281 233.546875 256.984375 C 233.167969 252.308594 232.324219 247.417969 232.394531 242.726562 C 232.460938 238.332031 233.527344 233.921875 233.527344 229.484375 C 233.527344 226.351562 233.175781 223.101562 233.273438 220.023438 C 233.367188 217.039062 234.761719 213.691406 235.976562 211.007812 C 238.445312 205.550781 242.261719 200.703125 245.964844 196.160156 C 248.117188 193.523438 250.058594 190.738281 251.65625 187.730469 C 253.363281 184.519531 254.285156 181.121094 255.601562 177.757812 C 256.121094 176.433594 254.464844 176.238281 253.933594 177.320312 Z M 253.933594 177.320312"
  />
  <path
    fill="#EB5E37"
    d="M 42.980469 173.445312 C 34.992188 173.445312 27.472656 170.335938 21.828125 164.679688 C 16.171875 159.039062 13.0625 151.515625 13.0625 143.527344 C 13.0625 135.542969 16.171875 128.019531 21.828125 122.378906 C 27.472656 116.722656 34.992188 113.613281 42.980469 113.613281 C 50.96875 113.613281 58.488281 116.722656 64.132812 122.378906 C 69.789062 128.03125 72.894531 135.542969 72.894531 143.527344 C 72.894531 151.515625 69.789062 159.039062 64.132812 164.679688 C 58.488281 170.335938 50.96875 173.445312 42.980469 173.445312 Z M 42.980469 115.40625 C 35.472656 115.40625 28.402344 118.335938 23.09375 123.644531 C 17.785156 128.953125 14.855469 136.019531 14.855469 143.527344 C 14.855469 151.039062 17.785156 158.105469 23.09375 163.414062 C 28.402344 168.722656 35.472656 171.652344 42.980469 171.652344 C 50.488281 171.652344 57.554688 168.722656 62.863281 163.414062 C 68.171875 158.105469 71.101562 151.039062 71.101562 143.527344 C 71.101562 136.019531 68.171875 128.953125 62.863281 123.644531 C 57.554688 118.335938 50.488281 115.40625 42.980469 115.40625 Z M 42.980469 115.40625"
  />
  <path
    fill="#5FC473"
    d="M 26.824219 142.625 C 26.820312 142.660156 26.777344 143.167969 27.019531 143.457031 L 27.019531 143.460938 L 27.71875 144.285156 C 27.988281 144.601562 27.960938 145.0625 27.671875 145.34375 C 27.667969 145.351562 27.660156 145.355469 27.652344 145.359375 C 27.648438 145.367188 27.640625 145.375 27.632812 145.378906 L 24.871094 147.722656 C 24.863281 147.726562 24.855469 147.730469 24.847656 147.738281 C 24.84375 147.746094 24.835938 147.75 24.828125 147.753906 C 24.503906 147.992188 24.042969 147.941406 23.777344 147.628906 L 23.074219 146.800781 C 22.832031 146.511719 22.320312 146.472656 22.285156 146.46875 C 22.289062 146.4375 22.335938 145.925781 22.089844 145.636719 L 21.390625 144.808594 C 21.125 144.496094 21.148438 144.035156 21.4375 143.753906 C 21.445312 143.746094 21.449219 143.742188 21.457031 143.734375 C 21.464844 143.726562 21.46875 143.722656 21.476562 143.714844 L 24.238281 141.375 C 24.246094 141.367188 24.253906 141.363281 24.261719 141.359375 C 24.269531 141.351562 24.277344 141.347656 24.28125 141.34375 C 24.605469 141.101562 25.066406 141.152344 25.332031 141.46875 L 26.035156 142.292969 C 26.277344 142.582031 26.789062 142.625 26.824219 142.625 Z M 26.824219 142.625"
  />
  <path
    fill="#5FC473"
    d="M 42.558594 143.253906 C 42.304688 142.164062 42.011719 141.074219 41.492188 140.070312 C 40.992188 139.105469 40.152344 138.371094 39.695312 137.378906 C 39.230469 136.371094 38.96875 135.277344 38.761719 134.199219 C 38.417969 132.386719 37.425781 131.253906 36.621094 130.609375 L 33.9375 131.746094 L 40.058594 146.25 L 42.9375 145.035156 C 42.839844 144.4375 42.699219 143.835938 42.558594 143.253906 Z M 42.558594 143.253906"
  />
  <path
    fill="#5FC473"
    d="M 32.675781 133.890625 C 32.914062 134.988281 33.1875 136.082031 33.714844 137.082031 C 34.222656 138.042969 35.113281 138.753906 35.574219 139.742188 C 36.042969 140.746094 36.285156 141.847656 36.464844 142.9375 C 36.769531 144.765625 37.8125 145.875 38.664062 146.496094 L 40.574219 145.691406 L 34.457031 131.203125 L 32.335938 132.097656 C 32.417969 132.699219 32.550781 133.304688 32.675781 133.890625 Z M 32.675781 133.890625"
  />
  <path
    fill="#5FC473"
    d="M 38.773438 140.613281 C 38.804688 140.628906 39.277344 140.820312 39.625 140.675781 L 40.625 140.253906 C 41.003906 140.09375 41.4375 140.257812 41.621094 140.617188 C 41.625 140.625 41.628906 140.632812 41.632812 140.640625 C 41.636719 140.648438 41.640625 140.65625 41.644531 140.664062 L 43.050781 144 C 43.054688 144.011719 43.058594 144.019531 43.0625 144.027344 C 43.066406 144.035156 43.066406 144.042969 43.070312 144.050781 C 43.203125 144.433594 43.015625 144.855469 42.636719 145.015625 L 41.636719 145.4375 C 41.289062 145.585938 41.097656 146.0625 41.085938 146.09375 C 41.054688 146.082031 40.582031 145.882812 40.230469 146.03125 L 39.234375 146.453125 C 38.851562 146.613281 38.417969 146.449219 38.238281 146.089844 C 38.234375 146.082031 38.230469 146.074219 38.226562 146.066406 C 38.222656 146.058594 38.21875 146.050781 38.214844 146.042969 L 36.804688 142.707031 C 36.800781 142.695312 36.800781 142.6875 36.796875 142.679688 C 36.792969 142.671875 36.792969 142.664062 36.789062 142.65625 C 36.65625 142.273438 36.84375 141.847656 37.222656 141.6875 L 38.222656 141.269531 C 38.570312 141.121094 38.761719 140.644531 38.773438 140.613281 Z M 38.773438 140.613281"
  />
  <path
    stroke-linecap="round"
    transform="matrix(.58303 1.37164 -1.38047 .58678 34.707 133.903)"
    fill="none"
    d="M 0.500613 -0.000484617 L 8.061147 0.000813489"
    stroke="#5FC473"
  />
  <path
    stroke-linecap="round"
    transform="matrix(.60226 1.36928 -1.37306 .60392 36.48 133.205)"
    fill="none"
    d="M 0.500617 -0.000205736 L 8.029382 -0.000864632"
    stroke="#5FC473"
  />
  <path
    fill="#5FC473"
    d="M 25.441406 147.027344 C 26.402344 146.457031 27.355469 145.855469 28.15625 145.058594 C 28.929688 144.292969 29.375 143.273438 30.1875 142.539062 C 31.011719 141.796875 31.976562 141.214844 32.945312 140.699219 C 34.570312 139.828125 35.355469 138.539062 35.726562 137.582031 L 33.84375 135.359375 L 21.832031 145.539062 L 23.851562 147.921875 C 24.394531 147.648438 24.925781 147.335938 25.441406 147.027344 Z M 25.441406 147.027344"
  />
  <path
    fill="#5FC473"
    d="M 31.414062 134.796875 C 30.441406 135.351562 29.476562 135.941406 28.683594 136.742188 C 27.917969 137.515625 27.503906 138.578125 26.699219 139.3125 C 25.878906 140.058594 24.902344 140.621094 23.917969 141.117188 C 22.261719 141.957031 21.515625 143.28125 21.179688 144.28125 L 22.515625 145.859375 L 34.515625 135.691406 L 33.027344 133.9375 C 32.472656 134.195312 31.9375 134.5 31.414062 134.796875 Z M 31.414062 134.796875"
  />
  <path
    fill="#5FC473"
    d="M 37.441406 134 L 34.589844 136.433594 L 32.640625 134.152344 Z M 37.441406 134"
  />
  <path
    stroke-linecap="round"
    transform="matrix(-1.1489 .96784 -.9664 -1.1472 34.268 134.93)"
    fill="none"
    d="M 0.499429 -0.00119064 L 9.986816 0.00108805"
    stroke="#5FC473"
  />
  <path
    fill="#5FC473"
    d="M 38.246094 135.320312 L 35.398438 137.738281 L 34.425781 136.59375 L 37.277344 134.175781 Z M 38.246094 135.320312"
  />
  <path
    stroke-linecap="round"
    transform="matrix(-1.12913 .99365 -.99095 -1.12607 36.49 135.268)"
    fill="none"
    d="M 0.500345 -0.000408348 L 10.974601 0.000890066"
    stroke="#5FC473"
  />
  <path
    fill="#5FC473"
    d="M 32.335938 147.304688 C 32.875 146.324219 33.386719 145.320312 33.667969 144.226562 C 33.945312 143.171875 33.808594 142.066406 34.132812 141.023438 C 34.460938 139.964844 34.996094 138.972656 35.566406 138.035156 C 36.523438 136.457031 36.542969 134.949219 36.375 133.933594 L 33.621094 132.984375 L 28.472656 147.859375 L 31.425781 148.882812 C 31.753906 148.371094 32.046875 147.832031 32.335938 147.304688 Z M 32.335938 147.304688"
  />
  <path
    fill="#5FC473"
    d="M 31.246094 133.738281 C 30.6875 134.707031 30.160156 135.707031 29.886719 136.800781 C 29.621094 137.855469 29.808594 138.980469 29.488281 140.023438 C 29.164062 141.082031 28.609375 142.066406 28.015625 142.996094 C 27.019531 144.558594 27.050781 146.082031 27.269531 147.113281 L 29.226562 147.789062 L 34.367188 132.925781 L 32.191406 132.175781 C 31.851562 132.679688 31.542969 133.214844 31.246094 133.738281 Z M 31.246094 133.738281"
  />
  <path
    fill="#5FC473"
    d="M 31.28125 142.8125 C 31.296875 142.84375 31.519531 143.304688 31.878906 143.425781 L 31.875 143.429688 L 32.902344 143.78125 C 33.289062 143.917969 33.503906 144.328125 33.398438 144.71875 C 33.398438 144.726562 33.394531 144.734375 33.390625 144.742188 C 33.390625 144.75 33.386719 144.761719 33.382812 144.769531 L 32.199219 148.191406 C 32.195312 148.199219 32.191406 148.207031 32.1875 148.21875 C 32.1875 148.226562 32.183594 148.234375 32.179688 148.242188 C 32.023438 148.613281 31.601562 148.804688 31.210938 148.667969 L 30.1875 148.3125 C 29.828125 148.191406 29.367188 148.417969 29.339844 148.429688 C 29.324219 148.402344 29.101562 147.9375 28.746094 147.816406 L 28.746094 147.8125 L 27.722656 147.460938 C 27.332031 147.324219 27.117188 146.914062 27.222656 146.523438 C 27.226562 146.515625 27.226562 146.507812 27.230469 146.5 C 27.234375 146.492188 27.234375 146.484375 27.238281 146.472656 L 28.421875 143.050781 C 28.425781 143.042969 28.429688 143.035156 28.433594 143.027344 C 28.4375 143.015625 28.441406 143.011719 28.441406 143 C 28.597656 142.628906 29.023438 142.441406 29.410156 142.574219 L 30.4375 142.929688 C 30.792969 143.050781 31.253906 142.828125 31.28125 142.8125 Z M 31.28125 142.8125"
  />
  <path
    fill="#5FC473"
    d="M 36.023438 129.980469 L 34.8125 133.523438 L 31.972656 132.554688 Z M 36.023438 129.980469"
  />
  <path
    stroke-linecap="round"
    transform="matrix(-.4954 1.4182 -1.41609 -.49467 33.767 132.396)"
    fill="none"
    d="M 0.499814 -0.000396824 L 9.985835 -0.000555103"
    stroke="#5FC473"
  />
  <path
    fill="#5FC473"
    d="M 37.390625 130.703125 L 36.171875 134.234375 L 34.753906 133.746094 L 35.972656 130.210938 Z M 37.390625 130.703125"
  />
  <path
    stroke-linecap="round"
    transform="matrix(-.46524 1.43032 -1.42644 -.46398 35.851 131.554)"
    fill="none"
    d="M 0.500271 0.000745087 L 10.973417 -0.000288222"
    stroke="#5FC473"
  />
  <path
    fill="#5FC473"
    d="M 50.628906 135.863281 C 49.625 135.371094 48.597656 134.90625 47.496094 134.671875 C 46.429688 134.449219 45.332031 134.632812 44.273438 134.359375 C 43.199219 134.078125 42.183594 133.589844 41.21875 133.066406 C 39.597656 132.183594 38.09375 132.234375 37.089844 132.449219 L 36.265625 135.246094 L 51.367188 139.695312 L 52.25 136.699219 C 51.722656 136.394531 51.171875 136.125 50.628906 135.863281 Z M 50.628906 135.863281"
  />
  <path
    fill="#5FC473"
    d="M 37.128906 137.582031 C 38.125 138.09375 39.148438 138.574219 40.253906 138.796875 C 41.320312 139.015625 42.433594 138.773438 43.492188 139.042969 C 44.566406 139.320312 45.574219 139.828125 46.53125 140.378906 C 48.136719 141.300781 49.65625 141.199219 50.675781 140.929688 L 51.261719 138.945312 L 36.175781 134.5 L 35.523438 136.707031 C 36.042969 137.027344 36.59375 137.308594 37.128906 137.582031 Z M 37.128906 137.582031"
  />
  <path
    fill="#5FC473"
    d="M 46.191406 137.121094 C 46.222656 137.105469 46.671875 136.863281 46.777344 136.5 L 46.78125 136.5 L 47.085938 135.460938 C 47.203125 135.066406 47.601562 134.832031 47.996094 134.917969 C 48.007812 134.921875 48.015625 134.921875 48.023438 134.925781 C 48.03125 134.925781 48.039062 134.929688 48.050781 134.933594 L 51.523438 135.957031 C 51.53125 135.957031 51.539062 135.960938 51.550781 135.964844 C 51.558594 135.96875 51.566406 135.96875 51.574219 135.972656 C 51.953125 136.113281 52.160156 136.527344 52.046875 136.921875 L 51.738281 137.960938 C 51.632812 138.324219 51.878906 138.773438 51.894531 138.800781 C 51.867188 138.816406 51.414062 139.058594 51.308594 139.421875 L 51 140.464844 C 50.882812 140.859375 50.484375 141.089844 50.089844 141.003906 C 50.082031 141.003906 50.074219 141 50.066406 140.996094 C 50.054688 140.996094 50.046875 140.992188 50.039062 140.992188 L 46.566406 139.96875 C 46.554688 139.964844 46.546875 139.960938 46.539062 139.957031 C 46.53125 139.957031 46.523438 139.953125 46.515625 139.949219 C 46.136719 139.808594 45.925781 139.398438 46.042969 139 L 46.347656 137.960938 C 46.457031 137.597656 46.207031 137.152344 46.191406 137.121094 Z M 46.191406 137.121094"
  />
  <path
    fill="#5FC473"
    d="M 33.152344 132.980469 L 36.753906 134.027344 L 35.914062 136.90625 Z M 33.152344 132.980469"
  />
  <path
    stroke-linecap="round"
    transform="matrix(1.4397 .42894 -.4283 1.43755 35.672 135.128)"
    fill="none"
    d="M 0.499226 0.00123072 L 9.986795 -0.00100542"
    stroke="#5FC473"
  />
  <path
    fill="#5FC473"
    d="M 33.8125 131.578125 L 37.398438 132.632812 L 36.976562 134.070312 L 33.390625 133.015625 Z M 33.8125 131.578125"
  />
  <path
    stroke-linecap="round"
    transform="matrix(1.4504 .39825 -.39717 1.44646 34.732 133.082)"
    fill="none"
    d="M 0.500091 -0.000249867 L 10.97411 0.000176718"
    stroke="#5FC473"
  />
  <path
    fill="#5FC473"
    d="M 52.050781 129.34375 C 50.9375 129.226562 49.8125 129.144531 48.695312 129.304688 C 47.617188 129.457031 46.648438 130.011719 45.5625 130.113281 C 44.457031 130.222656 43.335938 130.109375 42.25 129.949219 C 40.425781 129.675781 39.03125 130.242188 38.160156 130.789062 L 38.34375 133.695312 L 54.054688 132.691406 L 53.855469 129.574219 C 53.261719 129.46875 52.648438 129.40625 52.050781 129.34375 Z M 52.050781 129.34375"
  />
  <path
    fill="#5FC473"
    d="M 39.960938 135.59375 C 41.070312 135.730469 42.195312 135.832031 43.3125 135.664062 C 44.386719 135.5 45.351562 134.890625 46.4375 134.785156 C 47.539062 134.675781 48.660156 134.804688 49.75 134.992188 C 51.574219 135.308594 52.964844 134.691406 53.832031 134.089844 L 53.699219 132.023438 L 38.003906 133.027344 L 38.152344 135.324219 C 38.75 135.445312 39.363281 135.519531 39.960938 135.59375 Z M 39.960938 135.59375"
  />
  <path
    fill="#5FC473"
    d="M 48.3125 132.050781 C 48.335938 132.023438 48.675781 131.640625 48.652344 131.265625 L 48.582031 130.183594 C 48.558594 129.769531 48.851562 129.414062 49.253906 129.363281 C 49.261719 129.359375 49.269531 129.359375 49.277344 129.359375 C 49.289062 129.355469 49.296875 129.355469 49.304688 129.355469 L 52.921875 129.125 C 52.929688 129.125 52.9375 129.125 52.949219 129.125 C 52.957031 129.125 52.964844 129.125 52.972656 129.125 C 53.378906 129.125 53.714844 129.441406 53.742188 129.851562 L 53.8125 130.933594 C 53.835938 131.3125 54.222656 131.648438 54.246094 131.671875 C 54.226562 131.695312 53.886719 132.078125 53.910156 132.457031 L 53.90625 132.457031 L 53.976562 133.539062 C 54.003906 133.949219 53.707031 134.304688 53.308594 134.359375 C 53.296875 134.359375 53.289062 134.359375 53.28125 134.359375 C 53.273438 134.363281 53.261719 134.363281 53.253906 134.363281 L 49.640625 134.59375 C 49.628906 134.597656 49.621094 134.59375 49.613281 134.597656 C 49.605469 134.597656 49.59375 134.59375 49.585938 134.597656 C 49.183594 134.59375 48.84375 134.277344 48.816406 133.867188 L 48.75 132.785156 C 48.726562 132.40625 48.339844 132.070312 48.3125 132.050781 Z M 48.3125 132.050781"
  />
  <path
    fill="#5FC473"
    d="M 34.644531 132.636719 L 38.386719 132.382812 L 38.589844 135.375 Z M 34.644531 132.636719"
  />
  <path
    stroke-linecap="round"
    transform="matrix(1.49945 -.09137 .09123 1.49722 37.748 133.79)"
    fill="none"
    d="M 0.498793 -0.00120259 L 9.986474 0.00118214"
    stroke="#5FC473"
  />
  <path
    fill="#5FC473"
    d="M 34.785156 131.09375 L 38.511719 130.851562 L 38.609375 132.347656 L 34.878906 132.589844 Z M 34.785156 131.09375"
  />
  <path
    stroke-linecap="round"
    transform="matrix(1.49898 -.12387 .12354 1.4949 36.162 132.19)"
    fill="none"
    d="M 0.498891 0.000189442 L 10.974738 0.000718464"
    stroke="#5FC473"
  />
  <path
    fill="#5FC473"
    d="M 33.394531 131.863281 C 33.203125 131.941406 33.105469 132.160156 33.183594 132.351562 C 33.257812 132.542969 33.476562 132.636719 33.671875 132.5625 C 33.863281 132.484375 33.957031 132.269531 33.878906 132.074219 C 33.804688 131.882812 33.585938 131.789062 33.394531 131.863281 Z M 33.394531 131.863281"
  />
  <path
    fill="#5FC473"
    d="M 35.289062 131.710938 C 35.097656 131.789062 35.003906 132.007812 35.078125 132.199219 C 35.15625 132.390625 35.375 132.484375 35.566406 132.410156 C 35.757812 132.332031 35.851562 132.113281 35.777344 131.921875 C 35.699219 131.730469 35.480469 131.636719 35.289062 131.710938 Z M 35.289062 131.710938"
  />
  <path
    fill="#5FC473"
    d="M 34.679688 133.601562 C 34.488281 133.679688 34.394531 133.894531 34.46875 134.089844 C 34.546875 134.28125 34.761719 134.375 34.957031 134.300781 C 35.148438 134.222656 35.242188 134.003906 35.167969 133.8125 C 35.089844 133.621094 34.871094 133.527344 34.679688 133.601562 Z M 34.679688 133.601562"
  />
  <path
    stroke-linecap="round"
    transform="matrix(-.9637 -1.13196 1.14215 -.97237 55.1 154.473)"
    fill="none"
    d="M 0.500545 0.0000740527 L 16.154115 -0.000465431"
    stroke="#5FC473"
  />
  <path
    stroke-linecap="round"
    transform="matrix(1.43314 .2088 -.22877 1.5702 42.228 144.32)"
    fill="none"
    d="M 0.500684 -0.00112069 L 3.128424 0.000223688"
    stroke="#5FC473"
  />
  <path
    stroke-linecap="round"
    transform="matrix(-.97126 -1.14309 1.20922 -1.02745 52.897 156.81)"
    fill="none"
    d="M 0.500743 -0.0000968329 L 15.506087 -0.000195372"
    stroke="#5FC473"
  />
  <path
    stroke-linecap="round"
    transform="matrix(1.50745 .24525 -.2548 1.56618 54.572 154.087)"
    fill="none"
    d="M 0.498986 0.00120799 L 2.944927 -0.000204134"
    stroke="#5FC473"
  />
  <path
    stroke-linecap="round"
    transform="matrix(1.43314 .2088 -.22877 1.5702 39.878 141.429)"
    fill="none"
    d="M 0.499547 -0.00101862 L 3.127287 0.000325765"
    stroke="#5FC473"
  />
  <path
    stroke-linecap="round"
    transform="matrix(1.43314 .2088 -.22877 1.5702 45.779 148.304)"
    fill="none"
    d="M 0.500805 0.000903666 L 3.128156 -0.000187984"
    stroke="#5FC473"
  />
  <path
    stroke-linecap="round"
    transform="matrix(1.43314 .2088 -.22877 1.5702 47.934 151.243)"
    fill="none"
    d="M 0.501121 0.000313642 L 3.128471 -0.000778008"
    stroke="#5FC473"
  />
  <path
    stroke-linecap="round"
    transform="matrix(1.50745 .24525 -.2548 1.56618 52.093 156.417)"
    fill="none"
    d="M 0.500501 -0.000176843 L 2.944329 0.00123614"
    stroke="#5FC473"
  />
  <path
    stroke-linecap="round"
    transform="matrix(1.41735 -.43116 .4618 1.51809 51.986 155.438)"
    fill="none"
    d="M 0.500234 0.000481968 L 2.032477 0.000805134"
    stroke="#5FC473"
  />
</svg>
