<svg
  xmlns="http://www.w3.org/2000/svg"
  width="375"
  viewBox="0 0 375 375"
  height="375"
  version="1.0"
>
  <defs>
    <clipPath id="a">
      <path d="M 26 203 L 42 203 L 42 233.511719 L 26 233.511719 Z M 26 203" />
    </clipPath>
    <clipPath id="b">
      <path
        d="M 70 195 L 103 195 L 103 233.511719 L 70 233.511719 Z M 70 195"
      />
    </clipPath>
    <clipPath id="c">
      <path d="M 63 230 L 68 230 L 68 233.511719 L 63 233.511719 Z M 63 230" />
    </clipPath>
    <clipPath id="d">
      <path d="M 20 230 L 25 230 L 25 233.511719 L 20 233.511719 Z M 20 230" />
    </clipPath>
    <clipPath id="e">
      <path d="M 16 157 L 65 157 L 65 233.511719 L 16 233.511719 Z M 16 157" />
    </clipPath>
    <clipPath id="f">
      <path
        d="M 70 143 L 127 143 L 127 233.511719 L 70 233.511719 Z M 70 143"
      />
    </clipPath>
    <clipPath id="g">
      <path
        d="M 152 188 L 183 188 L 183 232.761719 L 152 232.761719 Z M 152 188"
      />
    </clipPath>
    <clipPath id="h">
      <path
        d="M 157 141.261719 L 186 141.261719 L 186 159 L 157 159 Z M 157 141.261719"
      />
    </clipPath>
    <clipPath id="i">
      <path
        d="M 147 230 L 152 230 L 152 232.761719 L 147 232.761719 Z M 147 230"
      />
    </clipPath>
    <clipPath id="j">
      <path
        d="M 181 184 L 225 184 L 225 232.761719 L 181 232.761719 Z M 181 184"
      />
    </clipPath>
    <clipPath id="k">
      <path
        d="M 225 230 L 229 230 L 229 232.761719 L 225 232.761719 Z M 225 230"
      />
    </clipPath>
    <clipPath id="l">
      <path
        d="M 333 203 L 349 203 L 349 233.511719 L 333 233.511719 Z M 333 203"
      />
    </clipPath>
    <clipPath id="m">
      <path
        d="M 272 195 L 305 195 L 305 233.511719 L 272 233.511719 Z M 272 195"
      />
    </clipPath>
    <clipPath id="n">
      <path
        d="M 307 230 L 312 230 L 312 233.511719 L 307 233.511719 Z M 307 230"
      />
    </clipPath>
    <clipPath id="o">
      <path
        d="M 350 230 L 355 230 L 355 233.511719 L 350 233.511719 Z M 350 230"
      />
    </clipPath>
    <clipPath id="p">
      <path
        d="M 310 157 L 359 157 L 359 233.511719 L 310 233.511719 Z M 310 157"
      />
    </clipPath>
    <clipPath id="q">
      <path
        d="M 248.039062 143 L 305 143 L 305 233.511719 L 248.039062 233.511719 Z M 248.039062 143"
      />
    </clipPath>
  </defs>
  <path fill="none" d="M-37.5 -37.5H412.5V412.5H-37.5z" />
  <path fill="none" d="M-37.5 -37.5H412.5V412.5H-37.5z" />
  <path
    fill="#100F0D"
    d="M 85.445312 203.929688 C 85.441406 202.226562 85.023438 199.011719 82.171875 196.949219 C 79.953125 195.347656 77.089844 195.015625 74.511719 196.066406 C 73.816406 196.351562 73.480469 197.144531 73.765625 197.839844 C 74.050781 198.53125 74.847656 198.867188 75.542969 198.582031 C 77.242188 197.890625 79.121094 198.101562 80.570312 199.148438 C 83.15625 201.019531 82.683594 204.640625 82.679688 204.671875 C 82.578125 205.339844 82.992188 205.980469 83.644531 206.171875 C 86.042969 206.878906 87.445312 208.5 87.8125 210.992188 C 87.890625 211.511719 87.742188 212.015625 87.390625 212.421875 C 87.035156 212.832031 86.515625 213.066406 85.972656 213.066406 L 72.027344 213.066406 C 71.46875 213.066406 70.945312 212.820312 70.589844 212.390625 C 70.113281 211.804688 69.253906 211.71875 68.671875 212.195312 C 68.085938 212.667969 68 213.523438 68.476562 214.105469 C 69.351562 215.171875 70.644531 215.785156 72.027344 215.785156 L 85.972656 215.785156 C 87.308594 215.785156 88.582031 215.207031 89.457031 214.195312 C 90.320312 213.203125 90.703125 211.890625 90.511719 210.597656 C 90.046875 207.433594 88.261719 205.101562 85.445312 203.929688"
  />
  <path
    fill="#100F0D"
    d="M 64.980469 192.101562 C 66.425781 193.558594 67.324219 195.589844 67.578125 197.976562 C 67.625 198.425781 67.648438 198.894531 67.648438 199.375 C 67.648438 199.949219 68.023438 200.46875 68.570312 200.660156 C 68.585938 200.664062 69.988281 201.171875 71.234375 202.71875 C 72.03125 203.710938 72.175781 204.988281 71.617188 206.140625 C 71.054688 207.308594 69.945312 208.007812 68.648438 208.007812 L 53.183594 208.007812 C 52.429688 208.007812 51.820312 208.617188 51.820312 209.367188 C 51.820312 210.117188 52.429688 210.726562 53.183594 210.726562 L 68.648438 210.726562 C 70.984375 210.726562 73.066406 209.417969 74.078125 207.316406 C 75.082031 205.234375 74.808594 202.820312 73.363281 201.023438 C 72.289062 199.683594 71.132812 198.90625 70.351562 198.492188 C 70.339844 198.21875 70.316406 197.953125 70.289062 197.691406 C 69.972656 194.683594 68.808594 192.089844 66.921875 190.191406 C 66.390625 189.65625 65.527344 189.652344 64.992188 190.179688 C 64.457031 190.707031 64.449219 191.566406 64.980469 192.101562"
  />
  <path
    fill="#100F0D"
    d="M 56.945312 212.441406 C 56.195312 212.441406 55.582031 213.050781 55.582031 213.800781 L 55.582031 226.761719 C 55.582031 227.511719 56.195312 228.121094 56.945312 228.121094 C 57.699219 228.121094 58.3125 227.511719 58.3125 226.761719 L 58.3125 222.425781 C 58.3125 220.917969 59.121094 219.507812 60.429688 218.75 L 60.507812 218.703125 C 62.109375 217.769531 63.257812 216.273438 63.738281 214.488281 C 63.933594 213.765625 63.503906 213.019531 62.777344 212.824219 C 62.046875 212.628906 61.300781 213.058594 61.105469 213.785156 C 60.808594 214.871094 60.109375 215.785156 59.132812 216.355469 L 59.050781 216.402344 C 58.792969 216.550781 58.546875 216.71875 58.3125 216.902344 L 58.3125 213.800781 C 58.3125 213.050781 57.699219 212.441406 56.945312 212.441406"
  />
  <g clip-path="url(#a)">
    <path
      fill="#100F0D"
      d="M 39.960938 230.804688 L 33.789062 230.804688 C 35.398438 229.125 36.375 226.847656 36.375 224.402344 L 36.375 204.550781 C 36.375 203.800781 35.765625 203.191406 35.011719 203.191406 C 34.257812 203.191406 33.648438 203.800781 33.648438 204.550781 L 33.648438 210.734375 C 33.578125 210.675781 33.507812 210.617188 33.433594 210.5625 L 31.035156 208.75 C 29.867188 207.863281 29.171875 206.464844 29.171875 205.003906 C 29.171875 204.253906 28.558594 203.644531 27.804688 203.644531 C 27.054688 203.644531 26.441406 204.253906 26.441406 205.003906 C 26.441406 207.308594 27.542969 209.519531 29.386719 210.910156 L 31.78125 212.726562 C 32.949219 213.609375 33.648438 215.007812 33.648438 216.46875 L 33.648438 224.402344 C 33.648438 227.449219 31.503906 230.125 28.550781 230.761719 C 28.382812 230.796875 28.277344 230.8125 28.261719 230.816406 C 27.546875 230.90625 27.027344 231.535156 27.070312 232.25 C 27.117188 232.964844 27.714844 233.523438 28.433594 233.523438 L 39.960938 233.523438 C 40.714844 233.523438 41.324219 232.914062 41.324219 232.164062 C 41.324219 231.414062 40.714844 230.804688 39.960938 230.804688"
    />
  </g>
  <g clip-path="url(#b)">
    <path
      fill="#100F0D"
      d="M 97.171875 196.820312 C 97.171875 196.070312 96.558594 195.460938 95.808594 195.460938 C 95.054688 195.460938 94.441406 196.070312 94.441406 196.820312 L 94.441406 224.402344 C 94.441406 227.46875 92.578125 230.144531 90.011719 230.769531 C 89.949219 230.785156 89.894531 230.796875 89.855469 230.804688 L 79.542969 230.804688 L 79.542969 225.371094 C 79.542969 224.710938 79.957031 224.113281 80.578125 223.882812 L 82.257812 223.253906 C 83.9375 222.628906 85.066406 221.007812 85.066406 219.222656 C 85.066406 218.472656 84.453125 217.863281 83.703125 217.863281 C 82.949219 217.863281 82.335938 218.472656 82.335938 219.222656 C 82.335938 219.882812 81.921875 220.480469 81.300781 220.710938 L 79.621094 221.335938 C 79.59375 221.347656 79.570312 221.359375 79.542969 221.371094 L 79.542969 219.222656 C 79.542969 218.472656 78.929688 217.863281 78.179688 217.863281 C 77.425781 217.863281 76.8125 218.472656 76.8125 219.222656 L 76.8125 224.53125 C 76.808594 224.527344 76.800781 224.523438 76.792969 224.519531 L 74.835938 223.539062 C 74.070312 223.15625 73.589844 222.382812 73.589844 221.527344 L 73.589844 219.492188 C 73.589844 218.742188 72.980469 218.132812 72.226562 218.132812 C 71.472656 218.132812 70.863281 218.742188 70.863281 219.492188 L 70.863281 221.527344 C 70.863281 223.414062 71.914062 225.117188 73.609375 225.96875 L 75.566406 226.949219 C 76.335938 227.335938 76.8125 228.105469 76.8125 228.960938 L 76.8125 230.804688 L 72.226562 230.804688 C 71.472656 230.804688 70.863281 231.414062 70.863281 232.164062 C 70.863281 232.914062 71.472656 233.523438 72.226562 233.523438 L 89.972656 233.523438 C 89.972656 233.523438 89.976562 233.523438 89.976562 233.523438 L 100.761719 233.523438 C 101.515625 233.523438 102.125 232.914062 102.125 232.164062 C 102.125 231.414062 101.515625 230.804688 100.761719 230.804688 L 94.828125 230.804688 C 96.285156 229.125 97.171875 226.847656 97.171875 224.402344 L 97.171875 196.820312"
    />
  </g>
  <path
    fill="#100F0D"
    d="M 113.257812 203.644531 C 112.507812 203.644531 111.894531 204.253906 111.894531 205.003906 L 111.894531 227.59375 C 111.894531 228.34375 112.507812 228.949219 113.257812 228.949219 C 114.011719 228.949219 114.625 228.34375 114.625 227.59375 L 114.625 219.488281 C 114.625 218.113281 115.367188 216.835938 116.566406 216.160156 L 116.90625 215.96875 C 118.957031 214.804688 120.230469 212.625 120.230469 210.277344 C 120.230469 209.527344 119.621094 208.917969 118.867188 208.917969 C 118.113281 208.917969 117.503906 209.527344 117.503906 210.277344 C 117.503906 211.652344 116.757812 212.925781 115.558594 213.605469 L 115.21875 213.796875 C 115.011719 213.914062 114.816406 214.042969 114.625 214.183594 L 114.625 205.003906 C 114.625 204.253906 114.011719 203.644531 113.257812 203.644531"
  />
  <g clip-path="url(#c)">
    <path
      fill="#100F0D"
      d="M 66.378906 230.804688 L 64.621094 230.804688 C 63.871094 230.804688 63.257812 231.414062 63.257812 232.164062 C 63.257812 232.914062 63.871094 233.523438 64.621094 233.523438 L 66.378906 233.523438 C 67.132812 233.523438 67.742188 232.914062 67.742188 232.164062 C 67.742188 231.414062 67.132812 230.804688 66.378906 230.804688"
    />
  </g>
  <g clip-path="url(#d)">
    <path
      fill="#100F0D"
      d="M 23.121094 233.523438 C 23.875 233.523438 24.484375 232.914062 24.484375 232.164062 C 24.484375 231.414062 23.875 230.804688 23.121094 230.804688 L 22.039062 230.804688 C 21.285156 230.804688 20.675781 231.414062 20.675781 232.164062 C 20.675781 232.914062 21.285156 233.523438 22.039062 233.523438 L 23.121094 233.523438"
    />
  </g>
  <g clip-path="url(#e)">
    <path
      fill="#100F0D"
      d="M 17.949219 182.824219 C 18.03125 182.972656 19.601562 185.738281 22.753906 186.613281 C 22.878906 186.648438 23 186.664062 23.121094 186.664062 C 23.71875 186.664062 24.265625 186.269531 24.4375 185.667969 C 24.636719 184.945312 24.214844 184.195312 23.488281 183.996094 C 21.457031 183.429688 20.359375 181.550781 20.332031 181.503906 C 20.296875 181.4375 18.457031 178.035156 19.613281 174.304688 C 20.421875 171.679688 22.539062 169.492188 25.90625 167.800781 C 26.21875 167.644531 26.460938 167.371094 26.578125 167.039062 C 26.597656 166.984375 28.59375 161.53125 35.828125 160.085938 C 38.761719 159.5 41.765625 160.007812 44.066406 161.480469 C 45.636719 162.488281 46.742188 163.792969 47.34375 165.363281 C 47.5 165.765625 47.835938 166.074219 48.257812 166.1875 C 48.394531 166.226562 62.210938 170.15625 61.902344 183.125 C 61.835938 184.019531 60.480469 198.113281 43.164062 198.753906 C 42.410156 198.78125 41.824219 199.410156 41.851562 200.160156 C 41.855469 200.261719 41.871094 200.363281 41.898438 200.457031 C 41.871094 200.5625 41.851562 200.671875 41.851562 200.789062 L 41.851562 224.402344 C 41.851562 228.722656 44.898438 232.511719 49.101562 233.417969 C 49.398438 233.480469 49.589844 233.507812 49.621094 233.511719 C 49.679688 233.519531 49.738281 233.523438 49.796875 233.523438 L 58.757812 233.523438 C 59.511719 233.523438 60.121094 232.914062 60.121094 232.164062 C 60.121094 231.414062 59.511719 230.804688 58.757812 230.804688 L 49.902344 230.804688 C 49.847656 230.796875 49.773438 230.78125 49.675781 230.761719 C 46.722656 230.125 44.578125 227.449219 44.578125 224.402344 L 44.578125 212.941406 C 44.578125 211.339844 45.539062 209.910156 47.027344 209.296875 C 49.152344 208.421875 50.65625 206.554688 51.058594 204.300781 C 51.1875 203.5625 50.695312 202.855469 49.949219 202.726562 C 49.210938 202.59375 48.5 203.089844 48.371094 203.828125 C 48.132812 205.164062 47.242188 206.269531 45.984375 206.785156 C 45.476562 206.992188 45.007812 207.261719 44.578125 207.574219 L 44.578125 201.390625 C 54.125 200.660156 59.054688 195.996094 61.523438 192.117188 C 64.3125 187.730469 64.617188 183.457031 64.628906 183.277344 C 64.628906 183.257812 64.628906 183.242188 64.628906 183.226562 C 64.789062 176.960938 62.117188 171.566406 56.902344 167.625 C 53.914062 165.367188 50.917969 164.203125 49.628906 163.769531 C 48.78125 161.925781 47.40625 160.390625 45.542969 159.195312 C 42.652344 157.34375 38.917969 156.695312 35.292969 157.417969 C 27.875 158.902344 24.988281 163.941406 24.222656 165.609375 C 20.429688 167.621094 18.003906 170.273438 17.003906 173.503906 C 15.507812 178.347656 17.847656 182.640625 17.949219 182.824219"
    />
  </g>
  <path
    fill="#100F0D"
    d="M 37.324219 198.777344 L 34.140625 198.777344 C 31.605469 198.777344 29.226562 198.320312 27.066406 197.425781 C 22.429688 195.5 19.992188 192.214844 19.824219 187.664062 C 19.796875 186.914062 19.152344 186.332031 18.410156 186.355469 C 17.660156 186.382812 17.070312 187.015625 17.097656 187.765625 C 17.359375 194.871094 22.09375 198.304688 26.015625 199.933594 C 28.507812 200.96875 31.242188 201.492188 34.140625 201.492188 L 37.324219 201.492188 C 38.078125 201.492188 38.6875 200.886719 38.6875 200.132812 C 38.6875 199.382812 38.078125 198.777344 37.324219 198.777344"
  />
  <g clip-path="url(#f)">
    <path
      fill="#100F0D"
      d="M 119.34375 163.039062 C 119.800781 160.542969 119.460938 157.722656 118.332031 154.636719 C 116.988281 150.976562 114.519531 147.917969 111.375 146.019531 C 103.488281 141.265625 96.355469 145.792969 94.238281 147.398438 C 91.929688 146.761719 84.894531 145.476562 78.550781 151.023438 C 75.695312 153.519531 73.710938 156.914062 72.808594 160.835938 C 72.03125 164.207031 71.636719 168.855469 73.84375 172.582031 C 70.75 176.140625 69.996094 180.992188 71.890625 185.375 C 73.878906 189.972656 78.230469 192.828125 83.242188 192.828125 L 97.738281 192.828125 C 98.488281 192.828125 99.101562 192.21875 99.101562 191.46875 C 99.101562 190.71875 98.488281 190.109375 97.738281 190.109375 L 83.242188 190.109375 C 79.335938 190.109375 75.949219 187.882812 74.398438 184.300781 C 72.863281 180.761719 73.554688 176.832031 76.195312 174.042969 C 76.371094 173.859375 76.480469 173.757812 76.496094 173.742188 C 77.023438 173.273438 77.101562 172.476562 76.671875 171.914062 C 74.378906 168.890625 74.75 164.550781 75.464844 161.445312 C 76.242188 158.082031 77.929688 155.183594 80.351562 153.066406 C 86.65625 147.554688 93.753906 150.074219 94.046875 150.183594 C 94.53125 150.363281 95.074219 150.257812 95.453125 149.914062 C 95.730469 149.660156 102.359375 143.761719 109.960938 148.34375 C 112.578125 149.921875 114.640625 152.484375 115.765625 155.566406 C 116.523438 157.628906 117.253906 160.660156 116.464844 163.390625 C 116.265625 164.0625 116.628906 164.777344 117.28125 165.035156 C 117.414062 165.085938 120.527344 166.347656 122.449219 170.472656 C 125.621094 177.285156 122.984375 185.195312 116.445312 188.476562 C 114.289062 189.558594 111.796875 190.109375 109.039062 190.109375 L 103.074219 190.109375 C 102.324219 190.109375 101.710938 190.71875 101.710938 191.46875 C 101.710938 191.578125 101.730469 191.6875 101.753906 191.789062 C 101.730469 191.890625 101.710938 192 101.710938 192.109375 L 101.710938 224.402344 C 101.710938 228.703125 104.449219 232.492188 108.222656 233.410156 C 108.5 233.476562 108.679688 233.503906 108.710938 233.507812 C 108.777344 233.519531 108.84375 233.523438 108.90625 233.523438 C 108.90625 233.523438 108.90625 233.523438 108.910156 233.523438 L 117.613281 233.523438 C 118.367188 233.523438 118.976562 232.914062 118.976562 232.164062 C 118.976562 231.414062 118.367188 230.804688 117.613281 230.804688 L 109.027344 230.804688 C 108.988281 230.796875 108.933594 230.785156 108.867188 230.769531 C 106.300781 230.144531 104.441406 227.46875 104.441406 224.402344 L 104.441406 210.070312 C 104.441406 208.269531 105.207031 206.546875 106.546875 205.339844 L 108.644531 203.445312 C 110.550781 201.726562 111.648438 199.265625 111.648438 196.703125 C 111.648438 195.953125 111.035156 195.34375 110.28125 195.34375 C 109.527344 195.34375 108.917969 195.953125 108.917969 196.703125 C 108.917969 198.5 108.152344 200.222656 106.8125 201.433594 L 104.714844 203.324219 C 104.621094 203.410156 104.53125 203.496094 104.441406 203.585938 L 104.441406 192.828125 L 109.039062 192.828125 C 112.226562 192.828125 115.132812 192.179688 117.675781 190.902344 C 121.480469 188.992188 124.316406 185.691406 125.660156 181.601562 C 126.992188 177.566406 126.730469 173.207031 124.921875 169.328125 C 123.246094 165.726562 120.761719 163.863281 119.34375 163.039062"
    />
  </g>
  <path
    fill="#100F0D"
    d="M 230.269531 164.070312 C 229.769531 161.347656 227.054688 151.398438 214.222656 150.6875 C 214.125 150.683594 204.394531 150.152344 199.898438 158.742188 C 199.886719 158.742188 199.875 158.742188 199.863281 158.746094 C 198.257812 158.917969 196.6875 159.300781 195.199219 159.882812 C 194.542969 160.136719 194.21875 160.871094 194.476562 161.523438 C 194.734375 162.175781 195.472656 162.5 196.125 162.242188 C 197.40625 161.746094 198.753906 161.414062 200.136719 161.265625 C 200.53125 161.222656 200.765625 161.214844 200.765625 161.214844 C 201.242188 161.199219 201.671875 160.914062 201.875 160.480469 C 205.457031 152.792969 213.710938 153.199219 214.070312 153.21875 C 226.648438 153.917969 227.796875 164.53125 227.839844 164.976562 C 227.875 165.402344 228.125 165.78125 228.5 165.984375 C 235.367188 169.675781 234.390625 180.605469 234.382812 180.699219 C 233.851562 185.519531 231.332031 188.910156 226.886719 190.769531 C 226.238281 191.042969 225.933594 191.785156 226.207031 192.433594 C 226.410156 192.917969 226.882812 193.210938 227.378906 193.210938 C 227.542969 193.210938 227.710938 193.175781 227.871094 193.109375 C 231.558594 191.566406 236.121094 188.207031 236.914062 180.960938 C 236.964844 180.457031 238.023438 168.800781 230.269531 164.070312"
  />
  <g clip-path="url(#g)">
    <path
      fill="#100F0D"
      d="M 167.71875 198.078125 C 168.039062 198.320312 168.453125 198.394531 168.839844 198.285156 C 170.050781 197.9375 171.152344 197.5625 172.109375 197.175781 C 174.308594 196.289062 175.730469 194.183594 175.730469 191.808594 L 175.730469 190.757812 L 178.003906 190.757812 L 178.003906 191.960938 C 178.003906 194.832031 176.730469 197.496094 174.507812 199.273438 C 172.5 200.882812 169.640625 203.46875 167.433594 206.675781 C 167.289062 206.886719 167.214844 207.136719 167.214844 207.390625 L 167.214844 230.21875 L 160.976562 230.21875 L 160.976562 190.757812 L 167.214844 190.757812 L 167.214844 197.066406 C 167.214844 197.464844 167.398438 197.839844 167.71875 198.078125 Z M 153.695312 208.007812 C 154.90625 208.585938 156.058594 209.316406 157.121094 210.183594 C 157.554688 210.539062 157.992188 210.859375 158.429688 211.144531 L 158.429688 230.21875 L 155.191406 230.21875 C 154.488281 230.21875 153.917969 230.789062 153.917969 231.488281 C 153.917969 232.1875 154.488281 232.757812 155.191406 232.757812 L 172.492188 232.757812 C 173.195312 232.757812 173.765625 232.1875 173.765625 231.488281 C 173.765625 230.789062 173.195312 230.21875 172.492188 230.21875 L 169.757812 230.21875 L 169.757812 207.789062 C 171.753906 204.988281 174.292969 202.699219 176.101562 201.25 C 178.929688 198.992188 180.550781 195.605469 180.550781 191.960938 L 180.550781 190.757812 L 181.40625 190.757812 C 182.109375 190.757812 182.675781 190.1875 182.675781 189.488281 C 182.675781 188.789062 182.109375 188.21875 181.40625 188.21875 L 174.457031 188.21875 C 173.753906 188.21875 173.183594 188.789062 173.183594 189.488281 L 173.183594 191.808594 C 173.183594 193.144531 172.386719 194.328125 171.15625 194.824219 C 170.726562 194.996094 170.257812 195.171875 169.757812 195.339844 L 169.757812 189.488281 C 169.757812 188.789062 169.1875 188.21875 168.484375 188.21875 L 155.964844 188.21875 C 155.261719 188.21875 154.691406 188.789062 154.691406 189.488281 C 154.691406 190.1875 155.261719 190.757812 155.964844 190.757812 L 158.429688 190.757812 L 158.429688 207.988281 C 157.292969 207.097656 156.074219 206.328125 154.789062 205.71875 C 154.15625 205.417969 153.394531 205.6875 153.09375 206.320312 C 152.792969 206.953125 153.0625 207.707031 153.695312 208.007812"
    />
  </g>
  <g clip-path="url(#h)">
    <path
      fill="#100F0D"
      d="M 158.714844 144.699219 C 165.101562 143.789062 180.257812 143.203125 183.070312 157.320312 C 183.191406 157.921875 183.722656 158.339844 184.320312 158.339844 C 184.402344 158.339844 184.484375 158.332031 184.570312 158.316406 C 185.257812 158.179688 185.707031 157.511719 185.570312 156.824219 C 184.175781 149.835938 179.847656 145.046875 173.058594 142.96875 C 167.476562 141.261719 161.449219 141.746094 158.355469 142.1875 C 157.660156 142.285156 157.175781 142.929688 157.273438 143.621094 C 157.375 144.316406 158.019531 144.796875 158.714844 144.699219"
    />
  </g>
  <path
    fill="#100F0D"
    d="M 151.28125 146.761719 C 151.441406 146.761719 151.605469 146.730469 151.765625 146.664062 C 151.949219 146.589844 152.136719 146.515625 152.324219 146.441406 C 152.980469 146.183594 153.300781 145.445312 153.042969 144.792969 C 152.785156 144.144531 152.046875 143.824219 151.390625 144.078125 C 151.191406 144.160156 150.992188 144.238281 150.792969 144.320312 C 150.144531 144.589844 149.835938 145.332031 150.105469 145.980469 C 150.304688 146.46875 150.78125 146.761719 151.28125 146.761719"
  />
  <path
    fill="#100F0D"
    d="M 136.3125 190.824219 C 137.667969 192.40625 139.113281 193.445312 140.191406 194.082031 C 139.1875 195.390625 138.125 197.597656 138.910156 200.566406 C 140.164062 205.308594 143.972656 206.511719 146.214844 206.511719 C 146.402344 206.511719 146.578125 206.503906 146.738281 206.488281 C 147.4375 206.421875 147.953125 205.800781 147.886719 205.105469 C 147.820312 204.40625 147.199219 203.898438 146.5 203.960938 C 146.339844 203.976562 142.523438 204.28125 141.371094 199.921875 C 140.519531 196.6875 142.960938 194.8125 143.058594 194.742188 C 143.441406 194.464844 143.632812 194.003906 143.566406 193.539062 C 143.503906 193.074219 143.183594 192.683594 142.742188 192.523438 C 142.347656 192.378906 133.140625 188.859375 135.234375 175.535156 C 135.257812 175.40625 135.257812 175.273438 135.234375 175.144531 C 135.210938 174.988281 132.996094 159.652344 145.121094 150.429688 C 145.679688 150.003906 145.785156 149.207031 145.359375 148.652344 C 144.929688 148.09375 144.132812 147.988281 143.574219 148.414062 C 130.863281 158.085938 132.421875 173.300781 132.691406 175.332031 C 131.5 183.234375 133.996094 188.117188 136.3125 190.824219"
  />
  <path
    fill="#100F0D"
    d="M 151.046875 190.757812 L 151.511719 190.757812 C 152.214844 190.757812 152.785156 190.1875 152.785156 189.488281 C 152.785156 188.789062 152.214844 188.21875 151.511719 188.21875 L 151.046875 188.21875 C 150.34375 188.21875 149.777344 188.789062 149.777344 189.488281 C 149.777344 190.1875 150.34375 190.757812 151.046875 190.757812"
  />
  <g clip-path="url(#i)">
    <path
      fill="#100F0D"
      d="M 149.054688 232.757812 L 150.09375 232.757812 C 150.796875 232.757812 151.367188 232.1875 151.367188 231.488281 C 151.367188 230.789062 150.796875 230.21875 150.09375 230.21875 L 149.054688 230.21875 C 148.351562 230.21875 147.78125 230.789062 147.78125 231.488281 C 147.78125 232.1875 148.351562 232.757812 149.054688 232.757812"
    />
  </g>
  <path
    fill="#100F0D"
    d="M 184.878906 161.53125 C 183.308594 161.449219 181.808594 161.566406 180.410156 161.882812 C 179.726562 162.039062 179.296875 162.71875 179.453125 163.402344 C 179.609375 164.082031 180.292969 164.511719 180.976562 164.355469 C 182.144531 164.089844 183.410156 163.992188 184.742188 164.066406 C 184.761719 164.066406 184.777344 164.066406 184.796875 164.066406 C 184.820312 164.066406 187.167969 164.113281 189.789062 165.484375 C 193.304688 167.320312 195.515625 170.558594 196.359375 175.113281 C 197.101562 179.117188 196.425781 183.105469 194.457031 186.351562 C 193.230469 188.371094 191.777344 189.699219 190.140625 190.292969 C 189.507812 190.519531 189.164062 191.203125 189.359375 191.847656 C 189.367188 191.875 190.195312 194.664062 189.980469 197.746094 C 189.710938 201.613281 187.933594 204.070312 184.699219 205.050781 C 183.65625 205.367188 182.496094 205.449219 181.25 205.296875 C 179.566406 205.089844 176.304688 205.007812 173.367188 206.761719 C 172.761719 207.121094 172.566406 207.898438 172.929688 208.5 C 173.167969 208.898438 173.589844 209.117188 174.019531 209.117188 C 174.246094 209.117188 174.46875 209.058594 174.675781 208.9375 C 176.960938 207.574219 179.578125 207.648438 180.9375 207.816406 C 182.539062 208.011719 184.054688 207.898438 185.441406 207.476562 C 193.023438 205.179688 193.195312 197.027344 192.082031 192.203125 C 193.828125 191.292969 195.355469 189.773438 196.636719 187.664062 C 198.925781 183.886719 199.71875 179.265625 198.863281 174.652344 C 196.566406 162.265625 185.71875 161.566406 184.878906 161.53125"
  />
  <g clip-path="url(#j)">
    <path
      fill="#100F0D"
      d="M 209.414062 197.265625 C 209.394531 197.265625 209.375 197.265625 209.359375 197.265625 C 205.382812 197.265625 201.667969 196.34375 198.316406 194.527344 C 197.699219 194.195312 196.925781 194.421875 196.589844 195.039062 C 196.257812 195.652344 196.484375 196.421875 197.101562 196.757812 C 200.824219 198.773438 204.9375 199.796875 209.332031 199.800781 C 209.386719 199.804688 209.488281 199.804688 209.632812 199.804688 C 210.097656 199.804688 211.023438 199.777344 212.199219 199.601562 L 212.199219 230.21875 L 207.40625 230.21875 L 207.40625 203.5625 C 207.40625 202.863281 206.835938 202.292969 206.132812 202.292969 C 205.429688 202.292969 204.859375 202.863281 204.859375 203.5625 L 204.859375 230.21875 L 193.136719 230.21875 L 193.136719 217.636719 C 193.136719 215.757812 193.953125 213.976562 195.378906 212.75 L 196.4375 211.839844 C 198.421875 210.128906 199.558594 207.648438 199.558594 205.035156 L 199.558594 204.476562 C 199.558594 203.777344 198.988281 203.207031 198.285156 203.207031 C 197.582031 203.207031 197.011719 203.777344 197.011719 204.476562 L 197.011719 205.035156 C 197.011719 206.910156 196.195312 208.691406 194.769531 209.917969 L 193.714844 210.832031 C 193.511719 211.003906 193.320312 211.1875 193.136719 211.378906 L 193.136719 208.933594 C 193.136719 208.234375 192.566406 207.667969 191.863281 207.667969 C 191.160156 207.667969 190.589844 208.234375 190.589844 208.933594 L 190.589844 219.792969 C 190.496094 219.710938 190.402344 219.632812 190.304688 219.558594 L 186.359375 216.496094 C 185.183594 215.585938 184.511719 214.210938 184.511719 212.730469 L 184.511719 212.527344 C 184.511719 211.824219 183.941406 211.257812 183.238281 211.257812 C 182.535156 211.257812 181.964844 211.824219 181.964844 212.527344 L 181.964844 212.730469 C 181.964844 215 182.996094 217.101562 184.796875 218.5 L 188.742188 221.558594 C 189.917969 222.472656 190.589844 223.84375 190.589844 225.328125 L 190.589844 230.21875 L 185.972656 230.21875 C 185.269531 230.21875 184.699219 230.789062 184.699219 231.488281 C 184.699219 232.1875 185.269531 232.757812 185.972656 232.757812 L 221.605469 232.757812 C 222.308594 232.757812 222.878906 232.1875 222.878906 231.488281 C 222.878906 230.789062 222.308594 230.21875 221.605469 230.21875 L 214.746094 230.21875 L 214.746094 213.472656 C 214.746094 211.589844 215.648438 209.789062 217.160156 208.660156 L 219.496094 206.914062 C 221.136719 205.683594 222.117188 203.730469 222.117188 201.683594 L 222.117188 199.914062 C 222.117188 199.214844 221.546875 198.648438 220.84375 198.648438 C 220.144531 198.648438 219.574219 199.214844 219.574219 199.914062 L 219.574219 201.683594 C 219.574219 202.933594 218.972656 204.132812 217.96875 204.882812 L 215.632812 206.632812 C 215.316406 206.867188 215.023438 207.125 214.746094 207.398438 L 214.746094 199.054688 C 217.285156 198.324219 220.246094 196.898438 222.53125 194.109375 C 225.609375 190.355469 224.585938 186.121094 224.542969 185.941406 C 224.371094 185.265625 223.679688 184.851562 223 185.023438 C 222.316406 185.191406 221.902344 185.882812 222.074219 186.5625 C 222.082031 186.59375 222.835938 189.726562 220.5625 192.503906 C 216.476562 197.480469 209.480469 197.265625 209.414062 197.265625"
    />
  </g>
  <g clip-path="url(#k)">
    <path
      fill="#100F0D"
      d="M 227.488281 232.757812 C 228.191406 232.757812 228.761719 232.1875 228.761719 231.488281 C 228.761719 230.789062 228.191406 230.21875 227.488281 230.21875 L 226.695312 230.21875 C 225.996094 230.21875 225.425781 230.789062 225.425781 231.488281 C 225.425781 232.1875 225.996094 232.757812 226.695312 232.757812 L 227.488281 232.757812"
    />
  </g>
  <path
    fill="#100F0D"
    d="M 289.546875 203.929688 C 289.546875 202.226562 289.96875 199.011719 292.820312 196.949219 C 295.035156 195.347656 297.898438 195.015625 300.476562 196.066406 C 301.175781 196.351562 301.511719 197.144531 301.226562 197.839844 C 300.941406 198.53125 300.144531 198.867188 299.445312 198.582031 C 297.746094 197.890625 295.867188 198.101562 294.421875 199.148438 C 291.835938 201.019531 292.308594 204.640625 292.3125 204.671875 C 292.410156 205.339844 292 205.980469 291.347656 206.171875 C 288.949219 206.878906 287.542969 208.5 287.175781 210.992188 C 287.101562 211.511719 287.25 212.015625 287.597656 212.421875 C 287.957031 212.832031 288.472656 213.066406 289.019531 213.066406 L 302.964844 213.066406 C 303.523438 213.066406 304.046875 212.820312 304.398438 212.390625 C 304.875 211.804688 305.734375 211.71875 306.320312 212.195312 C 306.902344 212.667969 306.992188 213.523438 306.515625 214.105469 C 305.640625 215.171875 304.347656 215.785156 302.964844 215.785156 L 289.019531 215.785156 C 287.679688 215.785156 286.410156 215.207031 285.535156 214.195312 C 284.671875 213.203125 284.285156 211.890625 284.476562 210.597656 C 284.941406 207.433594 286.726562 205.101562 289.546875 203.929688"
  />
  <path
    fill="#100F0D"
    d="M 310.007812 192.101562 C 308.5625 193.558594 307.667969 195.589844 307.414062 197.976562 C 307.367188 198.425781 307.34375 198.894531 307.34375 199.375 C 307.34375 199.949219 306.964844 200.46875 306.421875 200.660156 C 306.40625 200.664062 305.003906 201.171875 303.757812 202.71875 C 302.960938 203.710938 302.816406 204.988281 303.371094 206.140625 C 303.9375 207.308594 305.046875 208.007812 306.34375 208.007812 L 321.808594 208.007812 C 322.5625 208.007812 323.171875 208.617188 323.171875 209.367188 C 323.171875 210.117188 322.5625 210.726562 321.808594 210.726562 L 306.34375 210.726562 C 304.007812 210.726562 301.925781 209.417969 300.914062 207.316406 C 299.90625 205.234375 300.179688 202.820312 301.628906 201.023438 C 302.703125 199.683594 303.859375 198.90625 304.636719 198.492188 C 304.652344 198.21875 304.671875 197.953125 304.699219 197.691406 C 305.019531 194.683594 306.183594 192.089844 308.070312 190.191406 C 308.597656 189.65625 309.460938 189.652344 310 190.179688 C 310.535156 190.707031 310.539062 191.566406 310.007812 192.101562"
  />
  <path
    fill="#100F0D"
    d="M 318.042969 212.441406 C 318.796875 212.441406 319.40625 213.050781 319.40625 213.800781 L 319.40625 226.761719 C 319.40625 227.511719 318.796875 228.121094 318.042969 228.121094 C 317.289062 228.121094 316.679688 227.511719 316.679688 226.761719 L 316.679688 222.425781 C 316.679688 220.917969 315.867188 219.507812 314.5625 218.75 L 314.480469 218.703125 C 312.878906 217.769531 311.734375 216.273438 311.25 214.488281 C 311.054688 213.765625 311.488281 213.019531 312.214844 212.824219 C 312.941406 212.628906 313.691406 213.058594 313.886719 213.785156 C 314.179688 214.871094 314.878906 215.785156 315.855469 216.355469 L 315.9375 216.402344 C 316.199219 216.550781 316.445312 216.71875 316.679688 216.902344 L 316.679688 213.800781 C 316.679688 213.050781 317.289062 212.441406 318.042969 212.441406"
  />
  <g clip-path="url(#l)">
    <path
      fill="#100F0D"
      d="M 335.03125 230.804688 L 341.203125 230.804688 C 339.59375 229.125 338.613281 226.847656 338.613281 224.402344 L 338.613281 204.550781 C 338.613281 203.800781 339.226562 203.191406 339.976562 203.191406 C 340.730469 203.191406 341.34375 203.800781 341.34375 204.550781 L 341.34375 210.734375 C 341.414062 210.675781 341.484375 210.617188 341.558594 210.5625 L 343.953125 208.75 C 345.121094 207.863281 345.820312 206.464844 345.820312 205.003906 C 345.820312 204.253906 346.429688 203.644531 347.183594 203.644531 C 347.9375 203.644531 348.546875 204.253906 348.546875 205.003906 C 348.546875 207.308594 347.449219 209.519531 345.605469 210.910156 L 343.207031 212.726562 C 342.039062 213.609375 341.34375 215.007812 341.34375 216.46875 L 341.34375 224.402344 C 341.34375 227.449219 343.484375 230.125 346.4375 230.761719 C 346.605469 230.796875 346.714844 230.8125 346.730469 230.816406 C 347.445312 230.90625 347.964844 231.535156 347.917969 232.25 C 347.875 232.964844 347.277344 233.523438 346.558594 233.523438 L 335.03125 233.523438 C 334.277344 233.523438 333.667969 232.914062 333.667969 232.164062 C 333.667969 231.414062 334.277344 230.804688 335.03125 230.804688"
    />
  </g>
  <g clip-path="url(#m)">
    <path
      fill="#100F0D"
      d="M 277.820312 196.820312 C 277.820312 196.070312 278.429688 195.460938 279.183594 195.460938 C 279.9375 195.460938 280.546875 196.070312 280.546875 196.820312 L 280.546875 224.402344 C 280.546875 227.46875 282.410156 230.144531 284.976562 230.769531 C 285.042969 230.785156 285.09375 230.796875 285.136719 230.804688 L 295.449219 230.804688 L 295.449219 225.371094 C 295.449219 224.710938 295.03125 224.113281 294.414062 223.882812 L 292.734375 223.253906 C 291.054688 222.628906 289.925781 221.007812 289.925781 219.222656 C 289.925781 218.472656 290.535156 217.863281 291.289062 217.863281 C 292.042969 217.863281 292.652344 218.472656 292.652344 219.222656 C 292.652344 219.882812 293.070312 220.480469 293.691406 220.710938 L 295.367188 221.335938 C 295.394531 221.347656 295.421875 221.359375 295.449219 221.371094 L 295.449219 219.222656 C 295.449219 218.472656 296.058594 217.863281 296.8125 217.863281 C 297.566406 217.863281 298.175781 218.472656 298.175781 219.222656 L 298.175781 224.53125 C 298.183594 224.527344 298.191406 224.523438 298.195312 224.519531 L 300.152344 223.539062 C 300.921875 223.15625 301.398438 222.382812 301.398438 221.527344 L 301.398438 219.492188 C 301.398438 218.742188 302.011719 218.132812 302.765625 218.132812 C 303.515625 218.132812 304.128906 218.742188 304.128906 219.492188 L 304.128906 221.527344 C 304.128906 223.414062 303.074219 225.117188 301.378906 225.96875 L 299.421875 226.949219 C 298.65625 227.335938 298.175781 228.105469 298.175781 228.960938 L 298.175781 230.804688 L 302.765625 230.804688 C 303.515625 230.804688 304.128906 231.414062 304.128906 232.164062 C 304.128906 232.914062 303.515625 233.523438 302.765625 233.523438 L 285.015625 233.523438 C 285.015625 233.523438 285.011719 233.523438 285.011719 233.523438 L 274.226562 233.523438 C 273.476562 233.523438 272.863281 232.914062 272.863281 232.164062 C 272.863281 231.414062 273.476562 230.804688 274.226562 230.804688 L 280.160156 230.804688 C 278.707031 229.125 277.820312 226.847656 277.820312 224.402344 L 277.820312 196.820312"
    />
  </g>
  <path
    fill="#100F0D"
    d="M 261.730469 203.644531 C 262.484375 203.644531 263.09375 204.253906 263.09375 205.003906 L 263.09375 227.59375 C 263.09375 228.34375 262.484375 228.949219 261.730469 228.949219 C 260.976562 228.949219 260.367188 228.34375 260.367188 227.59375 L 260.367188 219.488281 C 260.367188 218.113281 259.621094 216.835938 258.421875 216.160156 L 258.082031 215.96875 C 256.035156 214.804688 254.757812 212.625 254.757812 210.277344 C 254.757812 209.527344 255.371094 208.917969 256.125 208.917969 C 256.878906 208.917969 257.488281 209.527344 257.488281 210.277344 C 257.488281 211.652344 258.230469 212.925781 259.429688 213.605469 L 259.769531 213.796875 C 259.980469 213.914062 260.175781 214.042969 260.367188 214.183594 L 260.367188 205.003906 C 260.367188 204.253906 260.976562 203.644531 261.730469 203.644531"
  />
  <g clip-path="url(#n)">
    <path
      fill="#100F0D"
      d="M 308.613281 230.804688 L 310.367188 230.804688 C 311.121094 230.804688 311.734375 231.414062 311.734375 232.164062 C 311.734375 232.914062 311.121094 233.523438 310.367188 233.523438 L 308.613281 233.523438 C 307.859375 233.523438 307.25 232.914062 307.25 232.164062 C 307.25 231.414062 307.859375 230.804688 308.613281 230.804688"
    />
  </g>
  <g clip-path="url(#o)">
    <path
      fill="#100F0D"
      d="M 351.871094 233.523438 C 351.117188 233.523438 350.503906 232.914062 350.503906 232.164062 C 350.503906 231.414062 351.117188 230.804688 351.871094 230.804688 L 352.953125 230.804688 C 353.707031 230.804688 354.316406 231.414062 354.316406 232.164062 C 354.316406 232.914062 353.707031 233.523438 352.953125 233.523438 L 351.871094 233.523438"
    />
  </g>
  <g clip-path="url(#p)">
    <path
      fill="#100F0D"
      d="M 357.042969 182.824219 C 356.957031 182.972656 355.386719 185.738281 352.234375 186.613281 C 352.113281 186.648438 351.988281 186.664062 351.867188 186.664062 C 351.273438 186.664062 350.722656 186.269531 350.554688 185.667969 C 350.351562 184.945312 350.777344 184.195312 351.503906 183.996094 C 353.535156 183.429688 354.632812 181.550781 354.65625 181.503906 C 354.695312 181.4375 356.53125 178.035156 355.378906 174.304688 C 354.566406 171.679688 352.449219 169.492188 349.085938 167.800781 C 348.769531 167.644531 348.53125 167.371094 348.414062 167.039062 C 348.394531 166.984375 346.394531 161.53125 339.160156 160.085938 C 336.226562 159.5 333.222656 160.007812 330.925781 161.480469 C 329.351562 162.488281 328.25 163.792969 327.648438 165.363281 C 327.492188 165.765625 327.152344 166.074219 326.734375 166.1875 C 326.59375 166.226562 312.777344 170.15625 313.085938 183.125 C 313.15625 184.019531 314.507812 198.113281 331.824219 198.753906 C 332.578125 198.78125 333.167969 199.410156 333.136719 200.160156 C 333.132812 200.261719 333.117188 200.363281 333.09375 200.457031 C 333.121094 200.5625 333.140625 200.671875 333.140625 200.789062 L 333.140625 224.402344 C 333.140625 228.722656 330.089844 232.511719 325.890625 233.417969 C 325.59375 233.480469 325.402344 233.507812 325.367188 233.511719 C 325.308594 233.519531 325.25 233.523438 325.195312 233.523438 C 325.195312 233.523438 325.195312 233.523438 325.191406 233.523438 L 316.230469 233.523438 C 315.476562 233.523438 314.867188 232.914062 314.867188 232.164062 C 314.867188 231.414062 315.476562 230.804688 316.230469 230.804688 L 325.089844 230.804688 C 325.140625 230.796875 325.214844 230.78125 325.3125 230.761719 C 328.265625 230.125 330.410156 227.449219 330.410156 224.402344 L 330.410156 212.941406 C 330.410156 211.339844 329.449219 209.910156 327.964844 209.296875 C 325.839844 208.421875 324.332031 206.554688 323.933594 204.300781 C 323.800781 203.5625 324.296875 202.855469 325.039062 202.726562 C 325.78125 202.59375 326.488281 203.089844 326.621094 203.828125 C 326.855469 205.164062 327.75 206.269531 329.007812 206.785156 C 329.511719 206.992188 329.980469 207.261719 330.410156 207.574219 L 330.410156 201.390625 C 320.867188 200.660156 315.9375 195.996094 313.46875 192.117188 C 310.675781 187.730469 310.375 183.457031 310.363281 183.277344 C 310.363281 183.257812 310.359375 183.242188 310.359375 183.226562 C 310.203125 176.960938 312.871094 171.566406 318.085938 167.625 C 321.078125 165.367188 324.074219 164.203125 325.359375 163.769531 C 326.210938 161.925781 327.582031 160.390625 329.449219 159.195312 C 332.339844 157.34375 336.074219 156.695312 339.699219 157.417969 C 347.117188 158.902344 350.003906 163.941406 350.769531 165.609375 C 354.558594 167.621094 356.988281 170.273438 357.984375 173.503906 C 359.484375 178.347656 357.144531 182.640625 357.042969 182.824219"
    />
  </g>
  <path
    fill="#100F0D"
    d="M 337.664062 198.777344 L 340.847656 198.777344 C 343.386719 198.777344 345.765625 198.320312 347.921875 197.425781 C 352.5625 195.5 355 192.214844 355.167969 187.664062 C 355.195312 186.914062 355.835938 186.332031 356.578125 186.355469 C 357.332031 186.382812 357.921875 187.015625 357.894531 187.765625 C 357.632812 194.871094 352.898438 198.304688 348.972656 199.933594 C 346.480469 200.96875 343.75 201.492188 340.847656 201.492188 L 337.664062 201.492188 C 336.914062 201.492188 336.300781 200.886719 336.300781 200.132812 C 336.300781 199.382812 336.914062 198.777344 337.664062 198.777344"
  />
  <g clip-path="url(#q)">
    <path
      fill="#100F0D"
      d="M 255.644531 163.039062 C 255.191406 160.542969 255.53125 157.722656 256.660156 154.636719 C 258 150.976562 260.472656 147.917969 263.617188 146.019531 C 271.503906 141.265625 278.632812 145.792969 280.75 147.398438 C 283.0625 146.761719 290.09375 145.476562 296.441406 151.023438 C 299.292969 153.519531 301.28125 156.914062 302.183594 160.835938 C 302.960938 164.207031 303.355469 168.855469 301.144531 172.582031 C 304.242188 176.140625 304.996094 180.992188 303.097656 185.375 C 301.109375 189.972656 296.761719 192.828125 291.75 192.828125 L 277.253906 192.828125 C 276.5 192.828125 275.890625 192.21875 275.890625 191.46875 C 275.890625 190.71875 276.5 190.109375 277.253906 190.109375 L 291.75 190.109375 C 295.652344 190.109375 299.042969 187.882812 300.59375 184.300781 C 302.125 180.761719 301.433594 176.832031 298.792969 174.042969 C 298.621094 173.859375 298.511719 173.757812 298.496094 173.742188 C 297.96875 173.273438 297.890625 172.476562 298.316406 171.914062 C 300.613281 168.890625 300.242188 164.550781 299.523438 161.445312 C 298.75 158.082031 297.0625 155.183594 294.640625 153.066406 C 288.335938 147.554688 281.238281 150.074219 280.941406 150.183594 C 280.460938 150.363281 279.917969 150.257812 279.539062 149.914062 C 279.261719 149.660156 272.632812 143.761719 265.03125 148.34375 C 262.414062 149.921875 260.351562 152.484375 259.222656 155.566406 C 258.46875 157.628906 257.734375 160.660156 258.527344 163.390625 C 258.722656 164.0625 258.363281 164.777344 257.710938 165.035156 C 257.578125 165.085938 254.460938 166.347656 252.542969 170.472656 C 249.371094 177.285156 252.007812 185.195312 258.542969 188.476562 C 260.699219 189.558594 263.191406 190.109375 265.949219 190.109375 L 271.914062 190.109375 C 272.667969 190.109375 273.277344 190.71875 273.277344 191.46875 C 273.277344 191.578125 273.261719 191.6875 273.238281 191.789062 C 273.261719 191.890625 273.277344 192 273.277344 192.109375 L 273.277344 224.402344 C 273.277344 228.703125 270.539062 232.492188 266.769531 233.410156 C 266.492188 233.476562 266.3125 233.503906 266.277344 233.507812 C 266.210938 233.519531 266.148438 233.523438 266.082031 233.523438 L 257.378906 233.523438 C 256.625 233.523438 256.011719 232.914062 256.011719 232.164062 C 256.011719 231.414062 256.625 230.804688 257.378906 230.804688 L 265.964844 230.804688 C 266.003906 230.796875 266.054688 230.785156 266.121094 230.769531 C 268.6875 230.144531 270.550781 227.46875 270.550781 224.402344 L 270.550781 210.070312 C 270.550781 208.269531 269.785156 206.546875 268.445312 205.339844 L 266.347656 203.445312 C 264.4375 201.726562 263.34375 199.265625 263.34375 196.703125 C 263.34375 195.953125 263.953125 195.34375 264.707031 195.34375 C 265.460938 195.34375 266.074219 195.953125 266.074219 196.703125 C 266.074219 198.5 266.839844 200.222656 268.179688 201.433594 L 270.277344 203.324219 C 270.371094 203.410156 270.460938 203.496094 270.550781 203.585938 L 270.550781 192.828125 L 265.949219 192.828125 C 262.761719 192.828125 259.855469 192.179688 257.316406 190.902344 C 253.511719 188.992188 250.675781 185.691406 249.328125 181.601562 C 248 177.566406 248.261719 173.207031 250.066406 169.328125 C 251.742188 165.726562 254.230469 163.863281 255.644531 163.039062"
    />
  </g>
</svg>
